<?xml version="1.0" encoding="utf-8"?>
<!-- Generator: Adobe Illustrator 19.1.0, SVG Export Plug-In . SVG Version: 6.00 Build 0)  -->
<svg version="1.1" id="Layer_1" xmlns="http://www.w3.org/2000/svg" xmlns:xlink="http://www.w3.org/1999/xlink" x="0px" y="0px"
	 viewBox="-232 264.3 325.3 85.7" style="enable-background:new -232 264.3 325.3 85.7;" xml:space="preserve">
<style type="text/css">
	.st0{fill:#FFFFFF;}
</style>
<g>
	<path class="st0" d="M-13.7,303.2l-0.3,0.4c-0.6,0.6-1.1,1.3-1.7,2c-0.5,0.7-1,1.4-1.4,2.1c-0.2,0.3-0.3,0.5-0.5,0.8
		c-0.2,0.3-0.3,0.5-0.5,0.8c0.2,0,0.3,0,0.5,0c0.2,0,0.3,0,0.5,0c0.9-0.1,1.6-0.1,2.3-0.2c0.7-0.1,1.5-0.2,2.3-0.4
		c-0.2-0.9-0.4-1.8-0.6-2.7C-13.2,305-13.4,304.1-13.7,303.2z"/>
	<path class="st0" d="M-35.6,304.2c-0.1-0.9-0.4-1.6-0.9-2.1c-0.5-0.5-1-0.9-1.6-1.1c-0.3,0.5-0.7,0.9-1.1,1.2
		c-0.4,0.4-0.8,0.8-1.1,1.1c-0.4,0.4-0.7,0.8-1,1.3c-0.3,0.5-0.5,1-0.6,1.7c1-0.1,2-0.4,3.1-0.8C-37.6,305.1-36.5,304.6-35.6,304.2z
		"/>
	<path class="st0" d="M-117.5,308.6c-0.6-0.9-1.2-1.8-1.6-2.9c-0.5-1-1-2-1.5-2.9c-0.1,0.1-0.2,0.2-0.3,0.3
		c-0.1,0.1-0.3,0.1-0.5-0.1c-0.1,0.2-0.2,0.4-0.3,0.5c-0.1,0.1-0.3,0.1-0.5,0.1c-0.2,0-0.4-0.1-0.5-0.1c-0.2-0.1-0.4-0.2-0.5-0.3
		c-0.8,0.7-1.7,1.3-2.5,1.9c-0.8,0.6-1.6,1.4-2.2,2.2c-0.1,0.1-0.2,0.1-0.2,0.1c0,0-0.1,0-0.3,0.1c-0.2,0.5-0.5,1-0.8,1.5
		c-0.3,0.4-0.7,0.9-1,1.4c-0.3,0.5-0.6,0.9-0.8,1.5c-0.2,0.5-0.4,1.1-0.4,1.8c0.5,0.4,1.1,0.6,1.7,0.7c0.7,0.1,1.3,0.1,2,0
		c0.7-0.1,1.4-0.2,2.1-0.3s1.3-0.2,1.9-0.2c1.2-0.3,2.2-0.7,3.1-1.1c0.9-0.5,1.8-1,2.7-1.4c0.1-0.3,0.3-0.6,0.5-0.8
		c0.2-0.2,0.3-0.5,0.3-0.9c-0.1-0.2-0.2-0.4-0.3-0.5C-117.5,309.1-117.5,308.9-117.5,308.6z"/>
	<path class="st0" d="M13.8,304.2c-0.1-0.9-0.4-1.6-0.9-2.1c-0.5-0.5-1-0.9-1.6-1.1c-0.3,0.5-0.7,0.9-1.1,1.2
		c-0.4,0.4-0.8,0.8-1.1,1.1c-0.4,0.4-0.7,0.8-1,1.3c-0.3,0.5-0.5,1-0.6,1.7c1-0.1,2-0.4,3.1-0.8C11.8,305.1,12.8,304.6,13.8,304.2z"
		/>
	<path class="st0" d="M91,281.4c0-7.9-6.4-14.4-14.4-14.4h-291.2c-7.9,0-14.4,6.4-14.4,14.4v52.2c0,7.9,6.4,14.4,14.4,14.4H76.6
		c7.9,0,14.4-6.4,14.4-14.4V281.4z M-138.7,298.9c-0.2,0.6-0.6,1.2-1.1,1.7c-0.5,0.5-1.1,0.9-1.7,1c-1.4,0.4-2.7,0.8-3.9,1.2
		c-1.2,0.4-2.2,1.1-3,2c-0.7,0.2-1.3,0.5-1.8,0.8c-0.5,0.3-1,0.7-1.5,1.1s-0.9,0.8-1.3,1.3c-0.4,0.4-0.9,0.9-1.3,1.3
		c0,0.4,0,0.7-0.2,0.9c-0.2,0.2-0.3,0.4-0.5,0.7c0.1,0.4,0.2,0.8,0.3,1.1c0.1,0.3,0.3,0.7,0.5,1c1.9,0.6,3.9,0.9,6,1.1
		c2.1,0.1,4.3,0.2,6.4,0.3c0.2,0.3,0.4,0.6,0.7,0.8s0.5,0.5,0.8,0.8c0.2,0.3,0.4,0.6,0.6,0.9c0.1,0.3,0.2,0.7,0.1,1.2
		c-0.4,0.4-0.8,0.8-1.3,1.2c-0.5,0.4-1,0.7-1.5,1.1c-0.5,0-1,0-1.7,0s-1.3,0-1.9,0.3c-1.5-0.1-3.1-0.2-4.6-0.6
		c-1.6-0.3-3-0.7-4.3-1.2c-0.3-0.3-0.6-0.6-0.9-0.9c-0.3-0.3-0.7-0.5-1.2-0.6c-0.7-0.5-1.2-1.2-1.7-2s-0.8-1.6-1-2.5
		c-0.3-0.9-0.4-1.8-0.5-2.7s-0.1-1.8-0.1-2.7c0.4-1.3,1-2.4,1.8-3.3c0.8-0.9,1.6-1.9,2.4-2.8c0.4-0.2,0.7-0.3,0.8-0.5
		s0.4-0.4,0.6-0.5c0.2-0.2,0.4-0.3,0.6-0.5c0.2-0.2,0.4-0.3,0.6-0.6c0.6-0.1,1.1-0.4,1.6-0.6c0.4-0.3,0.9-0.6,1.3-0.9
		c0.4-0.3,0.9-0.6,1.3-0.8c0.5-0.3,1-0.5,1.6-0.6c0.2-0.3,0.5-0.5,0.8-0.6c0.3-0.2,0.6-0.3,1-0.5s0.6-0.3,0.9-0.5
		c0.3-0.2,0.5-0.4,0.7-0.7c0.1,0.2,0.3,0.3,0.6,0.2c0.3-0.1,0.5-0.2,0.7-0.2c0.1,0,0.3,0,0.4,0.1c0.1,0.1,0.2,0.2,0.3,0.3
		s0.2,0.1,0.2,0.2c0.1,0,0.1,0,0.2-0.2c0.1,0,0.2,0.1,0.1,0.2c-0.1,0.1-0.1,0.2-0.1,0.3c0.2,0,0.4,0,0.6,0.2s0.4,0.2,0.8,0.2
		c0.1,0.1,0.1,0.3,0.1,0.3c-0.1,0.1-0.1,0.2-0.1,0.4c0.9,0.3,1.4,0.7,1.6,1.2C-138.5,297.7-138.5,298.3-138.7,298.9z M-111.6,312.4
		c-0.1,0.5-0.2,0.9-0.3,1.4c-0.1,0.4-0.3,0.8-0.6,1.2c-0.2,0.4-0.5,0.6-0.8,0.8c-0.4,0.5-0.9,0.9-1.5,1.2c-0.6,0.3-1.1,0.6-1.6,1
		c-0.3,0.2-0.7,0.3-1.1,0.4s-0.8,0.2-1.2,0.3c-0.3,0.2-0.7,0.4-1.1,0.5s-0.9,0.4-1.3,0.5c-0.5,0.2-0.9,0.3-1.4,0.3
		c-0.5,0.1-0.9,0.1-1.2,0.1c-0.9,0.3-1.7,0.5-2.5,0.6c-0.8,0.1-1.8,0-2.9-0.2c-1,0.1-2,0.1-2.9-0.1c-0.9-0.2-1.6-0.6-2.3-1.1
		c-0.7-0.5-1.3-1.1-1.8-1.8c-0.5-0.7-0.9-1.4-1.2-2.2c-0.2-1.6-0.2-3.1,0.2-4.4c0.3-1.3,0.8-2.6,1.5-3.7c0.6-1.1,1.4-2.2,2.2-3.1
		c0.8-1,1.6-1.9,2.4-2.8c0.2,0.1,0.3,0,0.4,0c0.1-0.1,0.2-0.2,0.3-0.3s0.2-0.3,0.3-0.4c0.1-0.1,0.2-0.2,0.4-0.2
		c0.2-0.4,0.5-0.8,0.9-1c0.4-0.2,0.7-0.5,0.9-0.9c0.3-0.1,0.5-0.1,0.6-0.3c0.2-0.1,0.3-0.2,0.5-0.4c0.2-0.1,0.5-0.3,0.7-0.4
		c0.2-0.1-0.2-0.2,0.8-0.3v-0.5c0-0.2,0.7-0.5,0.9-0.8c0.2-0.3,0.4-0.7,0.8-1.1c0.3,0,0.4,0,0.6,0c0.2,0,0.4,0,0.7-0.1
		c0.2-0.4,0.4-0.7,0.6-0.9c0.2-0.2,0.5-0.4,0.8-0.6c0.3,0.2,0.7,0.3,1.1,0.3s0.8,0.2,1.1,0.6c0,0.3,0.1,0.5,0.3,0.7
		c0.1,0.2,0.3,0.3,0.5,0.4s0.3,0.3,0.5,0.4c0.2,0.1,0.3,0.3,0.3,0.6c0.1,0,0.2,0,0.2,0c0-0.1,0.1-0.1,0.2,0c0.1,0.4,0.2,0.7,0.3,0.8
		s0.2,0.4,0.3,0.8c-0.1,0.3-0.3,0.6-0.3,0.9c-0.1,0.3-0.3,0.5-0.5,0.7c0,0.2,0,0.3,0.2,0.3s0.2,0.1,0.3,0.2c0,0.3,0,0.4-0.1,0.6
		c0.7,1.1,1.3,2.3,1.8,3.5s1.2,2.4,1.8,3.5c0,0.3,0,0.7,0.1,1s0.2,0.6,0.3,0.9s0.3,0.6,0.4,0.9c0.1,0.3,0.2,0.6,0.3,0.9
		C-111.5,311.5-111.5,312-111.6,312.4z M-75.1,301.3c0.1,0.4,0,0.8-0.1,1.3c-0.1,0.5-0.3,0.9-0.5,1.2c0,0.7,0,1.3,0.1,1.7
		c0,0.4,0,0.8-0.1,1.2c-0.1,0.4-0.1,0.7-0.2,1c-0.1,0.3-0.2,0.7-0.4,1c0.1,1.8-0.1,3.5-0.6,5c-0.5,1.5-1.1,2.9-1.7,4.2
		c-0.1,0.1-0.1,0.3-0.2,0.4c-0.1,0.1-0.1,0.3-0.2,0.4c-0.3,0.1-0.5,0.2-0.7,0.3s-0.4,0.2-0.6,0.3c-0.3,0.1-0.6,0.3-0.8,0.4
		c-0.2,0.1-0.5,0.2-0.8,0.2c-1.1-0.8-1.7-2.3-1.7-4.3c0-2.1,0.4-4.7,1.3-7.9c0.1-0.1,0.2-0.3,0.2-0.5l-0.4-0.4c-0.1,0-0.2,0-0.3,0
		c-0.1,0-0.2,0.1-0.2,0.3c-0.7,0.5-1.6,1.1-2.4,1.7c-0.9,0.6-1.8,1.1-2.8,1.6c-1,0.5-1.9,0.9-2.9,1.2c-1,0.3-2,0.5-2.9,0.5
		c-2.4,0-4.2-1.2-5.4-3.7l-0.3-0.6l-0.3,0.6c-0.1,0.1-0.2,0.4-0.4,0.7c-0.2,0.4-0.3,0.8-0.5,1.2c-0.2,0.5-0.3,0.9-0.5,1.4
		c-0.1,0.5-0.2,0.9-0.2,1.2c-0.3,0.3-0.5,0.6-0.8,0.9c-0.3,0.3-0.5,0.7-0.6,1.2c-0.1,0.2,0,0.4,0.1,0.6c-0.1,0.3-0.2,0.5-0.4,0.6
		c-0.1,0.1-0.2,0.3-0.4,0.4s-0.2,0.3-0.3,0.4c-0.1,0.1-0.1,0.3-0.1,0.4c0,0.1,0,0.3-0.1,0.4c0,0.2,0,0.4-0.1,0.6
		c-0.5,1-0.9,1.7-1.2,2c-0.3,0.3-0.7,0.5-1.2,0.5c-0.2,0-0.6,0-1.1-0.1c-0.4-0.4-0.7-1-1-1.7c-0.3-0.7-0.5-1.5-0.7-2.3
		c-0.2-0.8-0.2-1.6-0.2-2.4c0-0.8,0.2-1.5,0.4-2.1c0,0,0.1-0.3,0.3-0.9s0.5-1.2,0.9-2.1c0.4-0.9,0.8-1.8,1.2-2.9s0.9-2.1,1.4-3
		c0.5-1,0.9-1.9,1.3-2.7c0.4-0.8,0.8-1.5,1.1-1.9c0.2-0.3,0.4-0.7,0.6-1c0.2-0.3,0.4-0.6,0.5-0.9c0.5-0.9,1-1.6,1.5-2.2
		c0.5-0.6,1.2-1.1,2.1-1.4c0.6,0.3,1.1,0.6,1.4,0.9l0.1,0.5c0.1,0.3,0.3,0.4,0.5,0.4c0.3,0.1,0.6,0.2,0.8,0.2s0.5,0.1,0.7,0.2
		c0.2,0.2,0.4,0.5,0.6,0.8c0.2,0.3,0.5,0.7,0.7,1s0.4,0.7,0.5,1s0.2,0.7,0.2,1c0,0.3-0.1,0.7-0.2,1.1l0,0.4c0.1,0.3,0.2,0.6,0.1,1.1
		c0,0.2,0,0.4,0,0.6s0,0.5,0.1,0.7c0.5,0.4,1,0.6,1.4,0.6c0.5,0,0.9-0.1,1.3-0.3s0.8-0.4,1.1-0.7c0.2-0.2,0.5-0.3,0.7-0.5
		c0.2-0.1,0.5-0.2,0.7-0.2c0.5-0.5,1-0.9,1.4-1.3s0.9-0.7,1.3-1.1c0.9-0.7,1.7-1.4,2.5-2.2c0.8-0.8,1.4-1.8,1.9-3
		c0.3-0.2,0.6-0.3,0.9-0.3s0.6,0.1,1,0.2c0.3,0.1,0.7,0.3,1,0.4c0.1,0.1,0.2,0.1,0.2,0.1s0.1,0.1,0.2,0.1c0,0.3,0.1,0.5,0.3,0.7
		c0.1,0.1,0.2,0.1,0.2,0.2c0,0,0.1,0.1,0.1,0.1c0.4,0.2,0.7,0.5,0.8,0.7c0.2,0.7,0.6,1.2,1.1,1.5c-0.1,0.3,0,0.6,0,0.8
		s0.2,0.5,0.3,0.8c0,0.1,0.1,0.2,0.1,0.3s0.1,0.2,0.1,0.3l-0.8-0.1L-75.1,301.3z M-53.4,308.8c-1.2,0.6-2.5,1.2-3.8,1.6
		c-1.4,0.4-2.8,0.7-4.3,1s-2.9,0.6-4.3,0.9c0,0.7,0,1.4,0,2.1c0,0.7-0.1,1.5-0.2,2.2c-0.1,0.7-0.3,1.4-0.6,2.1s-0.6,1.3-1,1.9
		c-0.5,0-1,0.1-1.5,0.2c-0.5,0.1-1,0.2-1.4,0.3c-0.2-0.1-0.4-0.2-0.5-0.3c-0.2-0.1-0.4-0.2-0.7-0.2c0.1-0.3,0-0.6-0.2-0.9
		c-0.2-0.3-0.4-0.6-0.6-0.9c-0.2-0.3-0.3-0.6-0.4-0.9c-0.1-0.3,0.1-0.6,0.4-0.8c-0.2-0.2-0.3-0.5-0.3-0.8c0.2-0.3,0.4-0.8,0.5-1.4
		s0.3-1.2,0.4-1.8c0.1-0.6,0.1-1.1,0.1-1.6c-0.1-0.5-0.3-0.8-0.9-1.1c0-0.1,0.1-0.1,0.2-0.1s0.2,0,0.3,0c-0.2-0.2-0.4-0.4-0.4-0.7
		c0-0.3-0.2-0.6-0.3-0.8c0.1-0.1,0.1-0.3,0.1-0.4s0.1-0.2,0.3-0.1c-0.1-0.5-0.1-1,0-1.5s0.3-0.9,0.5-1.3c0.2-0.4,0.4-0.8,0.7-1.2
		c0.3-0.4,0.6-0.8,0.8-1.2c0.2,0,0.3,0,0.4,0.1s0.1,0.1,0.3,0c0.4-0.3,0.6-0.6,0.8-0.9c0.1-0.3,0.2-0.7,0.2-1.1
		c0.2-0.6,0.4-1.2,0.7-1.8c0.3-0.6,0.6-1.2,0.9-1.7c0.3-0.5,0.7-1,1.1-1.4c0.4-0.4,0.9-0.7,1.3-0.9c0.3-0.3,0.8-0.6,1.3-0.8
		c0.5-0.2,1.1-0.4,1.7-0.6c0.6-0.1,1.2-0.2,1.8-0.2c0.6,0,1.2,0,1.7,0.2c0.1,0.1,0.2,0,0.2-0.1s0.1-0.2,0.2-0.2
		c1.2,0.1,2.3,0.4,3.2,0.7c0.9,0.3,1.7,0.8,2.4,1.4c0.5,0.7,0.9,1.5,1.3,2.3c0.4,0.8,0.7,1.7,0.9,2.6c0.2,0.9,0.3,1.8,0.3,2.8
		c0,0.9-0.2,1.9-0.6,2.9C-51.3,307.3-52.3,308.1-53.4,308.8z M-1.9,309.7c-0.3,0.5-0.7,1-1.2,1.5c-0.5,0.5-1.1,0.9-1.8,1.2
		c0,0.2,0,0.3,0.1,0.5c0,0.2,0,0.3,0.1,0.5c0.1,0.5,0.2,1,0.2,1.5s0.1,1,0,1.6l-0.1,0.2c-0.2,0.5-0.4,1-0.8,1.5
		c-0.3,0.5-0.7,0.9-1.2,1.3c-0.4,0.4-0.9,0.7-1.5,1s-1.1,0.4-1.7,0.4c-0.4-0.1-0.6-0.2-0.8-0.3c-0.1-0.1-0.3-0.2-0.4-0.3
		c-0.1-0.1-0.2-0.1-0.2-0.2c-0.1,0-0.1-0.1-0.2-0.1l-0.5-0.2l0.2-0.6c0.1-0.2,0-0.4,0-0.5s-0.3-0.3-0.5-0.5
		c-0.1-0.1-0.2-0.2-0.3-0.3s-0.2-0.2-0.2-0.3l-0.7-0.8l1.2-0.3c0.7-0.2,1.2-0.5,1.4-0.8c0.2-0.3,0.3-0.8,0.3-1.6
		c-0.6-0.1-1.1-0.1-1.4,0c-0.4,0.1-0.8,0.2-1.2,0.3c-0.5,0.1-1,0.3-1.6,0.4c-0.5,0.1-1.1,0.2-1.7,0.2c-0.2,0-0.4,0-0.6,0
		c-0.2,0-0.4,0-0.6-0.1l-0.4-0.1c-0.1-0.3-0.1-0.5-0.2-0.5c-0.1,0-0.1-0.1-0.2-0.2c-0.1-0.1-0.3-0.3-0.5-0.6s-0.2-0.6-0.1-0.9
		c-0.1-0.3-0.2-0.5-0.3-0.8c-0.2,0.3-0.3,0.7-0.4,1.1l-0.2,0.4l-0.4,0.1c-0.1,0-0.1,0.1-0.1,0.2s0,0.2,0,0.2l-0.2,0.7
		c-0.1,0.1-0.1,0.1-0.2,0.2s-0.1,0.1-0.2,0.2c-0.1,0.3-0.1,0.5-0.2,0.8c-0.1,0.3-0.2,0.5-0.3,0.7c-0.1,0.4-0.3,0.7-0.4,1.1
		c-0.1,0.4-0.1,0.7-0.1,1.1l-0.2,0.5c-0.1,0.2-0.3,0.3-0.5,0.4c-0.2,0.1-0.3,0.2-0.5,0.3c-0.1,0.1-0.1,0.1-0.2,0.2
		c-0.1,0-0.2,0.1-0.2,0.1l-0.1,0.5l-0.5,0.1c-0.3,0.1-0.5,0.1-0.7,0.1c-0.1,0-0.3,0-0.5,0l-0.4,0c-0.3-0.3-0.6-0.5-0.7-0.6
		c-0.2-0.2-0.4-0.3-0.6-0.5c-0.1-0.1-0.2-0.2-0.2-0.3c0,0.2-0.1,0.4-0.2,0.6c0,0.1,0.1,0.1,0.2,0.1c0.1,0,0.2,0,0.3,0
		c-0.2,0.1-0.3,0.3-0.4,0.4c-0.1,0.2-0.2,0.3-0.3,0.5s-0.2,0.3-0.4,0.5s-0.3,0.2-0.6,0.2c-0.9,0.3-2,0.4-3.4,0.1s-3-0.9-5.1-1.7
		c-1-0.4-1.9-0.8-2.5-1.1c-0.6-0.3-1.2-0.6-1.7-0.9c-0.5-0.3-0.9-0.6-1.3-1c-0.4-0.3-0.9-0.8-1.4-1.2c-0.3,1.1-0.6,2-0.8,2.6
		c-0.2,0.6-0.6,1.2-1.1,1.8c-0.4-0.1-0.6,0-0.8,0.1c-0.1,0.1-0.3,0.3-0.5,0.4c-0.3,0.1-0.4,0.1-0.6,0c-0.1-0.1-0.2-0.1-0.3-0.2
		c-0.1-0.1-0.2-0.1-0.3-0.2s-0.3-0.1-0.6-0.1c-0.1-0.2-0.1-0.4-0.2-0.6c-0.1-0.2-0.3-0.3-0.6-0.2c0.1-0.2,0.1-0.4,0-0.6
		s-0.1-0.3-0.1-0.4s-0.1-0.3-0.1-0.4s0-0.3,0-0.5c-0.1,0-0.3-0.1-0.3-0.3s-0.2-0.4-0.3-0.6c0.1-0.5,0.2-1,0.3-1.5s0.2-0.9,0.3-1.3
		c0.1-0.4,0.2-0.8,0.3-1.2c0.1-0.4,0-0.8-0.1-1.2c0.1,0.1,0.2,0.1,0.3-0.1s0.1-0.3,0.1-0.5s0-0.4,0-0.6s0-0.4,0-0.5
		c0.3-0.7,0.5-1.5,0.7-2.3c0.2-0.8,0.4-1.6,0.5-2.3c0.2-0.8,0.3-1.5,0.5-2.3s0.4-1.4,0.7-2.1c0.3-0.1,0.7,0,1.1,0.1s0.6,0.3,0.7,0.5
		c0.7-0.6,1.4-1.3,2-2.1c0.6-0.8,1.2-1.6,1.8-2.4c0.6-0.8,1.3-1.5,2-2.1c0.7-0.6,1.7-1,2.8-1.1c0.6,0.4,1.2,0.9,1.9,1.3
		c0.7,0.4,1.3,1,1.7,1.7c0.2,0.1,0.4,0.2,0.6,0.4c0.2,0.1,0.6,0.3,0.6,0.4v0.5c0,0.3,0.6,0.7,0.8,1.1s0.4,0.9,0.6,1.3
		s0.3,0.9,0.5,1.4c0.2,0.5,0.4,0.9,0.6,1.4c-0.1,0.1-0.1,0.3-0.1,0.4c0,0.1,0,0.2,0.1,0.3c0,0.1,0.1,0.2,0.1,0.3c0,0.1,0,0.3,0,0.5
		c-0.1,1.3-0.5,2.3-1.2,3c-0.7,0.8-1.6,1.4-2.6,1.9c-1,0.5-2.1,0.9-3.3,1.3c-1.2,0.3-2.2,0.7-3.2,1.1c0,0.1,0,0.2,0.2,0.2
		c0.1,0,0.1,0.1,0.1,0.2c0.7,0.4,1.2,0.8,1.6,1c0.4,0.3,0.8,0.5,1.1,0.6c0.4,0.2,0.7,0.3,1.2,0.5s1,0.3,1.7,0.5s1.3,0.3,1.7,0.4
		s0.8,0.2,1.1,0.3s0.7,0.1,1.1,0.2c0.4,0,0.9,0.1,1.5,0.2c0.2,0.2,0.3,0.4,0.4,0.6l0-0.5c0.6-1.5,1.2-2.9,1.8-4.2
		c0.6-1.3,1.3-2.7,2-4.1c0.2-0.5,0.5-0.9,0.7-1.4s0.4-0.9,0.7-1.4c0-0.1,0-0.2,0-0.3s0-0.2,0.1-0.4c0.3-0.5,0.6-0.9,0.8-1.3
		c0.2-0.4,0.4-0.8,0.6-1.2c0.2-0.5,0.5-1,0.7-1.4s0.6-0.9,0.9-1.4l0.7-0.3c0.1,0,0.2-0.1,0.3-0.1s0.2-0.1,0.4-0.1l0.6,0.1
		c0.8-0.4,1.5-0.9,2.1-1.6c0.6-0.7,1.2-1.5,1.8-2.4l0.4-0.6l0.6,0.3c0.1,0.1,0.3,0.2,0.6,0.2c0.3,0.1,0.5,0.2,0.8,0.2
		c0.5,0.1,1,0.2,1.5,0.4c0.5,0.1,0.8,0.4,1.1,0.6c0.2,0.5,0.3,0.8,0.3,1c0,0.2,0.1,0.5,0.1,0.7c0.1,0.5,0.2,1,0.2,1.5
		c0.1,0.5,0.1,1,0.2,1.6c0.1,0.5,0.3,1,0.4,1.4c0.1,0.5,0.2,1,0.3,1.4c0.1,0.7,0.3,1.4,0.4,2c0.1,0.6,0.3,1.3,0.6,1.8
		c0.2,0,0.4,0,0.4,0c0.1-0.1,0.3-0.1,0.5-0.1c0.2,0,0.3-0.1,0.5-0.1l0.5,0l0.2,0.4c0,0.1,0.2,0.3,0.4,0.4c0.4,0,0.6,0.1,0.8,0.2
		c0.2,0.1,0.3,0.3,0.5,0.4c0.1,0.1,0.2,0.2,0.3,0.3l0.6,0.3L-1.9,309.7z M21.8,320.3c-0.1,0.2-0.2,0.3-0.3,0.5s-0.2,0.3-0.4,0.5
		s-0.3,0.2-0.6,0.2c-0.9,0.3-2,0.4-3.4,0.1s-3-0.9-5.1-1.7c-1-0.4-1.9-0.8-2.5-1.1c-0.6-0.3-1.2-0.6-1.7-0.9c-0.5-0.3-0.9-0.6-1.3-1
		c-0.4-0.3-0.9-0.8-1.4-1.2c-0.3,1.1-0.6,2-0.8,2.6c-0.2,0.6-0.6,1.2-1.1,1.8c-0.4-0.1-0.6,0-0.8,0.1c-0.1,0.1-0.3,0.3-0.5,0.4
		c-0.3,0.1-0.4,0.1-0.6,0c-0.1-0.1-0.2-0.1-0.3-0.2c-0.1-0.1-0.2-0.1-0.3-0.2s-0.3-0.1-0.6-0.1c-0.1-0.2-0.1-0.4-0.2-0.6
		c-0.1-0.2-0.3-0.3-0.6-0.2c0.1-0.2,0.1-0.4,0-0.6s-0.1-0.3-0.1-0.4s-0.1-0.3-0.1-0.4s0-0.3,0-0.5c-0.1,0-0.3-0.1-0.3-0.3
		s-0.2-0.4-0.3-0.6c0.1-0.5,0.2-1,0.3-1.5s0.2-0.9,0.3-1.3c0.1-0.4,0.2-0.8,0.3-1.2c0.1-0.4,0-0.8-0.1-1.2c0.1,0.1,0.2,0.1,0.3-0.1
		s0.1-0.3,0.1-0.5s0-0.4,0-0.6s0-0.4,0-0.5c0.3-0.7,0.5-1.5,0.7-2.3c0.2-0.8,0.4-1.6,0.5-2.3c0.2-0.8,0.3-1.5,0.5-2.3
		s0.4-1.4,0.7-2.1c0.3-0.1,0.7,0,1.1,0.1s0.6,0.3,0.7,0.5c0.7-0.6,1.4-1.3,2-2.1c0.6-0.8,1.2-1.6,1.8-2.4c0.6-0.8,1.3-1.5,2-2.1
		c0.7-0.6,1.7-1,2.8-1.1c0.6,0.4,1.2,0.9,1.9,1.3c0.7,0.4,1.3,1,1.7,1.7c0.2,0.1,0.3,0.2,0.4,0.4c0.2,0.1,0.4,0.3,0.4,0.4v0.5
		c1,0.3,0.8,0.7,1,1.1s0.5,0.9,0.7,1.3s0.4,0.9,0.6,1.4c0.2,0.5,0.4,0.9,0.6,1.4c-0.1,0.1-0.1,0.3-0.1,0.4c0,0.1,0,0.2,0.1,0.3
		c0,0.1,0.1,0.2,0.1,0.3c0,0.1,0,0.3,0,0.5c-0.1,1.3-0.5,2.3-1.2,3c-0.7,0.8-1.6,1.4-2.6,1.9c-1,0.5-2.1,0.9-3.3,1.3
		c-1.2,0.3-2.2,0.7-3.2,1.1c0,0.1,0,0.2,0.2,0.2c0.1,0,0.1,0.1,0.1,0.2c0.7,0.4,1.2,0.8,1.6,1c0.4,0.3,0.8,0.5,1.1,0.6
		c0.4,0.2,0.7,0.3,1.2,0.5s1,0.3,1.7,0.5c0.7,0.2,1.3,0.3,1.7,0.4s0.8,0.2,1.1,0.3s0.7,0.1,1.1,0.2c0.4,0,0.9,0.1,1.5,0.2
		c0.3,0.3,0.5,0.6,0.7,0.9c0.2,0.4,0.3,0.7,0.4,1.1c0.1,0.4,0.1,0.7,0,1c0,0.3-0.1,0.6-0.3,0.8c0,0.1,0.1,0.1,0.2,0.1
		c0.1,0,0.2,0,0.3,0C22.1,320,21.9,320.1,21.8,320.3z"/>
	<path class="st0" d="M-59.1,300.8c-0.8-0.1-1.6,0-2.3,0.2c-0.8,0.2-1.5,0.5-2,1.1c-0.2,0.5-0.3,0.9-0.4,1.2
		c-0.1,0.3-0.3,0.7-0.5,1.1c0.1,0.1,0.1,0.3,0.3,0.3s0.2,0.2,0.3,0.3c0.7-0.3,1.3-0.5,2-0.6s1.4-0.2,2-0.5c0.7-0.3,1.5-0.6,2.3-0.8
		c0.8-0.2,1.5-0.5,2-1.1c-0.3-0.3-0.8-0.6-1.5-0.8S-58.3,300.8-59.1,300.8z"/>
</g>
</svg>
