<?xml version="1.0" encoding="UTF-8" standalone="no"?>
<!DOCTYPE svg PUBLIC "-//W3C//DTD SVG 1.1//EN" "http://www.w3.org/Graphics/SVG/1.1/DTD/svg11.dtd">
<svg width="100%" height="100%" viewBox="0 0 326 86" version="1.1" xmlns="http://www.w3.org/2000/svg" xmlns:xlink="http://www.w3.org/1999/xlink" xml:space="preserve" xmlns:serif="http://www.serif.com/" style="fill-rule:evenodd;clip-rule:evenodd;stroke-linejoin:round;stroke-miterlimit:2;">
    <g>
        <path d="M89.2,35.4C88.4,35.3 87.6,35.4 86.9,35.6C86.1,35.8 85.4,36.1 84.9,36.7C84.7,37.2 84.6,37.6 84.5,37.9C84.4,38.2 84.2,38.6 84,39C84.1,39.1 84.1,39.3 84.3,39.3C84.5,39.3 84.5,39.5 84.6,39.6C85.3,39.3 85.9,39.1 86.6,39C87.3,38.9 88,38.8 88.6,38.5C89.3,38.2 90.1,37.9 90.9,37.7C91.7,37.5 92.4,37.2 92.9,36.6C92.6,36.3 92.1,36 91.4,35.8C90.7,35.6 89.9,35.5 89.2,35.4Z" style="fill:white;fill-rule:nonzero;"/>
        <path d="M194.1,37.8L193.8,38.2C193.2,38.8 192.7,39.5 192.1,40.2C191.6,40.9 191.1,41.6 190.7,42.3C190.5,42.6 190.4,42.8 190.2,43.1C190,43.4 189.9,43.6 189.7,43.9L190.7,43.9C191.6,43.8 192.3,43.8 193,43.7C193.7,43.6 194.5,43.5 195.3,43.3C195.1,42.4 194.9,41.5 194.7,40.6C194.6,39.7 194.4,38.7 194.1,37.8Z" style="fill:white;fill-rule:nonzero;"/>
        <path d="M112.7,38.9C112.6,38 112.3,37.3 111.8,36.8C111.3,36.3 110.8,35.9 110.2,35.7C109.9,36.2 109.5,36.6 109.1,36.9C108.7,37.3 108.3,37.7 108,38C107.6,38.4 107.3,38.8 107,39.3C106.7,39.8 106.5,40.3 106.4,41C107.4,40.9 108.4,40.6 109.5,40.2C110.7,39.7 111.7,39.3 112.7,38.9Z" style="fill:white;fill-rule:nonzero;"/>
        <path d="M322.7,16.7C322.7,8.8 316.3,2.3 308.3,2.3L17,2.3C9.1,2.3 2.7,8.8 2.7,16.7L2.7,69C2.7,76.9 9.1,83.4 17.1,83.4L308.3,83.4C316.2,83.4 322.7,77 322.7,69L322.7,16.7ZM236.991,53.134C236.866,53.159 236.754,53.065 236.654,52.853C236.555,52.641 236.442,52.436 236.318,52.236L236.729,52.236C236.555,51.687 236.511,51.182 236.598,50.721C236.686,50.259 236.792,49.81 236.916,49.374C237.041,48.937 237.147,48.513 237.234,48.102C237.322,47.69 237.278,47.26 237.103,46.811C237.228,46.886 237.322,46.855 237.384,46.717C237.446,46.58 237.496,46.406 237.534,46.194C237.571,45.982 237.584,45.757 237.571,45.52C237.559,45.283 237.54,45.09 237.515,44.94C237.839,44.167 238.095,43.369 238.282,42.546C238.469,41.723 238.637,40.906 238.787,40.095C238.937,39.285 239.105,38.499 239.292,37.738C239.479,36.977 239.722,36.26 240.022,35.587C240.371,35.537 240.739,35.581 241.125,35.718C241.512,35.855 241.768,36.023 241.892,36.223C242.666,35.624 243.352,34.901 243.95,34.053C244.549,33.205 245.154,32.376 245.765,31.565C246.376,30.754 247.068,30.037 247.841,29.414C248.614,28.79 249.575,28.416 250.722,28.291C251.321,28.715 251.994,29.17 252.742,29.657C253.491,30.143 254.102,30.748 254.576,31.471C254.775,31.596 254.968,31.727 255.156,31.864C255.343,32.001 255.536,32.132 255.735,32.257L255.735,32.818C256.085,33.143 256.378,33.523 256.615,33.959C256.852,34.396 257.064,34.857 257.251,35.344C257.438,35.83 257.619,36.323 257.793,36.822C257.968,37.32 258.167,37.782 258.392,38.206C258.342,38.355 258.323,38.486 258.336,38.599C258.348,38.711 258.373,38.823 258.411,38.935C258.448,39.048 258.479,39.172 258.504,39.31C258.529,39.447 258.542,39.615 258.542,39.815C258.442,41.137 258.011,42.203 257.251,43.014C256.49,43.824 255.567,44.485 254.482,44.996C253.397,45.508 252.244,45.944 251.021,46.306C249.799,46.668 248.689,47.06 247.692,47.484C247.692,47.584 247.748,47.634 247.86,47.634C247.972,47.634 248.003,47.709 247.953,47.859C248.702,48.308 249.282,48.669 249.693,48.944C250.105,49.218 250.491,49.449 250.853,49.636C251.215,49.823 251.614,49.979 252.05,50.103C252.487,50.228 253.092,50.378 253.865,50.552C254.638,50.727 255.243,50.87 255.679,50.983C256.116,51.095 256.509,51.182 256.858,51.245C257.207,51.307 257.581,51.363 257.98,51.413C258.379,51.463 258.916,51.525 259.589,51.6C259.863,51.874 260.088,52.199 260.263,52.573C260.437,52.947 260.562,53.321 260.637,53.695C260.712,54.069 260.73,54.425 260.693,54.761C260.655,55.098 260.549,55.366 260.375,55.566C260.4,55.666 260.468,55.709 260.581,55.697C260.693,55.684 260.811,55.691 260.936,55.715C260.761,55.84 260.612,55.99 260.487,56.164C260.362,56.339 260.238,56.514 260.113,56.688C259.988,56.863 259.845,57.025 259.683,57.175C259.52,57.324 259.315,57.412 259.065,57.437C258.167,57.786 257.02,57.798 255.623,57.474C254.226,57.15 252.443,56.576 250.273,55.753C249.201,55.354 248.328,54.992 247.654,54.668C246.981,54.344 246.395,54.026 245.896,53.714C245.397,53.402 244.935,53.065 244.511,52.704C244.087,52.342 243.601,51.912 243.052,51.413C242.977,51.438 242.934,51.488 242.921,51.563C242.909,51.637 242.865,51.687 242.79,51.712C242.666,52.71 242.472,53.521 242.21,54.144C241.948,54.768 241.568,55.404 241.069,56.052C240.67,55.977 240.402,56.015 240.265,56.164C240.128,56.314 239.959,56.451 239.76,56.576C239.51,56.626 239.323,56.62 239.199,56.557C239.074,56.495 238.962,56.426 238.862,56.352C238.762,56.277 238.65,56.202 238.525,56.127C238.4,56.052 238.201,56.027 237.927,56.052C237.852,55.828 237.777,55.609 237.702,55.397C237.627,55.185 237.428,55.092 237.103,55.117C237.178,54.892 237.203,54.699 237.178,54.537C237.153,54.375 237.116,54.225 237.066,54.088C237.016,53.951 236.972,53.807 236.935,53.658C236.898,53.508 236.916,53.333 236.991,53.134ZM182.966,55.079C182.891,55.104 182.841,55.079 182.816,55.005C182.791,54.93 182.785,54.855 182.797,54.78C182.81,54.705 182.847,54.643 182.91,54.593C182.972,54.543 183.053,54.543 183.153,54.593C182.828,54.194 182.623,53.832 182.535,53.508C182.448,53.184 182.28,52.785 182.03,52.311C182.105,52.236 182.155,52.13 182.18,51.993C182.205,51.856 182.236,51.725 182.274,51.6C182.311,51.475 182.361,51.382 182.423,51.319C182.486,51.257 182.567,51.276 182.666,51.375C182.616,51.101 182.616,50.877 182.666,50.702C182.716,50.527 182.772,50.365 182.835,50.216C182.897,50.066 182.941,49.916 182.966,49.767C182.991,49.617 182.953,49.442 182.853,49.243C183.327,48.594 183.639,47.89 183.789,47.129C183.938,46.368 184.026,45.676 184.051,45.053C184.275,44.828 184.468,44.529 184.631,44.155C184.793,43.78 184.911,43.394 184.986,42.995C185.061,42.596 185.098,42.203 185.098,41.816C185.098,41.43 185.048,41.124 184.949,40.9C184.974,40.8 185.03,40.744 185.117,40.731C185.204,40.719 185.31,40.725 185.435,40.75C185.61,39.752 185.728,38.642 185.79,37.42C185.853,36.198 185.977,35.019 186.165,33.885C186.352,32.75 186.657,31.752 187.081,30.891C187.505,30.031 188.179,29.476 189.102,29.227C189.276,29.85 189.507,30.399 189.794,30.873C190.081,31.347 190.392,31.808 190.729,32.257C191.066,32.706 191.409,33.155 191.758,33.604C192.107,34.053 192.431,34.552 192.731,35.1C192.706,35.674 192.65,36.335 192.562,37.083C192.475,37.832 192.363,38.592 192.226,39.366C192.088,40.139 191.951,40.887 191.814,41.61C191.677,42.334 191.546,42.945 191.421,43.444C191.446,43.568 191.533,43.65 191.683,43.687C191.833,43.724 191.858,43.868 191.758,44.117C192.481,43.943 193.236,43.774 194.021,43.612C194.807,43.45 195.58,43.288 196.341,43.126C197.102,42.964 197.85,42.77 198.586,42.546C199.322,42.321 200.014,42.047 200.662,41.723C200.812,40.525 200.999,39.341 201.224,38.168C201.448,36.996 201.473,35.811 201.298,34.614C201.448,34.489 201.573,34.34 201.673,34.165C201.772,33.991 201.922,33.878 202.122,33.828C201.972,33.255 201.91,32.65 201.934,32.014C201.959,31.378 202.065,30.785 202.252,30.237C202.44,29.688 202.72,29.208 203.094,28.796C203.468,28.385 203.93,28.117 204.479,27.992C204.803,28.466 205.09,28.977 205.339,29.526C205.589,30.075 205.838,30.63 206.087,31.191C206.337,31.752 206.605,32.282 206.892,32.781C207.179,33.28 207.547,33.704 207.995,34.053C208.07,34.926 208.133,35.818 208.183,36.728C208.232,37.638 208.27,38.58 208.295,39.553C208.07,40.675 207.815,41.766 207.528,42.826C207.241,43.887 207.035,45.015 206.91,46.212C206.711,46.437 206.549,46.705 206.424,47.017C206.299,47.329 206.181,47.64 206.069,47.952C205.956,48.264 205.825,48.569 205.676,48.869C205.526,49.168 205.339,49.418 205.115,49.617C205.214,49.966 205.233,50.297 205.171,50.609C205.108,50.92 205.189,51.288 205.414,51.712C205.464,52.485 205.37,53.128 205.133,53.639C204.896,54.15 204.572,54.587 204.161,54.949C203.749,55.31 203.275,55.597 202.739,55.809C202.203,56.021 201.673,56.214 201.149,56.389C200.899,56.239 200.669,56.083 200.457,55.921C200.245,55.759 199.989,55.641 199.69,55.566L199.877,55.229C199.378,54.73 198.948,54.2 198.586,53.639C198.224,53.078 198.056,52.436 198.081,51.712C198.081,51.687 198.106,51.519 198.156,51.207C198.206,50.895 198.262,50.565 198.324,50.216C198.386,49.866 198.449,49.536 198.511,49.224C198.573,48.912 198.605,48.744 198.605,48.719C197.906,48.794 197.183,48.956 196.435,49.205C195.686,49.455 194.957,49.736 194.246,50.047C193.535,50.359 192.874,50.683 192.263,51.02C191.652,51.357 191.159,51.637 190.785,51.862C190.785,51.937 190.723,52.149 190.598,52.498C190.473,52.847 190.324,53.215 190.149,53.602C189.975,53.988 189.781,54.331 189.569,54.63C189.357,54.93 189.139,55.067 188.914,55.042C188.964,55.167 189.014,55.26 189.064,55.323C189.114,55.385 189.114,55.503 189.064,55.678C188.64,55.803 188.26,55.965 187.923,56.164C187.586,56.364 187.243,56.532 186.894,56.67C186.545,56.807 186.165,56.869 185.753,56.857C185.341,56.844 184.849,56.688 184.275,56.389C184.275,56.214 184.2,56.058 184.051,55.921C183.901,55.784 183.745,55.666 183.583,55.566C183.421,55.466 183.277,55.379 183.153,55.304C183.028,55.229 182.966,55.154 182.966,55.079ZM88.496,39.478C88.571,39.104 88.621,38.798 88.646,38.561C88.67,38.324 88.583,38.069 88.384,37.794C88.483,37.395 88.564,37.083 88.627,36.859C88.689,36.634 88.695,36.323 88.646,35.924C88.87,35.275 89.213,34.726 89.674,34.277C90.136,33.828 90.641,33.448 91.19,33.136C91.738,32.824 92.312,32.563 92.911,32.351C93.509,32.139 94.071,31.958 94.594,31.808C94.594,31.708 94.544,31.658 94.445,31.658C94.345,31.658 94.32,31.596 94.37,31.471C95.717,31.222 97.07,30.86 98.429,30.386C99.789,29.912 101.179,29.488 102.601,29.114C104.023,28.74 105.482,28.509 106.978,28.422C108.475,28.335 110.046,28.528 111.692,29.002C111.792,29.301 111.929,29.588 112.104,29.863C112.279,30.137 112.459,30.405 112.646,30.667C112.834,30.929 113.002,31.185 113.152,31.434C113.301,31.683 113.389,31.945 113.413,32.22C113.713,32.494 113.956,32.787 114.143,33.099C114.33,33.411 114.361,33.828 114.237,34.352C113.962,34.552 113.675,34.751 113.376,34.951C113.077,35.15 112.765,35.337 112.441,35.512C111.318,35.238 110.196,35.138 109.073,35.213C107.951,35.288 106.941,35.375 106.043,35.475C105.769,35.175 105.444,35.032 105.07,35.044C104.696,35.057 104.303,35.119 103.892,35.231C103.48,35.344 103.075,35.456 102.676,35.568C102.277,35.68 101.903,35.712 101.553,35.662C101.279,35.911 100.917,36.079 100.468,36.167C100.019,36.254 99.545,36.323 99.047,36.373C99.022,36.497 99.047,36.585 99.121,36.634C99.196,36.684 99.209,36.784 99.159,36.934C99.333,37.158 99.57,37.314 99.87,37.401C100.169,37.489 100.475,37.57 100.786,37.645C101.098,37.719 101.379,37.825 101.628,37.963C101.878,38.1 102.04,38.318 102.115,38.617C102.563,38.642 102.95,38.761 103.274,38.973C103.599,39.185 103.873,39.44 104.097,39.74C104.322,40.039 104.484,40.357 104.584,40.694C104.684,41.031 104.721,41.336 104.696,41.61C104.796,41.86 104.902,41.96 105.014,41.91C105.126,41.86 105.257,41.922 105.407,42.097C105.507,42.471 105.737,42.864 106.099,43.275C106.461,43.687 106.741,44.13 106.941,44.604C106.991,45.352 107.034,46.025 107.072,46.624C107.109,47.223 107.003,47.809 106.754,48.382C106.33,49.48 105.719,50.465 104.921,51.338C104.122,52.211 103.218,52.978 102.208,53.639C101.198,54.3 100.132,54.874 99.009,55.36C97.887,55.846 96.777,56.252 95.679,56.576C95.58,56.551 95.461,56.551 95.324,56.576C95.187,56.601 95.156,56.526 95.23,56.352C95.006,56.551 94.75,56.676 94.463,56.726C94.177,56.776 93.865,56.794 93.528,56.782C93.191,56.769 92.855,56.751 92.518,56.726C92.181,56.701 91.851,56.713 91.526,56.763C91.327,56.564 91.146,56.364 90.984,56.164C90.822,55.965 90.691,55.728 90.591,55.454C90.466,55.429 90.41,55.348 90.423,55.21C90.435,55.073 90.379,55.005 90.254,55.005C90.254,54.905 90.267,54.83 90.292,54.78C90.317,54.73 90.342,54.68 90.367,54.63C90.466,54.556 90.51,54.5 90.498,54.462C90.485,54.425 90.448,54.387 90.385,54.35C90.323,54.312 90.261,54.269 90.198,54.219C90.136,54.169 90.117,54.107 90.142,54.032C90.267,53.807 90.31,53.539 90.273,53.227C90.236,52.916 90.204,52.598 90.18,52.273C90.155,51.949 90.18,51.644 90.254,51.357C90.329,51.07 90.541,50.827 90.89,50.627C91.913,50.727 92.88,50.677 93.79,50.478C94.7,50.278 95.561,50.004 96.371,49.654C97.182,49.305 97.955,48.925 98.691,48.513C99.427,48.102 100.144,47.721 100.842,47.372C100.917,47.123 101.036,46.911 101.198,46.736C101.36,46.562 101.528,46.393 101.703,46.231C101.878,46.069 102.04,45.894 102.189,45.707C102.339,45.52 102.451,45.29 102.526,45.015C102.551,44.915 102.551,44.841 102.526,44.791C102.501,44.741 102.464,44.697 102.414,44.66C102.364,44.622 102.314,44.579 102.264,44.529C102.214,44.479 102.189,44.404 102.189,44.304C102.115,44.279 102.046,44.254 101.984,44.229C101.921,44.205 101.865,44.192 101.815,44.192C101.167,43.868 100.481,43.593 99.757,43.369C99.034,43.144 98.423,42.895 97.924,42.621C97.625,42.82 97.326,42.87 97.026,42.77C96.727,42.671 96.365,42.571 95.941,42.471C94.894,42.421 93.902,42.321 92.967,42.172C92.031,42.022 91.127,41.76 90.254,41.386C90.204,41.236 90.142,41.105 90.067,40.993C89.992,40.881 89.818,40.85 89.543,40.9C89.369,40.65 89.188,40.419 89.001,40.207C88.814,39.995 88.646,39.752 88.496,39.478ZM208.07,52.797L208.557,52.423L208.594,51.637C209.218,50.116 209.86,48.657 210.521,47.26C211.182,45.863 211.874,44.429 212.597,42.957C212.822,42.483 213.053,42.01 213.29,41.536C213.526,41.062 213.757,40.575 213.982,40.077C213.957,39.977 213.944,39.871 213.944,39.759C213.944,39.646 213.969,39.515 214.019,39.366C214.368,38.867 214.649,38.418 214.861,38.019C215.073,37.62 215.279,37.208 215.478,36.784C215.703,36.285 215.946,35.786 216.208,35.288C216.47,34.789 216.8,34.302 217.199,33.828L217.461,33.454L217.873,33.492C217.973,33.442 218.079,33.398 218.191,33.361C218.303,33.323 218.446,33.305 218.621,33.305L219.294,33.417C220.118,33.043 220.847,32.5 221.483,31.789C222.119,31.079 222.761,30.224 223.41,29.227L223.859,28.591L224.458,28.965C224.582,29.039 224.782,29.114 225.056,29.189C225.331,29.264 225.617,29.351 225.917,29.451C226.44,29.576 226.952,29.719 227.451,29.881C227.95,30.043 228.336,30.262 228.61,30.536L228.798,30.873C228.847,31.147 228.891,31.397 228.929,31.621C228.966,31.846 229.01,32.07 229.059,32.294C229.159,32.818 229.247,33.336 229.321,33.847C229.396,34.358 229.446,34.926 229.471,35.549C229.596,36.048 229.714,36.553 229.826,37.065C229.939,37.576 230.045,38.081 230.144,38.58C230.269,39.303 230.406,39.995 230.556,40.656C230.706,41.317 230.905,41.947 231.155,42.546C231.404,42.546 231.554,42.558 231.604,42.583C231.903,42.459 232.252,42.384 232.651,42.359L233.138,42.321L233.287,42.77C233.337,42.845 233.399,42.92 233.474,42.995C233.549,43.07 233.636,43.144 233.736,43.219C234.135,43.244 234.428,43.325 234.615,43.462C234.802,43.6 234.958,43.731 235.083,43.855C235.133,43.905 235.195,43.961 235.27,44.024C235.345,44.086 235.407,44.13 235.457,44.155L236.131,44.417L235.757,45.127C235.482,45.651 235.064,46.163 234.503,46.661C233.942,47.16 233.312,47.572 232.614,47.896C232.664,48.071 232.695,48.233 232.707,48.382C232.72,48.532 232.751,48.707 232.801,48.906C232.901,49.405 232.982,49.923 233.044,50.459C233.106,50.995 233.1,51.55 233.025,52.124C232.776,52.772 232.483,53.352 232.146,53.864C231.809,54.375 231.41,54.836 230.949,55.248C230.487,55.659 229.97,55.996 229.396,56.258C228.822,56.52 228.224,56.663 227.6,56.688C227.251,56.613 226.995,56.526 226.833,56.426C226.671,56.327 226.528,56.227 226.403,56.127C226.204,55.977 226.041,55.878 225.917,55.828L225.43,55.603L225.58,55.042C225.655,54.843 225.649,54.668 225.561,54.518C225.474,54.369 225.293,54.169 225.019,53.92C224.919,53.845 224.832,53.764 224.757,53.676C224.682,53.589 224.595,53.496 224.495,53.396L223.747,52.535L224.981,52.199C225.73,51.999 226.228,51.743 226.478,51.432C226.727,51.12 226.827,50.565 226.777,49.767C226.154,49.642 225.642,49.623 225.243,49.711C224.844,49.798 224.445,49.891 224.046,49.991C223.472,50.141 222.911,50.272 222.362,50.384C221.814,50.496 221.215,50.552 220.567,50.552C220.143,50.552 219.694,50.515 219.22,50.44L218.808,50.403L218.696,49.991C218.696,49.941 218.665,49.885 218.602,49.823C218.54,49.76 218.484,49.704 218.434,49.654C218.309,49.505 218.16,49.305 217.985,49.056C217.81,48.806 217.773,48.495 217.873,48.12C217.698,47.846 217.598,47.559 217.573,47.26C217.474,47.46 217.393,47.653 217.33,47.84L217.012,48.869L216.526,48.944C216.476,48.993 216.432,49.068 216.395,49.168C216.357,49.268 216.351,49.343 216.376,49.393L216.526,49.804L216.152,50.141C216.102,50.216 216.039,50.278 215.965,50.328C215.89,50.378 215.827,50.428 215.778,50.478C215.728,50.752 215.659,51.014 215.572,51.263C215.484,51.513 215.391,51.762 215.291,52.012C215.166,52.411 215.048,52.797 214.936,53.171C214.824,53.545 214.767,53.92 214.767,54.294L214.618,54.78C214.493,54.98 214.337,55.129 214.15,55.229C213.963,55.329 213.782,55.416 213.608,55.491C213.358,55.591 213.184,55.691 213.084,55.79L212.972,56.277L212.41,56.352C212.086,56.426 211.855,56.476 211.718,56.501C211.581,56.526 211.425,56.539 211.25,56.539L210.764,56.501C210.465,56.202 210.222,55.971 210.035,55.809C209.847,55.647 209.629,55.503 209.38,55.379L209.155,55.079C209.056,54.88 208.993,54.699 208.968,54.537C208.943,54.375 208.906,54.206 208.856,54.032C208.806,53.708 208.731,53.483 208.632,53.358L208.07,52.797ZM66.085,55.079C65.886,54.88 65.742,54.643 65.655,54.369C65.567,54.094 65.362,53.87 65.037,53.695C64.988,53.321 64.919,52.891 64.832,52.404C64.744,51.918 64.657,51.419 64.57,50.908C64.482,50.396 64.42,49.885 64.383,49.374C64.345,48.863 64.364,48.395 64.439,47.971C64.489,47.746 64.57,47.534 64.682,47.335C64.794,47.135 64.907,46.942 65.019,46.755C65.131,46.568 65.218,46.375 65.281,46.175C65.343,45.975 65.349,45.776 65.299,45.576C65.449,45.551 65.543,45.47 65.58,45.333C65.617,45.196 65.736,45.152 65.935,45.202C66.11,44.653 66.297,44.142 66.497,43.668C66.696,43.194 66.908,42.733 67.133,42.284C67.357,41.835 67.588,41.38 67.825,40.918C68.062,40.457 68.28,39.939 68.48,39.366C68.056,38.967 67.75,38.536 67.563,38.075C67.376,37.613 67.232,37.146 67.133,36.672C67.033,36.198 66.958,35.718 66.908,35.231C66.858,34.745 66.758,34.252 66.609,33.754C66.908,33.305 67.27,32.937 67.694,32.65C68.118,32.363 68.586,32.126 69.097,31.939C69.608,31.752 70.163,31.602 70.762,31.49C71.36,31.378 71.996,31.247 72.67,31.097C73.867,30.723 74.94,30.43 75.887,30.218C76.835,30.006 77.758,29.831 78.656,29.694C79.554,29.557 80.489,29.432 81.462,29.32C82.435,29.208 83.557,29.039 84.829,28.815C84.854,28.89 84.898,28.927 84.96,28.927L85.203,28.927C85.278,29.102 85.415,29.189 85.615,29.189C85.615,29.114 85.609,29.046 85.596,28.983C85.584,28.921 85.578,28.865 85.578,28.815C85.628,28.815 85.696,28.827 85.783,28.852C85.871,28.877 85.946,28.902 86.008,28.927C86.07,28.952 86.126,28.946 86.176,28.909C86.226,28.871 86.239,28.79 86.214,28.665C86.513,29.189 86.9,29.619 87.373,29.956C87.847,30.293 88.371,30.586 88.945,30.835C88.97,31.06 88.976,31.222 88.964,31.322C88.951,31.421 88.932,31.515 88.907,31.602C88.883,31.69 88.87,31.789 88.87,31.902C88.87,32.014 88.895,32.17 88.945,32.369C88.546,33.043 88.091,33.567 87.579,33.941C87.068,34.315 86.525,34.602 85.952,34.801C85.378,35.001 84.773,35.15 84.137,35.25C83.501,35.35 82.853,35.456 82.192,35.568C81.531,35.68 80.863,35.836 80.19,36.036C79.517,36.235 78.856,36.535 78.207,36.934C78.008,36.859 77.827,36.828 77.665,36.84C77.502,36.853 77.334,36.884 77.16,36.934C76.985,36.984 76.792,37.034 76.58,37.083C76.368,37.133 76.112,37.133 75.813,37.083C75.613,37.258 75.382,37.383 75.12,37.458C74.859,37.532 74.59,37.607 74.316,37.682C74.441,37.956 74.497,38.231 74.484,38.505C74.472,38.78 74.503,39.016 74.578,39.216C75.626,39.316 76.785,39.31 78.057,39.197C79.33,39.085 80.577,39.004 81.799,38.954C81.824,39.079 81.811,39.166 81.761,39.216C81.712,39.266 81.687,39.353 81.687,39.478C81.911,39.628 82.123,39.815 82.323,40.039C82.522,40.264 82.728,40.482 82.94,40.694C83.152,40.906 83.37,41.08 83.595,41.218C83.819,41.355 84.081,41.411 84.38,41.386C84.505,41.635 84.592,41.897 84.642,42.172C84.692,42.446 84.655,42.733 84.53,43.032C84.031,43.356 83.545,43.687 83.071,44.024C82.597,44.36 82.104,44.666 81.593,44.94C81.082,45.215 80.527,45.439 79.928,45.614C79.33,45.788 78.681,45.863 77.983,45.838L77.665,45.838C77.577,45.838 77.471,45.788 77.347,45.689C77.097,45.813 76.767,45.857 76.355,45.82C75.944,45.782 75.601,45.826 75.326,45.95C74.977,45.826 74.572,45.763 74.11,45.763C73.649,45.763 73.244,45.701 72.894,45.576C72.445,46.225 72.021,46.905 71.622,47.615C71.223,48.326 70.874,49.081 70.575,49.879C71.597,50.029 72.445,50.091 73.119,50.066C73.792,50.041 74.428,49.991 75.027,49.916C75.626,49.842 76.243,49.767 76.879,49.692C77.515,49.617 78.294,49.592 79.217,49.617C79.841,49.318 80.558,49.112 81.369,49C82.179,48.887 82.934,48.719 83.632,48.495C83.882,48.569 84.094,48.713 84.268,48.925C84.443,49.137 84.611,49.349 84.773,49.561C84.935,49.773 85.104,49.954 85.278,50.103C85.453,50.253 85.677,50.303 85.952,50.253C86.076,50.378 86.158,50.527 86.195,50.702C86.232,50.877 86.27,51.039 86.307,51.188C86.345,51.338 86.401,51.457 86.476,51.544C86.55,51.631 86.688,51.662 86.887,51.637C86.413,52.61 85.883,53.358 85.297,53.882C84.711,54.406 84.05,54.811 83.314,55.098C82.578,55.385 81.755,55.597 80.845,55.734C79.934,55.871 78.918,56.04 77.796,56.239C77.521,56.289 77.29,56.283 77.103,56.221C76.916,56.158 76.723,56.127 76.523,56.127C75.825,56.252 74.996,56.376 74.035,56.501C73.075,56.626 72.109,56.676 71.136,56.651C70.163,56.626 69.228,56.501 68.33,56.277C67.432,56.052 66.684,55.653 66.085,55.079ZM162.463,53.097C161.74,52.548 161.147,51.862 160.686,51.039C160.224,50.216 159.863,49.343 159.601,48.42C159.339,47.497 159.164,46.543 159.077,45.558C158.99,44.572 158.959,43.631 158.983,42.733C159.208,42.059 159.482,41.442 159.807,40.881C160.131,40.32 160.492,39.783 160.892,39.272C161.291,38.761 161.708,38.274 162.145,37.813C162.581,37.352 163.012,36.884 163.436,36.41C163.585,36.41 163.723,36.447 163.847,36.522C163.947,36.248 164.097,36.011 164.296,35.811C164.496,35.612 164.708,35.431 164.932,35.269C165.157,35.107 165.381,34.945 165.606,34.782C165.83,34.62 166.017,34.427 166.167,34.203C166.79,34.053 167.345,33.841 167.832,33.567C168.318,33.292 168.786,32.993 169.235,32.669C169.684,32.344 170.145,32.045 170.619,31.771C171.093,31.496 171.642,31.284 172.265,31.135C172.49,30.885 172.77,30.673 173.107,30.499C173.444,30.324 173.781,30.162 174.117,30.012C174.454,29.863 174.778,29.7 175.09,29.526C175.402,29.351 175.658,29.114 175.857,28.815C176.007,29.015 176.219,29.083 176.493,29.021C176.767,28.958 177.017,28.89 177.241,28.815C177.391,28.79 177.516,28.815 177.616,28.89C177.715,28.965 177.809,29.046 177.896,29.133C177.983,29.22 178.058,29.276 178.121,29.301C178.183,29.326 178.252,29.251 178.326,29.077C178.526,29.102 178.582,29.189 178.495,29.339C178.407,29.488 178.351,29.588 178.326,29.638C178.576,29.588 178.782,29.632 178.944,29.769C179.106,29.906 179.361,30 179.711,30.05C179.835,30.174 179.873,30.274 179.823,30.349C179.773,30.424 179.736,30.548 179.711,30.723C180.609,30.997 181.182,31.428 181.432,32.014C181.681,32.6 181.706,33.211 181.507,33.847C181.307,34.483 180.939,35.069 180.403,35.606C179.867,36.142 179.274,36.497 178.626,36.672C177.852,36.871 177.135,37.071 176.474,37.27C175.813,37.47 175.177,37.695 174.566,37.944C173.955,38.193 173.382,38.486 172.845,38.823C172.309,39.16 171.841,39.553 171.442,40.002C170.744,40.201 170.114,40.476 169.553,40.825C168.992,41.174 168.468,41.561 167.981,41.985C167.495,42.409 167.027,42.851 166.578,43.313C166.129,43.774 165.681,44.229 165.232,44.678C165.232,45.102 165.157,45.427 165.007,45.651C164.857,45.876 164.695,46.1 164.521,46.325C164.571,46.799 164.677,47.204 164.839,47.541C165.001,47.877 165.169,48.22 165.344,48.569C167.339,49.168 169.453,49.536 171.685,49.673C173.918,49.81 176.131,49.891 178.326,49.916C178.551,50.216 178.807,50.496 179.093,50.758C179.38,51.02 179.642,51.288 179.879,51.563C180.116,51.837 180.303,52.155 180.44,52.517C180.577,52.878 180.609,53.309 180.534,53.807C180.11,54.231 179.648,54.637 179.149,55.023C178.651,55.41 178.152,55.79 177.653,56.164C177.428,56.189 177.16,56.189 176.849,56.164C176.537,56.14 176.212,56.127 175.876,56.127C175.539,56.127 175.202,56.146 174.866,56.183C174.529,56.221 174.211,56.302 173.912,56.426C172.34,56.376 170.731,56.183 169.085,55.846C167.439,55.51 165.917,55.104 164.521,54.63C164.246,54.306 163.959,54.001 163.66,53.714C163.361,53.427 162.962,53.221 162.463,53.097ZM113.563,53.097C112.84,52.548 112.247,51.862 111.786,51.039C111.325,50.216 110.963,49.343 110.701,48.42C110.439,47.497 110.264,46.543 110.177,45.558C110.09,44.572 110.059,43.631 110.084,42.733C110.308,42.059 110.582,41.442 110.907,40.881C111.231,40.32 111.593,39.783 111.992,39.272C112.391,38.761 112.809,38.274 113.245,37.813C113.682,37.352 114.112,36.884 114.536,36.41C114.686,36.41 114.823,36.447 114.947,36.522C115.047,36.248 115.197,36.011 115.396,35.811C115.596,35.612 115.808,35.431 116.032,35.269C116.257,35.107 116.481,34.945 116.706,34.782C116.93,34.62 117.117,34.427 117.267,34.203C117.891,34.053 118.446,33.841 118.932,33.567C119.418,33.292 119.886,32.993 120.335,32.669C120.784,32.344 121.245,32.045 121.719,31.771C122.193,31.496 122.742,31.284 123.366,31.135C123.59,30.885 123.871,30.673 124.207,30.499C124.544,30.324 124.881,30.162 125.218,30.012C125.554,29.863 125.878,29.7 126.19,29.526C126.502,29.351 126.758,29.114 126.957,28.815C127.107,29.015 127.319,29.083 127.593,29.021C127.868,28.958 128.117,28.89 128.342,28.815C128.491,28.79 128.616,28.815 128.716,28.89C128.815,28.965 128.909,29.046 128.996,29.133C129.084,29.22 129.158,29.276 129.221,29.301C129.283,29.326 129.352,29.251 129.427,29.077C129.626,29.102 129.682,29.189 129.595,29.339C129.508,29.488 129.452,29.588 129.427,29.638C129.676,29.588 129.882,29.632 130.044,29.769C130.206,29.906 130.462,30 130.811,30.05C130.936,30.174 130.973,30.274 130.923,30.349C130.873,30.424 130.836,30.548 130.811,30.723C131.709,30.997 132.282,31.428 132.532,32.014C132.781,32.6 132.806,33.211 132.607,33.847C132.407,34.483 132.039,35.069 131.503,35.606C130.967,36.142 130.374,36.497 129.726,36.672C128.953,36.871 128.236,37.071 127.575,37.27C126.914,37.47 126.278,37.695 125.666,37.944C125.055,38.193 124.482,38.486 123.945,38.823C123.409,39.16 122.942,39.553 122.542,40.002C121.844,40.201 121.214,40.476 120.653,40.825C120.092,41.174 119.568,41.561 119.082,41.985C118.595,42.409 118.128,42.851 117.679,43.313C117.23,43.774 116.781,44.229 116.332,44.678C116.332,45.102 116.257,45.427 116.107,45.651C115.958,45.876 115.795,46.1 115.621,46.325C115.671,46.799 115.777,47.204 115.939,47.541C116.101,47.877 116.269,48.22 116.444,48.569C118.439,49.168 120.553,49.536 122.786,49.673C125.018,49.81 127.232,49.891 129.427,49.916C129.651,50.216 129.907,50.496 130.194,50.758C130.48,51.02 130.742,51.288 130.979,51.563C131.216,51.837 131.403,52.155 131.54,52.517C131.678,52.878 131.709,53.309 131.634,53.807C131.21,54.231 130.749,54.637 130.25,55.023C129.751,55.41 129.252,55.79 128.753,56.164C128.529,56.189 128.261,56.189 127.949,56.164C127.637,56.14 127.313,56.127 126.976,56.127C126.639,56.127 126.303,56.146 125.966,56.183C125.629,56.221 125.311,56.302 125.012,56.426C123.44,56.376 121.832,56.183 120.185,55.846C118.539,55.51 117.018,55.104 115.621,54.63C115.347,54.306 115.06,54.001 114.76,53.714C114.461,53.427 114.062,53.221 113.563,53.097ZM135.039,37.832C134.989,37.507 134.926,37.308 134.852,37.233C135.026,36.784 135.157,36.341 135.244,35.905C135.332,35.468 135.4,35.051 135.45,34.652C135.5,34.302 135.556,33.978 135.619,33.679C135.681,33.379 135.762,33.093 135.862,32.818C136.286,32.718 136.604,32.538 136.816,32.276C137.028,32.014 137.196,31.783 137.321,31.584C137.77,31.559 138.063,31.621 138.2,31.771C138.337,31.92 138.493,32.17 138.668,32.519C138.792,32.793 138.967,33.086 139.192,33.398C139.416,33.71 139.753,33.953 140.202,34.128C140.277,34.402 140.364,34.664 140.464,34.913C140.563,35.163 140.676,35.425 140.8,35.699C141.025,36.223 141.237,36.765 141.436,37.327C141.636,37.888 141.748,38.418 141.773,38.917C141.474,39.49 141.243,40.151 141.081,40.9C140.919,41.648 140.819,42.402 140.782,43.163C140.744,43.924 140.763,44.653 140.838,45.352C140.913,46.05 141.037,46.636 141.212,47.11L141.436,47.709L142.259,47.634C143.157,47.41 143.968,47.154 144.691,46.867C145.415,46.58 146.088,46.237 146.712,45.838C147.335,45.439 147.934,44.984 148.508,44.473C149.081,43.961 149.68,43.356 150.303,42.658C150.902,41.96 151.438,41.168 151.912,40.282C152.386,39.397 152.779,38.48 153.091,37.532C153.403,36.585 153.646,35.637 153.82,34.689C153.995,33.741 154.107,32.856 154.157,32.033C154.631,31.808 154.893,31.446 154.943,30.948L154.831,30.461C154.756,30.336 154.725,30.218 154.737,30.106C154.749,29.994 154.781,29.888 154.831,29.788C155.03,29.214 155.454,28.79 156.103,28.516C156.552,28.815 156.969,29.139 157.356,29.488C157.743,29.838 158.098,30.187 158.422,30.536C158.472,31.209 158.572,31.789 158.722,32.276C158.871,32.762 159.033,33.23 159.208,33.679C159.383,34.103 159.538,34.514 159.676,34.913C159.813,35.313 159.906,35.799 159.956,36.373C159.707,37.121 159.526,37.825 159.414,38.486C159.301,39.147 159.195,39.84 159.096,40.563L159.021,40.974C158.572,41.748 158.129,42.54 157.693,43.35C157.256,44.161 156.901,44.865 156.626,45.464C156.477,45.614 156.346,45.788 156.234,45.988C156.121,46.187 156.015,46.387 155.916,46.587C155.866,46.661 155.797,46.786 155.71,46.961C155.622,47.135 155.541,47.26 155.467,47.335L154.569,46.998L154.344,48.158L153.746,48.308L153.297,48.831C152.723,49.829 152.118,50.665 151.482,51.338C150.846,52.012 150.135,52.61 149.349,53.134C148.564,53.658 147.678,54.15 146.693,54.612C145.708,55.073 144.579,55.566 143.307,56.09C142.808,56.015 142.378,55.971 142.016,55.959C141.655,55.946 141.299,55.928 140.95,55.903C140.601,55.903 140.264,55.89 139.94,55.865C139.616,55.84 139.241,55.803 138.817,55.753C138.718,55.528 138.58,55.366 138.406,55.267C138.231,55.167 138.069,55.117 137.919,55.117C137.421,54.867 137.047,54.518 136.797,54.069C136.548,53.62 136.286,53.121 136.011,52.573C135.887,52.273 135.756,51.974 135.619,51.675C135.481,51.375 135.313,51.089 135.113,50.814L135.862,50.59L134.889,49.467C134.814,49.393 134.733,49.318 134.646,49.243C134.558,49.168 134.477,49.081 134.403,48.981L134.403,48.27C134.303,46.225 134.259,44.335 134.272,42.602C134.284,40.868 134.515,39.341 134.964,38.019L135.039,37.832ZM220.005,43.07C219.656,43.568 219.319,44.092 218.995,44.641C219.17,44.616 219.338,44.604 219.5,44.604C219.662,44.604 219.831,44.591 220.005,44.566C220.878,44.516 221.689,44.454 222.437,44.379C223.185,44.304 223.996,44.18 224.869,44.005C224.67,43.082 224.451,42.141 224.214,41.18C223.977,40.22 223.722,39.253 223.447,38.281L223.26,38.655C222.637,39.328 222.038,40.052 221.464,40.825C220.891,41.598 220.417,42.334 220.043,43.032L220.005,43.07ZM249.487,36.036C249.163,36.51 248.801,36.94 248.402,37.327C248.003,37.713 247.61,38.112 247.224,38.524C246.837,38.935 246.494,39.384 246.195,39.871C245.896,40.357 245.684,40.937 245.559,41.61C246.607,41.486 247.704,41.193 248.851,40.731C249.999,40.27 251.084,39.827 252.106,39.403C251.982,38.48 251.657,37.738 251.134,37.177C250.61,36.616 250.061,36.235 249.487,36.036Z" style="fill:white;fill-rule:nonzero;"/>
    </g>
</svg>
