<?xml version="1.0" encoding="utf-8"?>
<!-- Generator: Adobe Illustrator 19.1.0, SVG Export Plug-In . SVG Version: 6.00 Build 0)  -->
<svg version="1.1" id="Layer_1" xmlns="http://www.w3.org/2000/svg" xmlns:xlink="http://www.w3.org/1999/xlink" x="0px" y="0px"
	 viewBox="0 0 215 47" style="enable-background:new 0 0 215 47;" xml:space="preserve">
<style type="text/css">
	.st0{fill:#FFFFFF;}
	.st1{fill:#D6B48A;}
</style>
<g>
	<path class="st0" d="M86.1,16.1h2.7l5.8,13.6h-3.1l-1.2-3h-5.7l-1.2,3h-3L86.1,16.1z M89.2,24l-1.8-4.4L85.6,24H89.2z"/>
	<path class="st0" d="M96.7,16.2h5.5c3.2,0,5.2,1.9,5.2,4.7v0c0,3.1-2.4,4.7-5.4,4.7h-2.3v4h-3V16.2z M102,23c1.5,0,2.3-0.9,2.3-2v0
		c0-1.3-0.9-2-2.4-2h-2.3V23H102z"/>
	<path class="st0" d="M109.6,16.2h5.5c3.2,0,5.2,1.9,5.2,4.7v0c0,3.1-2.4,4.7-5.4,4.7h-2.3v4h-3V16.2z M114.9,23
		c1.5,0,2.3-0.9,2.3-2v0c0-1.3-0.9-2-2.4-2h-2.3V23H114.9z"/>
	<path class="st0" d="M122.4,16.2h3v10.8h6.7v2.7h-9.7V16.2z"/>
	<path class="st0" d="M134.3,16.2h10.2v2.6h-7.2v2.7h6.4v2.6h-6.4V27h7.3v2.6h-10.3V16.2z"/>
	<path class="st0" d="M153,16.2h3.2l3.5,5.7l3.5-5.7h3.2v13.5h-2.9v-8.8l-3.8,5.8h-0.1l-3.8-5.7v8.7H153V16.2z"/>
	<path class="st0" d="M169.5,23.9v-7.7h3v7.6c0,2.2,1.1,3.3,2.9,3.3s2.9-1.1,2.9-3.2v-7.7h3v7.6c0,4.1-2.3,6.1-5.9,6.1
		C171.7,29.9,169.5,27.8,169.5,23.9z"/>
	<path class="st0" d="M183.4,27.7l1.8-2.1c1.2,1,2.5,1.6,4,1.6c1.2,0,1.9-0.5,1.9-1.3v0c0-0.8-0.5-1.1-2.7-1.7
		c-2.7-0.7-4.5-1.4-4.5-4.1v0c0-2.4,2-4.1,4.7-4.1c2,0,3.6,0.6,5,1.7l-1.5,2.2c-1.2-0.8-2.4-1.3-3.5-1.3c-1.1,0-1.7,0.5-1.7,1.2v0
		c0,0.9,0.6,1.2,2.9,1.8c2.7,0.7,4.3,1.7,4.3,4v0c0,2.7-2,4.2-4.9,4.2C187.1,29.8,185,29.1,183.4,27.7z"/>
	<path class="st0" d="M196.8,16.2h3v13.5h-3V16.2z"/>
	<path class="st0" d="M202.5,22.9L202.5,22.9c0-3.9,2.9-7,7-7c2.5,0,4.1,0.8,5.3,2.1l-1.9,2.2c-1-0.9-2.1-1.5-3.4-1.5
		c-2.3,0-3.9,1.9-3.9,4.2v0c0,2.3,1.6,4.2,3.9,4.2c1.5,0,2.5-0.6,3.5-1.6l1.9,1.9c-1.4,1.5-2.9,2.4-5.5,2.4
		C205.4,29.9,202.5,26.8,202.5,22.9z"/>
</g>
<g>
	<path class="st1" d="M23,0.5c-12.7,0-23,10.3-23,23c0,12.7,10.3,23,23,23s23-10.3,23-23C46.1,10.8,35.8,0.5,23,0.5z M32.4,33
		C32.4,33,32.4,33,32.4,33c-0.8,1.6-2.2,2.6-3.9,2.7c-2.1,0.3-4.2-0.6-4.8-2.2c-0.1-0.2-0.1-0.4-0.2-0.6c-0.3-1.6,0.6-3.1,2-3.7
		l0.1,0c0,0,0.2-0.1,0.2-0.1c1.1-0.5,3-0.9,3-0.9c0.3-0.1,0.7-0.1,1-0.2c0.9-0.2,1.3-0.6,1.3-1.5c0-3.3,0-6.6,0-9.9
		c0-1.2-1-0.9-1.3-0.8c-1.4,0.3-2.8,0.5-4.2,0.8c-2.4,0.5-4.8,1-7.2,1.5c-0.5,0.1-0.9,0.3-0.8,0.9l0,0.4c-0.1,2-0.1,3.4,0,5
		c0,0.6,0,0.7,0,1.7h0c0,3-0.1,4.9,0,7.4c0,0.9,0,1.5-0.3,2.2c0,0.1,0,0.2,0,0.2c-0.1,0.2-0.2,0.5-0.4,0.7c0,0,0,0.1,0,0.1
		c0,0,0,0-0.1,0.1c-0.3,0.4-0.8,0.7-1.4,1c0,0-0.7,0.4-0.9,0.4c-1.1,0.4-2.3,0.6-3.5,0.5l-0.1,0c-0.1,0-0.2,0-0.3,0c0,0,0,0,0,0
		c0,0,0,0,0,0c-1.4-0.2-2.5-0.9-2.8-2.3c-0.4-1.8,0.7-3,2.1-3.7c0,0,0.9-0.4,1.2-0.5c0.1,0,0.2-0.1,0.3-0.1c1.1-0.4,2.1-0.5,2.2-0.5
		c0.2,0,0.5-0.1,0.7-0.2c1.3-0.3,1.5-0.6,1.5-1.9c0-5.4,0-10.8,0-16.3c0-1.5,0.3-1.8,1.7-2.1c4.4-0.9,8.8-1.8,13.1-2.7
		c0.4-0.1,0.8-0.1,1.2-0.2c0.6,0,0.9,0.3,1,0.9c0,0.3,0,0.7,0,1c0,6.8,0,13.6,0,20.4c0,0.1,0,0.3,0,0.4c0.1,0.4,0.1,0.8,0,1.3
		C32.8,32.1,32.6,32.7,32.4,33z"/>
</g>
</svg>
