<?xml version="1.0" encoding="utf-8"?>
<!-- Generator: Adobe Illustrator 19.1.0, SVG Export Plug-In . SVG Version: 6.00 Build 0)  -->
<svg version="1.1" id="Layer_1" xmlns="http://www.w3.org/2000/svg" xmlns:xlink="http://www.w3.org/1999/xlink" x="0px" y="0px"
	 viewBox="0 0 215 47" style="enable-background:new 0 0 215 47;" xml:space="preserve">
<style type="text/css">
	.st0{fill:#FFFFFF;}
	.st1{fill:#D6B48A;}
</style>
<g>
	<g>
		<path class="st0" d="M79.7,26.9l1.8-2.1c1.2,1,2.5,1.6,4,1.6c1.2,0,1.9-0.5,1.9-1.3v0c0-0.8-0.5-1.1-2.7-1.7
			c-2.7-0.7-4.5-1.4-4.5-4.1v0c0-2.4,2-4.1,4.7-4.1c2,0,3.6,0.6,5,1.7l-1.5,2.2c-1.2-0.8-2.4-1.3-3.5-1.3s-1.7,0.5-1.7,1.2v0
			c0,0.9,0.6,1.2,2.9,1.8c2.7,0.7,4.3,1.7,4.3,4v0c0,2.7-2,4.2-4.9,4.2C83.4,29,81.4,28.3,79.7,26.9z"/>
		<path class="st0" d="M93,15.3h5.5c3.2,0,5.2,1.9,5.2,4.7v0c0,3.1-2.4,4.7-5.4,4.7H96v4h-3V15.3z M98.3,22.1c1.5,0,2.3-0.9,2.3-2v0
			c0-1.3-0.9-2-2.4-2H96v4.1H98.3z"/>
		<path class="st0" d="M105.3,22.1L105.3,22.1c0-3.9,3-7,7.2-7c4.2,0,7.1,3.1,7.1,6.9v0c0,3.8-3,7-7.2,7
			C108.2,29.1,105.3,26,105.3,22.1z M116.5,22.1L116.5,22.1c0-2.3-1.7-4.3-4.1-4.3c-2.4,0-4,1.9-4,4.2v0c0,2.3,1.7,4.2,4.1,4.2
			C114.8,26.3,116.5,24.4,116.5,22.1z"/>
		<path class="st0" d="M124.8,18.1h-4.1v-2.7h11.2v2.7h-4.1v10.7h-3V18.1z"/>
		<path class="st0" d="M134.3,15.3h3v13.5h-3V15.3z"/>
		<path class="st0" d="M140.6,15.3h10.3V18h-7.3v2.9h6.4v2.7h-6.4v5.2h-3V15.3z"/>
		<path class="st0" d="M157,23.5l-5.2-8.2h3.5l3.2,5.4l3.3-5.4h3.4l-5.2,8.1v5.4h-3V23.5z"/>
	</g>
	<g>
		<path class="st1" d="M23,46.5c-12.7,0-23-10.3-23-23c0-12.7,10.3-23,23-23c12.7,0,23,10.3,23,23C46,36.2,35.7,46.5,23,46.5z
			 M39.3,19c0-0.8-0.3-1.5-1.1-1.9c-0.8-0.5-1.7-0.9-2.5-1.3c-4.7-2.1-9.8-3-14.9-3.2c-4.2-0.2-8.3,0.2-12.3,1.3
			c-1.5,0.4-2.2,1.6-1.8,2.9c0.4,1.2,1.5,1.8,3,1.4c5.6-1.5,11.2-1.5,16.8-0.5c3.4,0.6,6.6,1.6,9.6,3.3C37.7,21.8,39.3,20.8,39.3,19
			z M36.1,26.4c0-0.9-0.5-1.4-1.2-1.8c-4.6-2.7-9.6-3.9-14.9-4.1c-3.5-0.2-6.9,0.3-10.3,1.2c-0.7,0.2-1.2,0.6-1.4,1.3
			c-0.4,1.6,0.8,2.7,2.4,2.3c4.4-1.2,8.9-1.4,13.4-0.6c3.3,0.6,6.4,1.6,9.2,3.3C34.7,28.8,36.1,28,36.1,26.4z M33.2,32.8
			c0-0.7-0.4-1.1-1-1.5c-7-4-14.4-4-22-2.3c-0.7,0.2-1.1,0.7-1.1,1.5c0,1.2,0.9,1.6,2.3,1.3c4.3-0.9,8.6-1.2,13-0.3
			c2.3,0.5,4.5,1.4,6.6,2.6C32.1,34.8,33.2,34.1,33.2,32.8z"/>
	</g>
</g>
</svg>
