<?xml version="1.0" encoding="utf-8"?>
<!-- Generator: Adobe Illustrator 19.1.0, SVG Export Plug-In . SVG Version: 6.00 Build 0)  -->
<svg version="1.1" id="Layer_1" xmlns="http://www.w3.org/2000/svg" xmlns:xlink="http://www.w3.org/1999/xlink" x="0px" y="0px"
	 viewBox="0 0 250 160" style="enable-background:new 0 0 250 160;" xml:space="preserve">
<style type="text/css">
	.st0{fill:#FFFFFF;}
</style>
<g>
	<path class="st0" d="M26.1,156.1c-0.6-0.9,0.2-15.6,1.4-26.7c0.5-4.5,0.8-8.2,0.7-8.4c-0.1-0.1-1.4,0.7-2.9,1.9
		c-3.2,2.5-5.5,3.3-6.2,2.2c-0.3-0.5,1.7-3,4.9-6.2l6.4-5.7l2.5-21.5c0,0-5.9,5.1-8.3,7.3c-4.8,4.4-11.2,9.9-12,10
		c-0.3,0-1.5,0.1-2.8,0.3c-1.7,0.2-2.2,0-2-0.7c0.2-0.6,0-0.8-0.7-0.6C4.3,109,7.2,105.9,20.2,94c8.3-7.6,14.6-12.7,14.6-12.7
		l0.3-1.6c0,0-3.2,1.7-7.1,4.2c-11.4,7.3-12.7,8.9-14.5,6.3c-0.2-0.3,4.2-3.6,10.3-8c6.4-4,12.1-8.4,12.1-8.4s-0.1-5-0.4-7.6
		c-0.3-3.9-0.2-4.8,0.7-5.2c2.2-1,3.4-1.4,3.8,4.6c0.1,2,0,4.5,0,4.5s3.5-2.3,7-4.8C50.4,63,57.2,58.3,62.1,55
		c8.2-5.6,8.9-5.9,10.9-5.2c3.4,1.2,3.4,2.7-0.1,5.9c-1.7,1.6-5.5,4.9-8.3,7.5c-7,6.3-8.5,7.7-16.1,14.7c-3.6,3.3-9.2,8.8-9.2,8.8
		l-3,19.6l12.7-12.9c0,0,1.9-14.7,2.2-14.9c0.8-0.8,4.1-0.1,4.1,0.6c-0.1,1.2-0.3,3.3-0.3,3.3s4.9-3.4,6.5-4.2
		c5.1-2.6,9.8,1.3,9.6,5.1c-0.4,6.8-10.7,18.7-10.7,18.7s1.4,0.6,2.4,1.2c2.7,1.8,3.8,4.3,3.9,9.5c0.1,6.4-1.5,8.7-3.9,9.2
		c-1.1,0.2-2.2,0.2-2.5,0c-0.3-0.2,0.1-3,0.1-6.4c-0.1-6.5-1.2-10.9-2-10.7c-3,1-7,5.4-7,5.4l-1.8,11.1c-1.4,9.4-1.7,10.5-3.1,11
		c-2.8,1-3.7,0.1-3.7-4c0-3.3,2.9-23.1,2.9-23.1l-4.8,4.5c-2.7,2.5-5.1,4.9-5.4,5.5c-0.6,1.1-3.5,24.1-4.3,34.8
		c-0.4,5.5-0.6,6.1-2,6.5C27,157,26.7,156.9,26.1,156.1 M27.9,136.5c-0.8,8.2-1.1,16.8,0.5,1.1C28.7,134.6,28.5,129.9,27.9,136.5
		 M62.9,89.4c1.3-2,2.4-4.1,2.4-4.6c0-0.5-1.1,1-2.6,3.3c-1.4,2.3-3.5,5.5-4.6,7.1L56,98l2.2-2.5C59.4,94.1,61.5,91.4,62.9,89.4
		 M59.4,91.8C62,88.3,65,82.7,65,81.5c0-1.2-1.8-0.1-5.9,2.9c-3.1,2.3-4.5,3.5-4.5,3.5l-1.4,11.3C53.2,99.1,58,93.6,59.4,91.8
		 M176.7,131.2c-1.4-1.5-0.2-1.5,2.3-3.4c1.7-1.3,4.6-4.1,6.4-6.2c4.8-5.6,16.6-23.4,16.6-25.1c0-0.8,0.4-1.6,1-1.8
		c2.5-1,10.7-21,11.9-31.6c0.8-7.1,2-7.3,4.4-4.9c0.7,0.7,2.1,5.2,3,9c0.9,3.9,1.6,8.7,1.6,8.7s1.9-1.8,4.4-3.9c4.8-4,5.6-4.8,5-3.2
		c-0.4,1-0.3,1,0.8,0.3c1-0.6,1.4-0.1,2.3,0.7c2.4,1.9,1.4,2.9-4.6,8.8l-6.6,6.3c0,0,0.5,25.8-2.1,26.6c-0.7-1.5-1-0.8-0.9,0.4
		c0,0.3-1.4,0.3-2.4,0.3c-0.5,0-0.8-0.5-0.8-0.9c0.8-5.7,0.8-21.4,0.8-21.4c-3,3-5.8,5.2-9.1,7.1c0,0-10.4,21.6-24.9,33.5
		C182.4,132.4,178.1,132.8,176.7,131.2 M198.1,108.2c2.2-3.7,0.8-2.3-1.9,1.9c-1.4,2.2-1.9,3.2-1,2.1
		C196.1,111.2,197.4,109.4,198.1,108.2 M202.4,101.1c0.6-1.2,0.9-2.1,0.7-2.1c-0.2,0-0.8,1-1.4,2.1c-0.6,1.2-0.9,2.1-0.7,2.1
		C201.2,103.2,201.8,102.3,202.4,101.1 M218.3,71.9c-0.6,2-3.7,13-3.8,13.7c3.4-3.7,3.3-3.5,4.7-4.9l-0.8-8.7
		C218.4,71.9,218.3,71.9,218.3,71.9 M223,73.5c-0.2-0.6-0.4-0.4-0.4,0.4c0,0.7,0.1,1.2,0.4,0.9C223.2,74.6,223.2,74,223,73.5
		 M222.3,69.3c-0.2-0.6-0.4-0.4-0.4,0.4c0,0.7,0.1,1.2,0.4,0.9C222.5,70.4,222.5,69.8,222.3,69.3 M71.9,112.8
		c-3.5-1.6-5.1-4.1-4.5-8.3c1.3-9.2,12-24.2,20-28.4c2.4-1.3,6.8,0,9.4,2.9c3.1,3.5,2.8,11.1,1.2,15.3
		c-4.8,12.1-11.5,16.3-17.2,18.3C78.1,113.5,73.6,113.7,71.9,112.8 M81.9,104.4c2.4-2.4,5.4-6.5,6.4-9c3.6-8.6,2.7-14.9,1.4-15.2
		c-2-0.5-12.6,16.8-13.8,23.4c-0.2,1-1.1,4.5,0.1,4.5C77,108.2,79.2,107.2,81.9,104.4 M73,95c0.8-1.6,1.3-3,1.1-3
		c-0.7,0-5.3,10.4-5.2,11.8c0,0.7,0.6-0.3,1.3-2.2C70.9,99.5,72.1,96.6,73,95 M173.4,68.8c-0.7-0.7-11.8,4.3-13.1,5.9
		c-0.7,0.8,0.4-0.7,9-4C170.4,70.2,173.6,69,173.4,68.8 M90.7,95.2c0-0.9-0.3-0.5-1.4,1.7c-0.8,1.7-0.8,1.7,0.3,0.4
		C90.2,96.5,90.7,95.6,90.7,95.2 M172.3,56c1.5-2,0.9-1.8-1.3,0c-0.9,0.8-1.9,1.4-2.1,1.4c-1.6,0-3.5-31.7-2.3-44.6
		c0.3-3.2,0.7-2.6,2.4-2.6c2.2,0,2.5-0.4,2.6,7.7c0,1,0.2,6.5,0.2,6.5s2.2-4.3,4-7.6c4.8-8.5,7-10.6,10.5-10.6c4.8,0,6.3,3,6.3,9.1
		c0,10-7.4,21.9-17.2,30.3c-0.2,0.2-1.6-1.7-1.8-1.5l0.1,1.8l0.2,4.9c0.1,3.7,0.2,5.1-0.4,5.5L172.3,56z M133.9,109.2
		c-0.5-1.2,2.7-17.7,5.8-30.9c0.9-3.8,2-8.6,2-8.6s-1,0.2-4.8,1c-1.7,0.3-3.6,0.7-4.5,0.8c-0.4,0.1-0.8-0.1-1-0.4
		c-0.3-0.3-1-1.2-1.5-1.3c0,0-1.3,0.8-1.6,1.4c-0.2,0.6-0.1,0.9,0.2,0.7c0.7-0.5,0.7-0.3-1.4,8.4c-0.8,3.5-1.7,7.3-1.9,8.5
		c-0.2,1.2-0.5,2.9-0.6,3.9c-0.2,1-0.5,4.1-0.7,7.1c-0.2,2.9,0,5.9-0.2,6.1c-0.2,0.3-1.8,0.7-3.1,0.9c-1.9,0.4-3.4-0.4-4.1-1.2
		c-4.1-4.1-8.3-17.7-8.3-17.7s-2.4,5.7-3,7.5c-0.8,2.3-2.2,8.6-2.3,9.5c0,1.7-3.2,3-4.5,1.7c-1.6-1.6,1.8-18.1,6.3-24.9
		c1.5-2.5,1.6-2.2,4-2.1c1.5,0,3.8,1,4.6,1.7c0.4,0.4,1.4,4,1.9,5.6c0.6,1.8,2.3,8,2.3,8c0.9-8.8,6.9-28.3,9.3-32.3
		c1.3-1.9,1.2-0.9-0.2,2.3c-2.4,5.6-6.7,20.5-6.6,22.7c0,0.6,1.1-2.8,2.4-7.5c3.5-12.6,5.4-16.8,7.3-16.8c1,0,1.4-0.3,1.2-0.9
		c-0.2-0.5-0.1-0.9,0.3-0.9c1.2,0,1.5,1.4,0.7,2.8c-0.4,0.8-0.6,2.1-0.6,2.1c0.3-0.6,46.6-10.1,44.9-9c-0.6,0.4-1,1.3,0.3,1.3
		c1.2-0.2,1.2,1,1.5,2.5c0.1,0.4-0.2,0.7-0.5,0.8c-16.9,4.6-31.6,6.7-31.6,6.7s0.2,12.1-5.3,29.4c-1.4,5.8-2.6,10.9-2.7,11
		c0,0.1-1,0.3-2,0.6C134.9,110.3,134.3,110.2,133.9,109.2 M100.3,98.2c-0.2-0.6-0.4-0.4-0.4,0.4c0,0.7,0.1,1.2,0.4,0.9
		C100.5,99.3,100.5,98.7,100.3,98.2 M119.3,95.4c-0.2-0.6-0.4-0.4-0.4,0.4c0,0.7,0.1,1.2,0.4,0.9C119.5,96.5,119.6,95.9,119.3,95.4
		 M103.1,88.6c-0.3-0.3-2.6,6.1-2.5,7.2c0,0.4,0.7-1,1.4-3.1C102.7,90.6,103.2,88.8,103.1,88.6 M120.1,90.4
		c-0.2-0.6-0.4-0.4-0.4,0.4c0,0.7,0.1,1.2,0.4,0.9C120.2,91.5,120.3,90.9,120.1,90.4 M129.3,65.5c-0.2-0.2-0.6,0.2-0.9,0.9
		c-0.4,1-0.3,1.1,0.4,0.4C129.3,66.3,129.5,65.7,129.3,65.5 M180.1,30.3c2-2.8,3.6-6.3,4.3-8.3c1.7-4.9,2.1-9.5,1.4-10.8
		c-0.4-0.6-2.7,3.1-7.9,11.6c-3,5-5,10.4-5,10.4V40C173,40,178.2,33.2,180.1,30.3 M185.8,23.9c0-0.4-0.3-0.2-0.7,0.4
		c-0.4,0.6-0.7,1.4-0.7,1.8c0,0.4,0.3,0.2,0.7-0.4C185.5,25.1,185.8,24.3,185.8,23.9 M176.6,107.1c0-1-0.5,0.4-1.1,1.3
		c-1.9,2.9,0.8-15.2,3.9-27.4c1.9-7.3,5.9-20.6,6.4-20.6c1.4,0,3.2,0.5,3.2,2l-0.6,3.8c0,0,7.7-7.6,13.1-4.1
		c7.1,4.6,5.9,10.9-2.5,19.6c-4.3,4.5-4.7,4.6-4.7,4.6s5,2.7,2.5,13.7c-0.3,1.2-1.1,4.8-2.7,5.3c-3,0.8-4.5-0.1-3.7-3.9
		c1-5.2,0.7-12,0.2-12.6c-0.2-0.2-1.4,0.4-2.8,1.1c-1.4,0.7-3.7,2.2-3.7,2.2s-0.6,4-1.3,7.8c-0.7,3.8-1.8,7.7-2,8.4
		c-0.2,0.4-4.2,2.3-4.2,0.7 M192.1,78.6c3.4-3.7,7.2-8.8,7.2-11.3c0-1.9-10.1,5.5-12.2,8.1l-2.1,9.4C185,84.8,188.6,82.3,192.1,78.6
		 M193,80.9c0.9-1.1,0.9-1.1-0.3-0.3c-0.7,0.5-1.2,1.1-1.2,1.2C191.5,82.4,192.1,82,193,80.9 M196.8,76.5c0.7-0.8,1.1-1.4,0.9-1.4
		c-0.2,0-0.9,0.6-1.6,1.4c-0.7,0.8-1.1,1.4-0.9,1.4C195.3,77.9,196.1,77.2,196.8,76.5 M145.9,105.5c-1.1-0.7-0.5-1.5,3.7-4.5
		c6.4-4.6,18.1-9.9,18.6-8.4c0.1,0.4,0.5,0.6,0.9,0.3c0.4-0.2,0.6-0.1,0.6,0.3c0,0.4,0.5,0.7,1.1,0.7c0.6,0,1.1,0.6,1.1,1.3
		c0,0.9-1.6,2.1-5.5,4C153.7,105.5,148.3,107.1,145.9,105.5 M147.1,93.8c-1.1-1.3,1.3-3.1,11.6-8.8c9.4-5.2,13.9-7.1,14.3-5.8
		c0.2,0.5,0.5,0.7,0.8,0.5c0.3-0.2,1.1,0.3,1.9,1.1c1.3,1.4,1.3,1.5-0.4,2.9c-3.9,3.1-22.3,11.1-25.6,11.1
		C148.7,94.8,147.6,94.3,147.1,93.8 M149.7,83c-0.7-0.2-1.1-0.7-0.9-1.3c0.2-0.6,0-0.8-0.7-0.6c-0.6,0.2-1,0.1-1-0.4
		c0-1,7.9-5.5,17.1-9.9c8.9-4.2,10.8-4.9,10.2-3.3c-0.3,0.7-0.1,1,0.5,0.7c1.2-0.5,3.2,2.4,2.7,3.7c-0.5,1.2-9.7,6-18,9.1
		C153.6,83.5,152.3,83.7,149.7,83 M122.2,22.6c0-0.5,0.7-1.1,1.3-1.1l2,0.4c2.2,0.2,1.2,1.1,2,9.3c0.2,1.9,0.4,5.1,0.5,5.3
		c0.7-1.7,1.8-4.8,2.9-7.3c2.9-6.9,8.6-13.9,9-13.8c1,0.1,4.1,0.2,4.2,1.9c0.5,7.3,2.2,21.7-1.2,23c-0.4,0.7-0.7-0.3-0.8-0.7
		c0-1.1-3.5,1.1-3.5,1.1s-0.8,0.6-1.3-0.8c-0.4-1-0.8-1.6-0.9-1.1c0,0.5,0,0.7-0.4,0.5c-0.4-0.2-1-1.3-1-3.5c0-2.2-0.1-4.3,0.4-5.5
		c-5.7,11.7-7.4,22.2-7.5,23.8c-0.4,0.3-2.2,0.5-3.1,0.4c-1.4-0.1-2-0.8-2-1.4C124,36,122.2,22.6,122.2,22.6 M70,75.2
		c-0.5-0.2-0.9-0.7-0.9-1.1c0-0.4,2.5-4.6,5.5-9.3C81.7,54,99.6,21.1,104,10.8c1-2.4,2.7-3.2,5-2.4c3.3,1.2,3.5,2.3,2.2,11.4
		c-0.7,4.6-1.7,11.4-1.7,11.4l4.3-2.7c2.6-1.6,2.6,0,4.8,1.9c0.9,0.8,0.7,1.4,0.1,2.1c-0.4,0.5-15.4,10-16.7,9.3
		c-1.3-0.7-3.9-2.1-3.4-2.6c0.8-0.7,5-3.1,5.1-3.8c0.2-1.1,0-2.3,0.4-6c0.3-3.2,0.7-6.4,0.5-6.4c-3.8,9.7-20.4,39-24.7,43
		c0,0,12.6-8.7,17.7-12.7c2.4-1.9,6.2-4.9,6.2-5c0-0.4-4.5,1.7-5.6,2.3c-0.9,0.5-3.5,1.1-4,0.2c-0.6-1,0.4-1.4,5.1-3.6
		c4.8-2.2,12.8-5.6,16.6-8.5c1.1-0.8,2-2.1,3.9-0.9c0.7,0.4,2.2,1.6,2,2.9c-0.4,2.2-0.9,5.3-1,5.7c-0.1,0.7-0.9,4.2-1.9,7.9
		c-6.1,22.5-5.5,20.8-7.6,21c-2.5,0.3-3.7-1.9-3.1-5.4c0.3-1.4,1.7-7,3.3-12.4c1.5-5.4,2.6-9.9,2.5-10.1c-0.2-0.2-4.7,3-10.1,7
		c-12.6,9.4-29.5,20.6-31.5,20.8C71.6,75.5,70.5,75.4,70,75.2 M112.6,59.8c3.5-14.7,2.2-10.6-0.7,0.3
		C109.6,69.1,110.2,69.8,112.6,59.8 M104.6,13.4c-0.2-0.2-11.9,22.3-12.5,23.4c-0.5,0.9-22.8,40.9,0.4,0.4
		C95.9,31.2,104.6,13.4,104.6,13.4 M144.8,55.3c-0.7-1.9,2.6-26,4.5-34.5c0.5-2.5,0.3-2.9,1.7-2.8c1.6,0.1,3.1,0.5,2.9,2.6
		c-0.5,5.5-3.7,26.1-3.4,27.2c2.7-7,4.8-16.9,6-24.7c1-6.2,0.9-8.5,2-8.5l0.2,0.6c0,0,0.5-0.5,0.8-0.6c1.2-0.1,3,0.6,3.7,1.2
		c0.8,0.9,0.3,1.9-0.3,8.3c-0.6,5.9-0.8,10.2,0,16.7c0.5,4.7,1.5,10,1.6,11.7c0.1,3-0.5,3.5-2.7,4.1c-3.2,0.9-5.3-0.9-6-4.2
		c-0.2-0.8-0.3-3.2-0.3-3.2s-4.1,7-6.3,7C147.7,56.3,145,55.9,144.8,55.3"/>
	<path class="st0" d="M241.4,16.5c-1.3-1.4-5.1-3.8-8-4.4c-2.6-0.5-6.3-0.2-8.3,0.5c-4.5,1.5-7.2,4-7.3,4c-0.1-0.1-0.4-0.3-0.5-0.4
		c-0.2,0-0.3-0.2-0.3-0.3c0-0.4-0.4-0.5-1.1-0.1c-0.7,0.4-0.9,0.3-0.5-0.2c0.7-0.9-0.6-0.8-2,0.2c-1,0.7-13,7.5-13.5,7.7
		c0,0,0-0.2,0.1-1.1c0.1-0.6,0-0.9,0.1-1.1c0.3-0.3,3.7-2.4,5.4-3c3.5-1.3,2.9-1.7,1.7-2.9c-0.6-0.6-0.3-0.6,0.2-0.9
		c0.7-0.4,5.5-1.9,8.4-2.9c2-0.6,2-0.6,2.8,0.7c0.6,1,0.9,1.3,1.1,1.2c0.5-0.2,2-0.7,2.3-0.5c0.1,0,0.6,0.1,0.8,0
		c0.5-0.1,0.3-0.5,0.3-0.8c0-0.6-2-4.6-5.8-4.6c-0.3,0-2.1,0.2-3.6,0.7c-1.5,0.5-8.8,3-9.7,3.5c-1.7,0.9-2.4,1.9-1.7,3.3
		c0.2,0.5,0.8,0.9,0.6,1c-0.2,0.1-4.5,2.5-6,3.3c-0.9,0.5-0.9,0.3-0.8,2.8c0,1.2,0.3,3.8,0.3,3.8s-2.8,1.8-3.6,2.1
		c-0.8,0.3-1,1.5-0.4,3.5c0.2,0.7,1.2,2.3,1.1,2.3c0,0-7.7,1.6-8.9,7.4c-1.1,5.1,5.3,11.6,5.8,10.7c0.1-0.2,0.1-0.3-0.1-0.4
		c-0.3-0.2-0.3-0.5-0.1-0.5c0.3,0,0.6-0.8-0.4-1.8c-0.6-0.6-1.3-1.8-1.6-2.4c-0.6-1.3-0.8-1,0-2.6c2-3.9,2.7-3.6,10.1-4.8
		c5.5-0.9,7.5-1.8,10.5-4.7c1.5-1.5,4.5-4.8,5.6-6.3c0.5-0.6,3.2-3.6,4.2-4.5c2-2,4.7-4.1,6.8-5.5c3.2-2.1,7.5-3.9,11.7-1.4
		c3.5,2.2,3.2,7.3,3,8.5c-0.1,0.8-3.2,10.7-15.4,20.1c-4,3.1-11.4,7-21.4,6.8c-2.4-0.1-6.6-0.8-7.9-1c-0.9-0.2-1-0.1-1.2,0.4
		c-0.1,0.4-0.3,1.2,0.5,2c0.5,0.5,19.1,7.6,36-5.8C235.1,44.7,252.3,28.1,241.4,16.5 M192.8,39c-0.5,0.1-1.4,0.5-2,0.8
		c-1.3,0.6-1.4,0.7-1.3,0.4c0.1-0.4,3.1-1.5,4.1-1.5C194,38.7,193.7,38.8,192.8,39 M200.5,30.4c-0.6,0.7-1.2,0.7-2,0
		c-0.6-0.6-0.7-1.2,0.1-1.2c0.7,0,0.8,0.7,1.4,0.1c0.6-0.7,0.6-1.3,1-1.2C201.7,28.3,201,29.7,200.5,30.4 M207.3,25.8
		c0,0.1-0.1,0.1-0.2,0.1c-0.2,0-0.2-0.1,0.1-0.2C207.3,25.7,207.3,25.7,207.3,25.8 M211.6,24.2c-0.5,0.9-1.2,1.8-2.5,1.5
		c-1.1-0.3-1.4-1-0.8-1.3c0.3-0.2,0.9,0.3,1.5,0c0.5-0.2,0.8-1.3,1.1-1.7c0.3-0.6,0.5-0.6,0.9-0.6C212.2,22,212.3,22.9,211.6,24.2
		 M222.1,19.1c-0.5,0.4-1.6,1.4-2.5,2.1c-1.7,1.4-1.9,1.6-1.9,1.4c0-0.4,3.6-3.4,5-4.1C223.3,18.1,223.1,18.3,222.1,19.1
		 M236.7,41.2c-2.1,2.4-5.1,5.2-7.7,7c-0.6,0.4-1.4,1-1.7,1.2c-0.3,0.2-0.6,0.4-0.6,0.4c-0.1,0-0.3,0.1-0.5,0.3
		c-0.4,0.3-1,0.5-0.8,0.3c0.3-0.3,1.1-0.9,1.7-1.2c2.3-1.2,7.4-5.7,9.9-8.7c0.6-0.7,1.1-1.2,1.1-1.2
		C238.3,39.1,237.6,40.1,236.7,41.2"/>
	<path class="st0" d="M225.5,42.2c2.6-3,3.2-4.6,3.5-6.6c0.7-3.9-1.3-7.3-4.9-8.5c-1.4-0.5-3.1-0.3-4.6,0.5c-1.3,0.7-3,2.7-5.2,5
		c-6.6,7.1-8,7-12.5,11c-1.7,1.5-3.2,5.8,2.6,7.1C206.2,51,216.6,52.1,225.5,42.2 M222.2,30.6c2.6-1.3,2.9-0.5,3-0.2
		c1.3,2.6-1.4,7-2.2,7.8c-0.2,0.2-2.5-2.3-3.4-3.4c-0.3-0.4-0.9-1.1-0.9-1.4C218.8,33.3,220.8,31.3,222.2,30.6 M217,34.9
		c0,0,3.5,4.3,4.4,5c-0.7,1.5-2.9,3.4-3,3.4c-2.3-1.1-4.7-4.9-4.7-5.4C214.2,37.3,216.7,35.3,217,34.9 M211.5,39.7
		c0.5,1,4.2,5,5.1,5.1c0,0.1-4.5,2.7-4.9,2.7c-0.1,0-3.5-3.3-4.1-4.9C207.6,42.6,211.2,39.7,211.5,39.7 M201.8,45.1
		c-0.2,0.2-0.3,0.3-0.3,0.2c0-0.2,0.6-0.9,0.6-0.7C202,44.6,201.9,44.9,201.8,45.1 M203.5,47.2c0-2,2.1-3.5,2.1-3.5
		c0.1,0,3,3.9,3.6,4.6c0,0-1.7,0.4-2.6,0.5C204.3,48.8,203.5,48.2,203.5,47.2"/>
</g>
</svg>
