<?xml version="1.0" encoding="UTF-8" standalone="no"?>
<!DOCTYPE svg PUBLIC "-//W3C//DTD SVG 1.1//EN" "http://www.w3.org/Graphics/SVG/1.1/DTD/svg11.dtd">
<svg width="100%" height="100%" viewBox="0 0 326 86" version="1.1" xmlns="http://www.w3.org/2000/svg" xmlns:xlink="http://www.w3.org/1999/xlink" xml:space="preserve" xmlns:serif="http://www.serif.com/" style="fill-rule:evenodd;clip-rule:evenodd;stroke-linejoin:round;stroke-miterlimit:2;">
    <g>
        <path d="M322.7,16.7C322.7,8.8 316.3,2.3 308.3,2.3L17,2.3C9.1,2.3 2.7,8.8 2.7,16.7L2.7,69C2.7,76.9 9.1,83.4 17.1,83.4L308.3,83.4C316.2,83.4 322.7,77 322.7,69L322.7,16.7ZM168.121,51.647C167.797,52.826 167.509,53.718 167.259,54.323C167.008,54.927 166.632,55.554 166.131,56.203C165.747,56.144 165.482,56.188 165.334,56.336C165.187,56.483 165.025,56.616 164.848,56.734C164.582,56.793 164.391,56.793 164.273,56.734C164.155,56.675 164.052,56.608 163.963,56.535C163.875,56.461 163.764,56.387 163.631,56.314C163.499,56.24 163.3,56.203 163.034,56.203C162.975,55.967 162.909,55.746 162.835,55.539C162.761,55.333 162.562,55.259 162.238,55.318C162.297,55.082 162.312,54.883 162.282,54.721C162.253,54.559 162.216,54.411 162.172,54.279C162.127,54.146 162.09,54.013 162.061,53.881C162.031,53.748 162.046,53.578 162.105,53.372C161.958,53.372 161.84,53.269 161.751,53.062C161.663,52.856 161.56,52.649 161.442,52.443C161.53,51.912 161.619,51.411 161.707,50.939C161.796,50.467 161.906,50.025 162.039,49.612C162.172,49.199 162.282,48.786 162.371,48.373C162.459,47.96 162.415,47.533 162.238,47.09C162.356,47.179 162.444,47.157 162.503,47.024C162.562,46.891 162.606,46.714 162.636,46.493C162.665,46.272 162.68,46.051 162.68,45.83C162.68,45.609 162.665,45.424 162.636,45.277C162.931,44.51 163.174,43.721 163.366,42.91C163.558,42.099 163.734,41.296 163.897,40.499C164.059,39.703 164.228,38.922 164.405,38.155C164.582,37.388 164.818,36.68 165.113,36.032C165.438,35.973 165.799,36.009 166.197,36.142C166.595,36.275 166.838,36.444 166.927,36.651C167.694,36.061 168.372,35.346 168.962,34.505C169.551,33.665 170.156,32.847 170.775,32.05C171.395,31.254 172.08,30.546 172.832,29.927C173.584,29.308 174.535,28.939 175.685,28.821C176.275,29.264 176.931,29.713 177.654,30.17C178.376,30.628 178.974,31.225 179.445,31.962C179.681,32.08 179.88,32.205 180.043,32.338C180.205,32.471 180.404,32.611 180.64,32.758L180.64,33.289C180.994,33.613 181.281,33.989 181.502,34.417C181.724,34.845 181.923,35.302 182.1,35.788C182.276,36.275 182.453,36.761 182.63,37.248C182.807,37.735 183.014,38.199 183.25,38.641C183.191,38.789 183.161,38.914 183.161,39.017C183.161,39.121 183.183,39.231 183.228,39.349C183.272,39.467 183.309,39.585 183.338,39.703C183.368,39.821 183.368,39.983 183.338,40.19C183.25,41.487 182.829,42.534 182.077,43.33C181.325,44.127 180.419,44.783 179.357,45.299C178.295,45.815 177.16,46.25 175.951,46.604C174.742,46.958 173.651,47.341 172.677,47.754C172.677,47.872 172.729,47.931 172.832,47.931C172.935,47.931 172.972,48.005 172.943,48.152C173.651,48.594 174.211,48.948 174.624,49.214C175.037,49.479 175.427,49.7 175.796,49.877C176.165,50.054 176.563,50.209 176.99,50.342C177.418,50.474 178.015,50.629 178.782,50.806C179.549,50.983 180.146,51.123 180.573,51.226C181.001,51.33 181.392,51.418 181.746,51.492C182.1,51.566 182.461,51.625 182.829,51.669C183.198,51.713 183.722,51.765 184.4,51.824C184.665,52.089 184.894,52.406 185.085,52.775C185.277,53.143 185.402,53.512 185.461,53.881C185.52,54.249 185.535,54.603 185.506,54.942C185.476,55.281 185.373,55.554 185.196,55.761C185.226,55.849 185.292,55.886 185.395,55.871C185.498,55.856 185.609,55.864 185.727,55.893C185.55,56.011 185.402,56.159 185.284,56.336C185.167,56.513 185.049,56.69 184.931,56.866C184.813,57.043 184.68,57.198 184.532,57.331C184.385,57.464 184.179,57.545 183.913,57.574C182.999,57.928 181.849,57.95 180.463,57.641C179.077,57.331 177.322,56.763 175.199,55.938C174.137,55.525 173.275,55.163 172.611,54.854C171.948,54.544 171.372,54.234 170.886,53.925C170.399,53.615 169.957,53.283 169.559,52.93C169.161,52.576 168.681,52.148 168.121,51.647ZM116.498,44.657C116.292,44.834 116.115,45.048 115.968,45.299C115.82,45.55 115.673,45.808 115.525,46.073C115.378,46.397 115.216,46.707 115.039,47.002C114.862,47.297 114.641,47.562 114.375,47.798C114.228,48.241 114.08,48.587 113.933,48.838C113.785,49.088 113.549,49.376 113.225,49.7C112.93,50.88 112.237,52.163 111.146,53.549C111.117,53.814 111.035,54.072 110.903,54.323C110.77,54.574 110.63,54.817 110.482,55.053C110.423,55.141 110.365,55.237 110.306,55.34C110.247,55.444 110.202,55.525 110.173,55.584L110.084,56.026C109.937,56.262 109.775,56.468 109.598,56.645C109.421,56.822 109.259,56.984 109.111,57.132C109.052,57.22 108.949,57.338 108.802,57.486L108.138,57.751C105.985,57.456 104.673,56.306 104.201,54.301L104.245,53.858C104.304,53.711 104.356,53.556 104.4,53.394C104.444,53.232 104.496,53.062 104.555,52.885C104.673,52.472 104.813,52.06 104.975,51.647C105.137,51.234 105.381,50.865 105.705,50.541C105.764,50.334 105.897,50.003 106.103,49.546C106.31,49.088 106.663,48.403 107.165,47.489C107.578,46.781 107.902,46.22 108.138,45.808C108.374,45.395 108.566,45.07 108.713,44.834C108.418,44.363 108.064,43.935 107.651,43.552C107.268,42.814 106.936,42.107 106.656,41.428C106.376,40.75 106.162,40.145 106.015,39.615C105.985,39.231 105.941,38.907 105.882,38.641C105.823,38.376 105.764,38.096 105.705,37.801C105.617,37.477 105.543,37.152 105.484,36.828C105.425,36.503 105.395,36.164 105.395,35.81C105.248,35.604 105.159,35.398 105.13,35.191L105.218,34.749C105.307,34.542 105.322,34.27 105.263,33.93C105.204,33.591 105.13,33.245 105.042,32.891C104.983,32.596 104.916,32.272 104.842,31.918C104.769,31.564 104.747,31.21 104.776,30.856C104.806,30.502 104.901,30.17 105.064,29.861C105.226,29.551 105.499,29.278 105.882,29.042L106.634,28.998C106.899,29.146 107.157,29.286 107.408,29.418C107.659,29.551 107.902,29.691 108.138,29.839C108.462,29.986 108.772,30.134 109.067,30.281C109.362,30.428 109.671,30.62 109.996,30.856L110.306,31.475L110.881,31.962L110.881,32.449C110.91,32.566 110.925,32.729 110.925,32.935C110.925,33.318 110.984,33.554 111.102,33.643L111.279,34.174C111.279,34.587 111.323,34.977 111.411,35.346C111.5,35.715 111.588,36.061 111.677,36.385C111.765,36.71 111.854,37.049 111.942,37.403C112.031,37.757 112.045,38.14 111.986,38.553C112.163,38.465 112.311,38.361 112.429,38.243C112.488,38.184 112.547,38.14 112.606,38.111C112.665,38.081 112.724,38.037 112.783,37.978L115.393,34.439L115.304,33.997L116.233,33.112C116.469,32.876 116.698,32.655 116.919,32.449C117.14,32.242 117.324,32.021 117.472,31.785L117.958,31.431C118.902,29.957 120.244,29.042 121.984,28.689L122.603,28.6L122.78,29.175C122.898,29.5 123.141,29.794 123.51,30.06C123.878,30.325 124.269,30.576 124.682,30.812L125.08,31.077C125.228,31.372 125.301,31.593 125.301,31.741C125.301,31.888 125.287,32.021 125.257,32.139L125.434,32.581C125.198,33.289 124.911,33.805 124.571,34.129C124.232,34.454 123.901,34.749 123.576,35.014C123.311,35.25 123.067,35.464 122.846,35.656C122.625,35.847 122.456,36.091 122.338,36.385L122.028,36.739C121.409,37.093 121.01,37.565 120.834,38.155L120.701,38.686L120.17,38.686C120.141,38.686 120.074,38.737 119.971,38.841C119.868,38.944 119.713,39.202 119.506,39.615C119.3,39.91 119.153,40.101 119.064,40.19C118.976,40.278 118.902,40.352 118.843,40.411C118.813,40.529 118.777,40.639 118.732,40.743C118.688,40.846 118.637,40.971 118.578,41.119C118.194,41.502 117.958,41.79 117.87,41.981L117.228,43.308C117.125,43.529 116.956,43.758 116.72,43.994L116.498,44.657ZM240.276,35.323C240.232,35.486 240.185,35.648 240.136,35.81C240.048,36.105 239.93,36.378 239.782,36.629C239.635,36.879 239.429,37.093 239.163,37.27C239.075,38.037 238.964,38.737 238.831,39.371C238.699,40.005 238.566,40.632 238.433,41.251C238.301,41.871 238.19,42.512 238.102,43.176C238.013,43.839 237.984,44.569 238.013,45.365C237.777,46.044 237.526,46.766 237.261,47.533C236.996,48.3 236.789,48.993 236.642,49.612C236.17,49.995 235.801,50.452 235.536,50.983C235.27,51.514 234.99,52.045 234.695,52.576C234.577,52.694 234.504,52.723 234.474,52.664C234.445,52.605 234.342,52.561 234.165,52.531C234.194,52.649 234.194,52.738 234.165,52.797C234.135,52.856 234.098,52.907 234.054,52.952C234.01,52.996 233.98,53.062 233.966,53.151C233.951,53.239 233.973,53.357 234.032,53.505C233.619,53.682 233.25,53.932 232.926,54.257C232.602,54.581 232.255,54.876 231.886,55.141C231.518,55.407 231.075,55.584 230.559,55.672C230.043,55.761 229.372,55.657 228.547,55.362C227.338,54.478 226.269,53.46 225.34,52.31C224.411,51.16 223.651,49.789 223.062,48.196C222.796,48.255 222.604,48.41 222.486,48.661C222.368,48.911 222.258,49.169 222.155,49.435C222.051,49.7 221.948,49.944 221.845,50.165C221.742,50.386 221.587,50.497 221.381,50.497C221.351,50.732 221.27,50.939 221.137,51.116C221.005,51.293 220.879,51.477 220.761,51.669C220.643,51.86 220.555,52.067 220.496,52.288C220.437,52.509 220.466,52.767 220.584,53.062C220.348,53.239 220.201,53.49 220.142,53.814C220.083,54.139 220.017,54.448 219.943,54.743C219.869,55.038 219.744,55.289 219.567,55.495C219.39,55.702 219.066,55.79 218.594,55.761C218.505,55.879 218.491,55.952 218.55,55.982C218.608,56.011 218.653,56.114 218.682,56.291C218.358,56.232 218.115,56.255 217.952,56.358C217.79,56.461 217.591,56.527 217.355,56.557C216.795,56.38 216.33,56.07 215.962,55.628C215.593,55.186 215.269,54.692 214.989,54.146C214.708,53.6 214.458,53.047 214.237,52.487C214.015,51.927 213.802,51.44 213.595,51.027C213.684,50.703 213.698,50.386 213.639,50.076C213.58,49.767 213.477,49.509 213.33,49.302C214.775,46.235 216.352,42.962 218.063,39.482C219.773,36.002 221.395,32.566 222.929,29.175C223.607,29.441 224.278,29.743 224.942,30.082C225.605,30.421 226.21,30.812 226.755,31.254C227.301,31.697 227.765,32.205 228.149,32.78C228.532,33.355 228.783,33.997 228.901,34.705C228.842,34.881 228.775,34.948 228.702,34.904C228.628,34.859 228.561,34.881 228.502,34.97C228.62,35.117 228.687,35.221 228.702,35.28C228.716,35.339 228.716,35.398 228.702,35.457C228.687,35.516 228.679,35.597 228.679,35.7C228.679,35.803 228.724,35.943 228.812,36.12C228.694,36.091 228.613,36.105 228.569,36.164C228.525,36.223 228.429,36.223 228.281,36.164C228.399,36.489 228.436,36.754 228.392,36.961C228.348,37.167 228.281,37.351 228.193,37.513C228.104,37.676 228.031,37.853 227.972,38.044C227.913,38.236 227.927,38.479 228.016,38.774C227.927,38.774 227.861,38.796 227.817,38.841C227.773,38.885 227.736,38.929 227.706,38.973C227.677,39.017 227.64,39.062 227.596,39.106C227.551,39.15 227.485,39.158 227.397,39.128C227.485,39.777 227.515,40.426 227.485,41.074C227.456,41.723 227.433,42.379 227.419,43.043C227.404,43.706 227.411,44.399 227.441,45.122C227.47,45.844 227.574,46.589 227.75,47.356C228.812,46.737 229.66,45.94 230.294,44.967C230.928,43.994 231.444,42.903 231.842,41.694C232.24,40.485 232.543,39.187 232.749,37.801C232.955,36.415 233.177,34.999 233.413,33.554C233.678,33.289 233.884,32.965 234.032,32.581C234.179,32.198 234.312,31.792 234.43,31.365C234.548,30.937 234.666,30.51 234.784,30.082C234.902,29.654 235.049,29.264 235.226,28.91C235.669,28.969 236.045,29.109 236.354,29.33C236.664,29.551 236.951,29.787 237.217,30.038C237.482,30.288 237.762,30.524 238.057,30.745C238.352,30.967 238.721,31.107 239.163,31.166C239.353,31.435 239.535,31.701 239.708,31.962C239.718,31.946 239.728,31.932 239.738,31.918C239.827,31.8 239.9,31.697 239.959,31.608L240.092,30.945L240.667,30.989L241.906,30.989C242.849,30.989 243.808,30.952 244.781,30.878C245.754,30.804 246.757,30.723 247.789,30.635C248.379,30.576 248.976,30.517 249.581,30.458C250.185,30.399 250.812,30.34 251.461,30.281C251.579,30.016 251.697,29.765 251.815,29.529L252.257,29.308C252.788,29.278 253.164,29.345 253.385,29.507C253.606,29.669 253.79,29.824 253.938,29.971C254.587,29.912 255.243,29.846 255.906,29.772C256.57,29.699 257.241,29.603 257.919,29.485C258.922,29.337 259.932,29.205 260.949,29.087C261.967,28.969 262.947,28.91 263.891,28.91C264.304,28.91 264.702,28.924 265.085,28.954C265.468,28.983 265.822,29.028 266.147,29.087L266.589,29.396C266.678,29.573 266.803,29.735 266.965,29.883C267.127,30.03 267.297,30.178 267.474,30.325C267.828,30.65 268.182,31.033 268.535,31.475C268.889,31.918 269.022,32.566 268.934,33.422C268.698,33.776 268.521,33.982 268.403,34.041L268.005,34.572L267.562,34.528C267.385,34.528 267.223,34.55 267.076,34.594C266.928,34.638 266.781,34.69 266.633,34.749C266.515,34.808 266.397,34.859 266.279,34.904C266.162,34.948 266.029,34.985 265.881,35.014C265.616,35.014 265.402,35.007 265.24,34.992C265.078,34.977 264.908,34.97 264.731,34.97C263.994,34.97 263.198,35.022 262.343,35.125C261.487,35.228 260.647,35.339 259.821,35.457C259.231,35.545 258.664,35.619 258.118,35.678C257.572,35.737 257.079,35.781 256.636,35.81C256.43,36.459 256.223,37.034 256.017,37.536C255.81,38.037 255.589,38.524 255.353,38.995C255.117,39.497 254.904,40.005 254.712,40.521C254.52,41.038 254.336,41.591 254.159,42.18C253.864,42.652 253.621,43.087 253.429,43.485C253.237,43.883 253.083,44.333 252.965,44.834C252.611,45.277 252.345,45.741 252.168,46.228C251.991,46.714 251.859,47.135 251.77,47.489L251.593,48.019C251.416,48.196 251.313,48.336 251.284,48.44C251.254,48.543 251.18,48.639 251.063,48.727C251.033,49.052 250.93,49.376 250.753,49.7C250.694,49.848 250.65,49.988 250.62,50.121C250.591,50.253 250.576,50.349 250.576,50.408C250.576,50.703 250.502,50.895 250.355,50.983C250.384,51.131 250.384,51.285 250.355,51.448C250.325,51.61 250.296,51.765 250.266,51.912C250.178,52.266 250.148,52.546 250.178,52.753C250.266,52.871 250.347,52.974 250.421,53.062C250.495,53.151 250.546,53.269 250.576,53.416C250.753,53.534 250.886,53.608 250.974,53.637C251.092,53.726 251.269,53.829 251.505,53.947L251.903,54.389C252.05,55.244 251.918,55.923 251.505,56.424C251.063,56.984 250.311,57.265 249.249,57.265L248.718,57.265C248.571,57.117 248.482,56.999 248.453,56.911C248.217,56.822 248.025,56.748 247.878,56.69C247.73,56.631 247.597,56.513 247.479,56.336C247.096,56.159 246.786,56.011 246.55,55.893L246.152,55.672L246.152,55.141C245.946,54.876 245.791,54.581 245.688,54.257C245.585,53.932 245.504,53.608 245.445,53.283C245.386,53.018 245.319,52.767 245.246,52.531C245.172,52.295 245.076,52.089 244.958,51.912C244.899,50.202 245.061,48.757 245.445,47.577C245.828,46.397 246.226,45.262 246.639,44.171C246.875,43.581 247.111,42.984 247.347,42.379C247.583,41.775 247.789,41.148 247.966,40.499L248.364,40.057C248.571,39.585 248.74,39.194 248.873,38.885C249.006,38.575 249.146,38.258 249.293,37.934C249.382,37.727 249.463,37.528 249.536,37.337C249.61,37.145 249.676,36.975 249.735,36.828C249.559,36.828 249.396,36.835 249.249,36.85C249.101,36.865 248.954,36.887 248.807,36.916C248.63,36.946 248.467,36.968 248.32,36.983C248.172,36.997 248.025,37.005 247.878,37.005C247.671,37.005 247.524,36.99 247.435,36.961C247.111,37.108 246.757,37.182 246.374,37.182L245.931,37.182C245.843,37.182 245.762,37.174 245.688,37.16C245.614,37.145 245.548,37.137 245.489,37.137C245.194,37.137 244.958,37.182 244.781,37.27L243.321,37.27L242.879,37.314C242.673,37.314 242.451,37.292 242.215,37.248C241.98,37.204 241.729,37.108 241.463,36.961C241.11,36.489 240.874,36.238 240.756,36.209L240.358,35.678C240.337,35.556 240.31,35.438 240.276,35.323ZM153.922,28.821C155.16,28.969 156.266,29.219 157.239,29.573C158.212,29.927 159.038,30.399 159.716,30.989C160.188,31.726 160.638,32.522 161.066,33.377C161.493,34.233 161.818,35.125 162.039,36.054C162.26,36.983 162.363,37.934 162.348,38.907C162.334,39.88 162.12,40.868 161.707,41.871C160.852,42.932 159.812,43.795 158.588,44.458C157.365,45.122 156.045,45.66 154.629,46.073C153.214,46.486 151.747,46.84 150.228,47.135C148.709,47.43 147.227,47.724 145.782,48.019C145.812,48.698 145.819,49.413 145.804,50.165C145.79,50.917 145.716,51.669 145.583,52.421C145.451,53.173 145.251,53.903 144.986,54.61C144.721,55.318 144.367,55.967 143.924,56.557C143.423,56.557 142.907,56.623 142.376,56.756C141.845,56.889 141.374,56.999 140.961,57.088C140.754,56.97 140.57,56.859 140.408,56.756C140.246,56.653 140.017,56.586 139.722,56.557C139.781,56.262 139.707,55.96 139.501,55.65C139.294,55.34 139.088,55.023 138.882,54.699C138.675,54.375 138.535,54.065 138.461,53.77C138.388,53.475 138.528,53.195 138.882,52.93C138.675,52.723 138.572,52.458 138.572,52.133C138.778,51.779 138.963,51.293 139.125,50.674C139.287,50.054 139.42,49.442 139.523,48.838C139.626,48.233 139.648,47.68 139.589,47.179C139.53,46.678 139.235,46.309 138.705,46.073C138.734,46.014 138.793,45.985 138.882,45.985C138.97,45.985 139.059,45.97 139.147,45.94C138.911,45.763 138.771,45.513 138.727,45.188C138.683,44.864 138.572,44.584 138.395,44.348C138.454,44.2 138.498,44.068 138.528,43.95C138.557,43.832 138.66,43.788 138.837,43.817C138.749,43.286 138.756,42.785 138.859,42.313C138.963,41.841 139.118,41.391 139.324,40.964C139.53,40.536 139.781,40.116 140.076,39.703C140.371,39.29 140.651,38.877 140.916,38.465C141.123,38.435 141.248,38.465 141.292,38.553C141.337,38.641 141.432,38.627 141.58,38.509C141.963,38.214 142.229,37.904 142.376,37.58C142.524,37.255 142.597,36.887 142.597,36.474C142.804,35.855 143.054,35.228 143.349,34.594C143.644,33.96 143.969,33.377 144.323,32.847C144.676,32.316 145.067,31.844 145.495,31.431C145.922,31.018 146.372,30.709 146.844,30.502C147.198,30.207 147.64,29.934 148.171,29.684C148.702,29.433 149.277,29.241 149.896,29.109C150.515,28.976 151.142,28.902 151.776,28.888C152.41,28.873 152.993,28.939 153.523,29.087C153.671,29.146 153.752,29.116 153.767,28.998C153.782,28.88 153.833,28.821 153.922,28.821ZM69.565,55.451C69.27,55.598 68.997,55.731 68.746,55.849C68.496,55.967 68.208,56.026 67.884,56.026C66.734,55.171 66.136,53.682 66.092,51.558C66.048,49.435 66.498,46.737 67.441,43.463C67.589,43.375 67.663,43.198 67.663,42.932L67.264,42.49C67.147,42.49 67.036,42.505 66.933,42.534C66.83,42.564 66.748,42.667 66.689,42.844C65.923,43.404 65.082,43.987 64.168,44.591C63.254,45.196 62.303,45.756 61.315,46.272C60.327,46.788 59.324,47.208 58.307,47.533C57.289,47.857 56.294,48.019 55.321,48.019C52.844,48.019 50.986,46.766 49.747,44.259L49.393,43.596L49.04,44.171C48.951,44.289 48.818,44.532 48.641,44.901C48.464,45.269 48.288,45.69 48.111,46.161C47.934,46.633 47.779,47.113 47.646,47.599C47.513,48.086 47.462,48.506 47.491,48.86C47.226,49.125 46.946,49.435 46.651,49.789C46.356,50.143 46.135,50.541 45.987,50.983C45.928,51.219 45.958,51.44 46.076,51.647C46.017,51.912 45.884,52.119 45.678,52.266C45.56,52.413 45.434,52.554 45.302,52.686C45.169,52.819 45.058,52.959 44.97,53.106C44.911,53.254 44.874,53.401 44.859,53.549C44.845,53.696 44.822,53.844 44.793,53.991C44.793,54.198 44.763,54.389 44.704,54.566C44.203,55.598 43.805,56.269 43.51,56.579C43.215,56.889 42.817,57.043 42.316,57.043C42.08,57.043 41.696,56.999 41.166,56.911C40.782,56.498 40.436,55.93 40.126,55.208C39.816,54.485 39.581,53.711 39.418,52.885C39.256,52.06 39.182,51.226 39.197,50.386C39.212,49.546 39.352,48.816 39.617,48.196C39.617,48.167 39.735,47.872 39.971,47.312C40.207,46.751 40.509,46.029 40.878,45.144C41.247,44.259 41.667,43.279 42.139,42.202C42.611,41.126 43.082,40.079 43.554,39.062C44.026,38.044 44.476,37.108 44.904,36.253C45.331,35.398 45.692,34.749 45.987,34.306C46.223,33.953 46.437,33.621 46.629,33.311C46.82,33.001 47.005,32.699 47.182,32.404C47.712,31.49 48.221,30.731 48.708,30.126C49.194,29.522 49.909,29.042 50.853,28.689C51.502,28.954 51.974,29.264 52.269,29.617L52.357,30.104C52.475,30.399 52.652,30.546 52.888,30.546C53.212,30.635 53.485,30.716 53.706,30.79C53.928,30.863 54.171,30.93 54.436,30.989C54.643,31.225 54.834,31.505 55.011,31.829C55.247,32.183 55.476,32.53 55.697,32.869C55.918,33.208 56.095,33.547 56.228,33.886C56.36,34.225 56.434,34.572 56.449,34.926C56.464,35.28 56.397,35.648 56.25,36.032L56.294,36.474C56.442,36.739 56.471,37.108 56.383,37.58C56.353,37.786 56.338,38 56.338,38.221C56.338,38.442 56.368,38.686 56.427,38.951C56.958,39.364 57.429,39.57 57.842,39.57C58.314,39.57 58.749,39.46 59.147,39.239C59.545,39.017 59.921,38.789 60.275,38.553C60.511,38.376 60.747,38.221 60.983,38.089C61.219,37.956 61.455,37.875 61.691,37.845C62.222,37.344 62.701,36.902 63.128,36.518C63.556,36.135 64.006,35.751 64.478,35.368C65.362,34.66 66.218,33.894 67.043,33.068C67.869,32.242 68.533,31.21 69.034,29.971C69.329,29.794 69.638,29.706 69.963,29.706C70.287,29.706 70.626,29.78 70.98,29.927C71.334,30.075 71.673,30.222 71.998,30.369C72.086,30.428 72.167,30.473 72.241,30.502C72.315,30.532 72.381,30.561 72.44,30.591C72.44,30.886 72.558,31.136 72.794,31.343C72.912,31.431 72.986,31.49 73.015,31.52C73.045,31.549 73.089,31.579 73.148,31.608C73.59,31.844 73.87,32.08 73.988,32.316C74.195,32.994 74.563,33.51 75.094,33.864C75.035,34.159 75.043,34.432 75.116,34.682C75.19,34.933 75.286,35.191 75.404,35.457C75.433,35.545 75.463,35.633 75.492,35.722C75.522,35.81 75.566,35.914 75.625,36.032L74.785,35.943L74.917,36.784C74.976,37.196 74.939,37.654 74.807,38.155C74.674,38.656 74.519,39.054 74.342,39.349C74.372,40.116 74.394,40.713 74.409,41.141C74.423,41.568 74.401,41.967 74.342,42.335C74.283,42.704 74.202,43.05 74.099,43.375C73.996,43.699 73.856,44.053 73.679,44.436C73.797,46.324 73.583,48.041 73.037,49.59C72.492,51.138 71.924,52.59 71.334,53.947L70.936,54.832C70.671,54.92 70.435,55.016 70.228,55.119C70.022,55.222 69.801,55.333 69.565,55.451ZM211.295,42.977C211.265,43.33 211.295,43.67 211.383,43.994C211.472,44.318 211.582,44.635 211.715,44.945C211.848,45.255 211.973,45.572 212.091,45.896C212.209,46.22 212.298,46.545 212.357,46.869C212.416,47.282 212.416,47.732 212.357,48.218C212.298,48.705 212.194,49.177 212.047,49.634C211.899,50.091 211.708,50.504 211.472,50.873C211.236,51.241 210.956,51.514 210.631,51.691C210.219,52.222 209.717,52.635 209.127,52.93C208.538,53.224 207.992,53.578 207.491,53.991C207.166,54.198 206.805,54.345 206.407,54.434C206.009,54.522 205.603,54.61 205.19,54.699C204.866,54.876 204.483,55.06 204.04,55.252C203.598,55.444 203.141,55.62 202.669,55.783C202.197,55.945 201.725,56.063 201.253,56.137C200.782,56.21 200.369,56.232 200.015,56.203C199.13,56.527 198.268,56.741 197.427,56.844C196.587,56.948 195.606,56.881 194.485,56.645C193.424,56.793 192.443,56.748 191.544,56.513C190.644,56.277 189.848,55.901 189.155,55.385C188.462,54.868 187.858,54.249 187.341,53.527C186.825,52.804 186.405,52.045 186.081,51.249C185.845,49.568 185.904,48.041 186.258,46.67C186.612,45.299 187.12,44.031 187.784,42.866C188.447,41.701 189.207,40.625 190.062,39.637C190.917,38.649 191.743,37.683 192.539,36.739C192.716,36.798 192.856,36.791 192.959,36.717C193.063,36.644 193.158,36.54 193.247,36.408C193.335,36.275 193.431,36.15 193.534,36.032C193.638,35.914 193.763,35.84 193.91,35.81C194.117,35.368 194.419,35.036 194.817,34.815C195.215,34.594 195.532,34.277 195.768,33.864C196.034,33.805 196.255,33.717 196.432,33.599C196.609,33.481 196.778,33.348 196.941,33.201C197.103,33.053 197.272,32.913 197.449,32.78C197.626,32.648 197.833,32.552 198.069,32.493L198.069,32.006C198.599,31.77 198.99,31.497 199.241,31.188C199.491,30.878 199.794,30.502 200.148,30.06C200.413,30.03 200.627,30.016 200.789,30.016C200.951,30.016 201.194,29.986 201.519,29.927C201.755,29.514 201.969,29.205 202.16,28.998C202.352,28.792 202.64,28.571 203.023,28.335C203.377,28.512 203.768,28.63 204.195,28.689C204.623,28.747 204.999,28.939 205.323,29.264C205.353,29.558 205.441,29.787 205.589,29.949C205.736,30.111 205.898,30.259 206.075,30.392C206.252,30.524 206.422,30.664 206.584,30.812C206.746,30.959 206.857,31.166 206.916,31.431C207.034,31.461 207.115,31.446 207.159,31.387C207.203,31.328 207.284,31.313 207.402,31.343C207.491,31.756 207.594,32.028 207.712,32.161C207.83,32.294 207.948,32.552 208.066,32.935C207.918,33.23 207.808,33.532 207.734,33.842C207.66,34.152 207.476,34.38 207.181,34.528C207.152,34.734 207.21,34.845 207.358,34.859C207.505,34.874 207.594,34.955 207.623,35.103C207.653,35.368 207.609,35.56 207.491,35.678C208.198,36.828 208.832,38.044 209.393,39.327C209.953,40.61 210.587,41.826 211.295,42.977ZM285.699,42.977C285.669,43.33 285.699,43.67 285.787,43.994C285.876,44.318 285.986,44.635 286.119,44.945C286.252,45.255 286.377,45.572 286.495,45.896C286.613,46.22 286.701,46.545 286.76,46.869C286.819,47.282 286.819,47.732 286.76,48.218C286.701,48.705 286.598,49.177 286.451,49.634C286.303,50.091 286.112,50.504 285.876,50.873C285.64,51.241 285.36,51.514 285.035,51.691C284.622,52.222 284.121,52.635 283.531,52.93C282.941,53.224 282.396,53.578 281.895,53.991C281.57,54.198 281.209,54.345 280.811,54.434C280.413,54.522 280.007,54.61 279.594,54.699C279.27,54.876 278.887,55.06 278.444,55.252C278.002,55.444 277.545,55.62 277.073,55.783C276.601,55.945 276.129,56.063 275.657,56.137C275.186,56.21 274.773,56.232 274.419,56.203C273.534,56.527 272.671,56.741 271.831,56.844C270.991,56.948 270.01,56.881 268.889,56.645C267.828,56.793 266.847,56.748 265.948,56.513C265.048,56.277 264.252,55.901 263.559,55.385C262.866,54.868 262.261,54.249 261.745,53.527C261.229,52.804 260.809,52.045 260.485,51.249C260.249,49.568 260.308,48.041 260.662,46.67C261.015,45.299 261.524,44.031 262.188,42.866C262.851,41.701 263.611,40.625 264.466,39.637C265.321,38.649 266.147,37.683 266.943,36.739C267.12,36.798 267.26,36.791 267.363,36.717C267.466,36.644 267.562,36.54 267.651,36.408C267.739,36.275 267.835,36.15 267.938,36.032C268.042,35.914 268.167,35.84 268.314,35.81C268.521,35.368 268.823,35.036 269.221,34.815C269.619,34.594 269.936,34.277 270.172,33.864C270.438,33.805 270.659,33.717 270.836,33.599C271.013,33.481 271.182,33.348 271.344,33.201C271.507,33.053 271.676,32.913 271.853,32.78C272.03,32.648 272.237,32.552 272.472,32.493L272.472,32.006C273.003,31.77 273.394,31.497 273.645,31.188C273.895,30.878 274.198,30.502 274.551,30.06C274.817,30.03 275.031,30.016 275.193,30.016C275.355,30.016 275.598,29.986 275.923,29.927C276.159,29.514 276.373,29.205 276.564,28.998C276.756,28.792 277.043,28.571 277.427,28.335C277.781,28.512 278.171,28.63 278.599,28.689C279.027,28.747 279.403,28.939 279.727,29.264C279.757,29.558 279.845,29.787 279.992,29.949C280.14,30.111 280.302,30.259 280.479,30.392C280.656,30.524 280.826,30.664 280.988,30.812C281.15,30.959 281.261,31.166 281.32,31.431C281.437,31.461 281.519,31.446 281.563,31.387C281.607,31.328 281.688,31.313 281.806,31.343C281.895,31.756 281.998,32.028 282.116,32.161C282.234,32.294 282.352,32.552 282.47,32.935C282.322,33.23 282.212,33.532 282.138,33.842C282.064,34.152 281.88,34.38 281.585,34.528C281.555,34.734 281.614,34.845 281.762,34.859C281.909,34.874 281.998,34.955 282.027,35.103C282.057,35.368 282.013,35.56 281.895,35.678C282.602,36.828 283.236,38.044 283.797,39.327C284.357,40.61 284.991,41.826 285.699,42.977ZM101.945,31.077C102.004,31.726 102.107,32.286 102.255,32.758C102.402,33.23 102.564,33.687 102.741,34.129C102.889,34.542 103.029,34.948 103.162,35.346C103.294,35.744 103.39,36.223 103.449,36.784C103.213,37.55 103.044,38.258 102.94,38.907C102.837,39.556 102.727,40.234 102.609,40.942C102.137,41.974 101.68,42.888 101.237,43.684C100.795,44.481 100.441,45.174 100.176,45.763C100.028,45.911 99.903,46.08 99.8,46.272L99.247,47.267C99.158,47.444 99.084,47.562 99.026,47.621L98.141,47.312L97.964,48.417L97.345,48.594L96.902,49.125C96.342,50.098 95.752,50.917 95.133,51.58C94.513,52.244 93.813,52.834 93.032,53.35C92.25,53.866 91.365,54.345 90.377,54.787C89.39,55.23 88.276,55.716 87.038,56.247C86.536,56.188 86.101,56.151 85.733,56.137C85.364,56.122 85.018,56.1 84.693,56.07C84.133,56.07 83.44,56.026 82.614,55.938C82.526,55.702 82.393,55.539 82.216,55.451C82.039,55.362 81.877,55.318 81.729,55.318C81.228,55.082 80.852,54.736 80.601,54.279C80.351,53.822 80.108,53.328 79.872,52.797C79.724,52.472 79.577,52.17 79.429,51.89C79.282,51.61 79.12,51.322 78.943,51.027L79.695,50.806L78.721,49.745C78.662,49.656 78.589,49.575 78.5,49.501C78.412,49.428 78.338,49.346 78.279,49.258L78.235,48.55C78.146,46.515 78.11,44.65 78.124,42.954C78.139,41.259 78.368,39.747 78.81,38.42L78.81,37.934C78.898,37.285 78.987,36.747 79.075,36.319C79.164,35.892 79.238,35.486 79.297,35.103C79.385,34.454 79.518,33.849 79.695,33.289C80.108,33.201 80.417,33.031 80.624,32.78C80.83,32.53 81.007,32.301 81.154,32.095C81.567,32.065 81.847,32.124 81.995,32.272C82.142,32.419 82.29,32.655 82.437,32.979C82.585,33.245 82.769,33.54 82.99,33.864C83.211,34.188 83.543,34.439 83.985,34.616C84.044,34.852 84.126,35.095 84.229,35.346C84.332,35.597 84.443,35.869 84.561,36.164C84.796,36.666 85.01,37.189 85.202,37.735C85.394,38.28 85.504,38.804 85.534,39.305C85.239,39.865 85.01,40.514 84.848,41.251C84.686,41.989 84.583,42.733 84.538,43.485C84.494,44.237 84.509,44.96 84.583,45.653C84.656,46.346 84.782,46.928 84.959,47.4L85.224,47.975L85.976,47.887C86.861,47.651 87.664,47.393 88.387,47.113C89.109,46.832 89.78,46.501 90.4,46.117C91.019,45.734 91.609,45.284 92.169,44.768C92.729,44.252 93.319,43.655 93.938,42.977C94.558,42.298 95.096,41.524 95.553,40.654C96.01,39.784 96.393,38.877 96.703,37.934C97.013,36.99 97.249,36.054 97.411,35.125C97.573,34.196 97.684,33.318 97.743,32.493C98.244,32.316 98.495,31.962 98.495,31.431L98.406,30.945C98.288,30.768 98.288,30.561 98.406,30.325C98.583,29.765 98.996,29.337 99.645,29.042C100.117,29.337 100.537,29.662 100.906,30.016C101.274,30.369 101.621,30.723 101.945,31.077ZM205.765,47.179C205.883,46.855 206.038,46.589 206.23,46.383C206.422,46.176 206.532,45.867 206.562,45.454C206.414,45.218 206.326,45.033 206.296,44.901C206.267,44.768 206.252,44.554 206.252,44.259C205.603,43.345 205.043,42.365 204.571,41.318C204.099,40.271 203.568,39.29 202.979,38.376C202.92,38.494 202.816,38.612 202.669,38.73C202.522,38.848 202.359,38.818 202.182,38.641C202.123,38.877 202.02,39.047 201.873,39.15C201.725,39.253 201.563,39.298 201.386,39.283C201.209,39.268 201.025,39.224 200.833,39.15C200.642,39.076 200.472,38.981 200.325,38.863C199.469,39.541 198.614,40.204 197.759,40.853C196.904,41.502 196.137,42.254 195.459,43.109C195.341,43.168 195.267,43.19 195.237,43.176C195.208,43.161 195.119,43.183 194.972,43.242C194.736,43.802 194.449,44.311 194.109,44.768C193.77,45.225 193.439,45.69 193.114,46.161C192.79,46.633 192.51,47.135 192.274,47.665C192.038,48.196 191.905,48.816 191.876,49.523C192.377,49.936 192.967,50.187 193.645,50.275C194.323,50.364 195.024,50.379 195.746,50.32C196.469,50.261 197.176,50.165 197.869,50.032C198.562,49.899 199.204,49.833 199.794,49.833C201.032,49.538 202.094,49.147 202.979,48.661C203.863,48.174 204.792,47.68 205.765,47.179ZM280.169,47.179C280.287,46.855 280.442,46.589 280.634,46.383C280.826,46.176 280.936,45.867 280.966,45.454C280.818,45.218 280.73,45.033 280.7,44.901C280.671,44.768 280.656,44.554 280.656,44.259C280.007,43.345 279.447,42.365 278.975,41.318C278.503,40.271 277.972,39.29 277.383,38.376C277.324,38.494 277.22,38.612 277.073,38.73C276.925,38.848 276.763,38.818 276.586,38.641C276.527,38.877 276.424,39.047 276.277,39.15C276.129,39.253 275.967,39.298 275.79,39.283C275.613,39.268 275.429,39.224 275.237,39.15C275.045,39.076 274.876,38.981 274.728,38.863C273.873,39.541 273.018,40.204 272.163,40.853C271.308,41.502 270.541,42.254 269.863,43.109C269.745,43.168 269.671,43.19 269.641,43.176C269.612,43.161 269.523,43.183 269.376,43.242C269.14,43.802 268.853,44.311 268.513,44.768C268.174,45.225 267.842,45.69 267.518,46.161C267.194,46.633 266.914,47.135 266.678,47.665C266.442,48.196 266.309,48.816 266.279,49.523C266.781,49.936 267.371,50.187 268.049,50.275C268.727,50.364 269.428,50.379 270.15,50.32C270.873,50.261 271.58,50.165 272.273,50.032C272.966,49.899 273.608,49.833 274.198,49.833C275.436,49.538 276.498,49.147 277.383,48.661C278.267,48.174 279.196,47.68 280.169,47.179ZM174.447,36.474C174.122,36.946 173.761,37.373 173.363,37.757C172.965,38.14 172.582,38.531 172.213,38.929C171.844,39.327 171.513,39.769 171.218,40.256C170.923,40.743 170.716,41.31 170.598,41.959C171.631,41.841 172.707,41.554 173.828,41.097C174.948,40.639 176.01,40.204 177.012,39.792C176.895,38.877 176.577,38.14 176.061,37.58C175.545,37.02 175.007,36.651 174.447,36.474ZM152.108,39.393C152.845,39.069 153.634,38.811 154.475,38.619C155.315,38.428 156.015,38.066 156.576,37.536C156.222,37.211 155.706,36.924 155.027,36.673C154.349,36.422 153.612,36.268 152.816,36.209C152.019,36.15 151.216,36.216 150.405,36.408C149.594,36.599 148.894,36.961 148.304,37.491C148.127,38.022 147.979,38.442 147.861,38.752C147.743,39.062 147.581,39.438 147.375,39.88C147.434,40.028 147.53,40.138 147.662,40.212C147.795,40.286 147.891,40.396 147.95,40.544C148.628,40.19 149.314,39.991 150.007,39.946C150.7,39.902 151.4,39.718 152.108,39.393Z" style="fill:white;fill-rule:nonzero;"/>
    </g>
</svg>
