<?xml version="1.0" encoding="utf-8"?>
<!-- Generator: Adobe Illustrator 19.1.0, SVG Export Plug-In . SVG Version: 6.00 Build 0)  -->
<svg version="1.1" id="Layer_1" xmlns="http://www.w3.org/2000/svg" xmlns:xlink="http://www.w3.org/1999/xlink" x="0px" y="0px"
	 viewBox="0 0 760 65" style="enable-background:new 0 0 760 65;" xml:space="preserve">
<style type="text/css">
	.st0{fill:#FFFFFF;}
</style>
<g>
	<path class="st0" d="M79.3,52V25h-0.2L68.2,52h-4.1L53.2,25H53v27h-5.1V15.3h6.5l11.7,29.2h0.2l11.6-29.2h6.5V52L79.3,52L79.3,52z
		 M112.6,52h-5.2v-4.5h-0.1c-1.4,3.2-4.1,5-8.1,5c-5.7,0-9.2-3.8-9.2-9.9V25.2h5.4v16.3c0,4.1,1.9,6.3,5.6,6.3
		c3.9,0,6.2-2.7,6.2-6.9V25.2h5.4L112.6,52L112.6,52z M127.3,24.8c6.1,0,10.1,3.5,10.3,8.4h-5.1c-0.3-2.6-2.2-4.2-5.2-4.2
		c-2.9,0-4.9,1.4-4.9,3.6c0,1.7,1.2,2.8,4,3.5l4.3,1c5.4,1.3,7.4,3.4,7.4,7.3c0,4.9-4.5,8.2-10.7,8.2c-6.6,0-10.5-3.3-11-8.4h5.3
		c0.5,2.8,2.4,4.2,5.7,4.2c3.2,0,5.2-1.4,5.2-3.6c0-1.7-1-2.7-3.8-3.4l-4.3-1c-5-1.2-7.5-3.6-7.5-7.5
		C117.2,28,121.3,24.8,127.3,24.8L127.3,24.8z M142,18.2c0-1.8,1.4-3.2,3.1-3.2c1.7,0,3.1,1.4,3.1,3.2c0,1.7-1.4,3.2-3.1,3.2
		c-0.9,0-1.6-0.3-2.2-0.9C142.3,19.8,142,19,142,18.2L142,18.2z M142.4,25.2h5.4V52h-5.4V25.2z M170.6,34.4
		c-0.5-2.8-2.6-5.1-6.2-5.1c-4.2,0-6.9,3.5-6.9,9.3c0,5.9,2.8,9.3,7,9.3c3.3,0,5.5-1.9,6.1-5h5.2c-0.6,5.7-5,9.6-11.4,9.6
		c-7.5,0-12.4-5.2-12.4-13.9c0-8.5,4.9-13.9,12.4-13.9c6.8,0,10.9,4.4,11.4,9.7L170.6,34.4L170.6,34.4z M31.4,18.9
		c-1.4,1.7-3.6,3-5.8,2.8c-0.3-2.3,0.8-4.7,2.1-6.1c1.4-1.7,3.8-2.9,5.8-3C33.7,14.9,32.8,17.2,31.4,18.9L31.4,18.9z M33.4,22.1
		c1.2,0.1,4.8,0.5,7.2,4c-0.2,0.1-4.3,2.5-4.2,7.6c0,6,5.2,8,5.2,8.1c0,0.1-0.8,2.8-2.7,5.6c-1.6,2.4-3.3,4.8-6,4.9
		c-2.6,0-3.5-1.6-6.4-1.6c-3,0-3.9,1.5-6.4,1.6c-2.6,0.1-4.6-2.6-6.2-5c-3.4-4.9-5.9-13.9-2.4-20c1.7-3,4.8-4.9,8.1-5
		c2.5,0,4.9,1.7,6.4,1.7C27.5,24,30.2,21.9,33.4,22.1L33.4,22.1z"/>
	<g>
		<path class="st0" d="M644.3,20.5h9.3c5.8,0,9.8,3.8,9.8,9.3s-4.1,9.3-9.8,9.3h-9.3V20.5z M651.5,34h1.7c1.8,0,2.8-1.2,2.8-4.3
			s-1-4.3-2.8-4.3h-1.7V34z M679.8,39h-15.3V20.5h15.3v5h-8.1v2.1h7.6v4.1h-7.6V34h8.1V39L679.8,39z M696.8,39h-15.3V20.5h15.3v5
			h-8.1v2.1h7.6v4.1h-7.6V34h8.1V39L696.8,39z M752.2,39c-1-2.8-2.5-5.9-4.5-9.3c2.3-0.7,3.7-2.1,3.7-4.3c0-3.4-3.1-5-8-5h-10.1V39
			h7.2v-7.7c1.6,2.7,2.8,5.3,3.6,7.7L752.2,39L752.2,39z M740.5,28.7v-3.3h2.5c1.1,0,1.7,0.6,1.7,1.6c0,1.1-0.6,1.6-1.7,1.6
			L740.5,28.7L740.5,28.7z M731.6,39h-15.3V20.5h15.3v5h-8.1v2.1h7.6v4.1h-7.6V34h8.1V39L731.6,39z M698.5,25.5h7.5
			c-3.1,2.5-5.6,5.4-7.6,8.5v5h16.4v-5h-8.2c1.9-2.7,4.5-5.5,8.2-8.5v-5h-16.3L698.5,25.5L698.5,25.5z"/>
		<path class="st0" d="M623.9,16.2c0.4-2.5,1.1-4.1,1.8-4.1c1.3,0,2.4,5.5,2.4,12.3s-1.1,12.3-2.4,12.3c-0.5,0-1-0.9-1.4-2.5
			c-0.6,5.7-2,9.7-3.5,9.7c-1.2,0-2.2-2.4-3-6.1c-0.5,7.1-1.7,12.1-3.1,12.1c-0.9,0-1.7-2-2.3-5.2C611.7,51.3,610,56,608,56
			c-2,0-3.6-4.7-4.4-11.4c-0.6,3.2-1.4,5.2-2.3,5.2c-1.4,0-2.6-5-3.1-12.1c-0.7,3.7-1.8,6.1-3,6.1c-1.5,0-2.8-3.9-3.5-9.7
			c-0.4,1.6-0.9,2.5-1.4,2.5c-1.3,0-2.4-5.5-2.4-12.3s1.1-12.3,2.4-12.3c0.7,0,1.3,1.6,1.8,4.1c0.7-4.3,1.8-7.2,3.1-7.2
			c1.5,0,2.9,4,3.5,9.8c0.6-4.2,1.5-6.9,2.6-6.9c1.5,0,2.7,5.3,3.2,12.7c0.9-3.8,2.1-6.2,3.5-6.2s2.6,2.4,3.5,6.2
			c0.5-7.4,1.7-12.7,3.2-12.7c1,0,2,2.7,2.6,6.9c0.6-5.8,2-9.8,3.5-9.8C622.1,9,623.2,11.8,623.9,16.2L623.9,16.2z M584.5,23.1
			c0-3,0.6-5.5,1.4-5.5s1.4,2.5,1.4,5.5s-0.6,5.5-1.4,5.5S584.5,26.2,584.5,23.1z M628.8,23.1c0-3,0.6-5.5,1.4-5.5s1.4,2.5,1.4,5.5
			s-0.6,5.5-1.4,5.5S628.8,26.2,628.8,23.1L628.8,23.1z"/>
	</g>
	<path class="st0" d="M449.6,25.3v-1.9c0-0.3,0.2-0.4,0.4-0.5h8.1c0.3,0,0.4,0.2,0.4,0.4l0,0v0V25c-0.1,0.4-0.3,0.8-0.6,1.1
		l-4.2,6.1c1.6-0.1,3.2,0.3,4.6,1c0.3,0.1,0.4,0.4,0.4,0.7v2c0,0.3-0.2,0.4-0.4,0.4c-0.1,0-0.1,0-0.2,0c-2.7-1.4-5.9-1.4-8.5,0
		c-0.3,0.1-0.6-0.1-0.6-0.4V34c0-0.4,0.1-0.9,0.3-1.3l4.9-7.1h-4.2C449.8,25.8,449.6,25.6,449.6,25.3L449.6,25.3L449.6,25.3
		L449.6,25.3z M416.8,36.4c-0.2,0-0.4-0.2-0.4-0.4V23c0-0.3,0.2-0.5,0.5-0.5l0,0h2.4c0.3,0,0.4,0.2,0.5,0.4v1.7h0
		c0.4-1.5,1.8-2.4,3.3-2.4c1.6,0,2.6,0.7,3.3,2.4c0.7-1.9,2.9-2.9,4.9-2.1c0.6,0.2,1.2,0.6,1.6,1.1c0.8,1.1,0.6,2.7,0.6,4.1v8.2
		c0,0.3-0.2,0.5-0.5,0.5l0,0h-2.6c-0.3,0-0.4-0.2-0.4-0.4v-6.9c0-0.8,0-1.6-0.1-2.4c-0.1-0.7-0.8-1.2-1.5-1.1l0,0
		c-0.7,0-1.3,0.4-1.5,1.1c-0.2,0.8-0.3,1.7-0.2,2.5v6.9c0,0.3-0.2,0.5-0.5,0.5l0,0h-2.6c-0.3,0-0.4-0.2-0.4-0.4v-6.9
		c0-1.4,0.2-3.6-1.6-3.6c-1.8,0-1.7,2.1-1.7,3.6v6.9c0,0.3-0.2,0.5-0.5,0.5l0,0c0,0,0,0,0,0L416.8,36.4L416.8,36.4z M465.3,22.3
		c3.8,0,5.8,3.1,5.8,7.2c0,3.9-2.3,7-5.8,7c-3.7,0-5.7-3.1-5.7-7.1S461.6,22.3,465.3,22.3L465.3,22.3L465.3,22.3z M463.3,28.9
		c0,1.6,0,4.9,2,4.9s2.1-2.7,2.1-4.3c0-1.1-0.1-2.3-0.4-3.4c-0.1-0.8-0.9-1.3-1.7-1.2C463.4,24.9,463.3,27.4,463.3,28.9z
		 M476.1,36.4h-2.3c-0.2,0-0.4-0.2-0.4-0.4V23c0-0.3,0.2-0.4,0.4-0.4h2.2c0.2,0,0.4,0.1,0.4,0.4v2h0c0.7-1.8,1.6-2.6,3.2-2.6
		c1.1-0.1,2.1,0.5,2.7,1.5c0.6,1,0.6,2.8,0.6,4v8.2c0,0.2-0.2,0.4-0.4,0.4h-2.4c-0.2,0-0.4-0.2-0.4-0.4v-7c0-1.4,0.1-3.5-1.5-3.5
		c-0.6,0-1.1,0.4-1.3,1c-0.3,0.8-0.4,1.6-0.4,2.4v6.9C476.6,36.2,476.4,36.4,476.1,36.4L476.1,36.4L476.1,36.4L476.1,36.4z
		 M445.6,36.2c-0.1,0.1-0.4,0.1-0.6,0.1c-0.6-0.4-1-1-1.4-1.7c-1,1.2-2.5,1.9-4.1,1.8c-2.1,0-3.7-1.3-3.7-3.9c0-1.8,1-3.4,2.7-4
		c1.4-0.6,3.3-0.7,4.7-0.9v-0.3c0.1-0.6,0-1.2-0.3-1.8c-0.3-0.4-0.9-0.7-1.4-0.6c-1-0.1-1.8,0.6-2,1.5c0,0.2-0.2,0.4-0.4,0.4
		l-2.4-0.3c-0.2,0-0.4-0.3-0.3-0.5c0.6-2.9,3.2-3.8,5.6-3.8c1.4,0,2.7,0.4,3.7,1.2c1.2,1.1,1.1,2.6,1.1,4.3v3.9
		c0,0.9,0.3,1.7,0.9,2.3c0.2,0.2,0.2,0.5,0,0.7C447,35,446.1,35.8,445.6,36.2L445.6,36.2L445.6,36.2z M443.2,30.2v-0.5
		c-1.8,0-3.7,0.4-3.7,2.4c0,1,0.6,1.7,1.5,1.7c0.7,0,1.4-0.4,1.7-1.1C443.1,31.9,443.2,31.1,443.2,30.2L443.2,30.2z M412.8,36.2
		c-0.1,0.1-0.4,0.1-0.6,0.1c-0.6-0.4-1-1-1.4-1.6c-1,1.2-2.5,1.9-4.1,1.8c-2.1,0-3.7-1.3-3.7-3.9c-0.1-1.8,1-3.4,2.7-4
		c1.3-0.6,3.2-0.7,4.7-0.9v-0.3c0.1-0.6,0-1.2-0.3-1.8c-0.3-0.4-0.9-0.7-1.4-0.6c-0.9-0.1-1.8,0.6-2,1.5c0,0.2-0.2,0.4-0.4,0.4
		l-2.4-0.3c-0.2,0-0.4-0.3-0.3-0.5c0.6-2.9,3.2-3.8,5.6-3.8c1.4,0,2.7,0.4,3.7,1.2c1.2,1.1,1.1,2.6,1.1,4.3v3.9
		c0,0.9,0.3,1.7,0.9,2.3c0.2,0.2,0.2,0.4,0,0.6l0,0C414.2,35,413.3,35.8,412.8,36.2L412.8,36.2L412.8,36.2z M410.4,29.7
		c-1.8,0-3.7,0.4-3.7,2.4c0,1,0.6,1.7,1.5,1.7c0.7,0,1.4-0.4,1.7-1.1c0.4-0.8,0.6-1.6,0.5-2.5V29.7L410.4,29.7z M435.5,47.2
		c-7.8,0-15.4-3-21.2-8.6c-0.4-0.4,0-1,0.5-0.7c6.5,3.9,13.8,6,21.3,5.9c5.6,0,11-1.2,16.2-3.5c0.8-0.4,1.4,0.6,0.7,1.1
		C448.2,45.2,441.4,47.2,435.5,47.2z M454.8,39.4c-0.6-0.8-4-0.4-5.6-0.2c-0.5,0-0.6-0.4-0.1-0.7c2.7-2,7.2-1.4,7.7-0.7
		c0.5,0.7-0.1,5.2-2.7,7.4c-0.4,0.3-0.8,0.1-0.6-0.3C454.1,43.4,455.3,40.1,454.8,39.4L454.8,39.4z M533.7,34.2
		c0.5-0.3,0.7-0.9,0.7-1.4c0-0.4-0.1-0.8-0.4-1c-0.4-0.4-1-0.6-1.6-0.8l-2.3-0.9c-2-0.7-3-2-3-3.7c0-1.1,0.5-2.1,1.4-2.8
		c1-0.7,2.3-1.1,3.6-1c1.2,0,2.4,0.2,3.5,0.6c0.2,0,0.3,0.1,0.5,0.3c0.1,0.1,0.1,0.3,0.1,0.5v0.7c0,0.3-0.1,0.5-0.4,0.5
		c-0.2,0-0.4-0.1-0.6-0.1c-1-0.3-2-0.4-3-0.4c-1.7,0-2.6,0.6-2.6,1.7c0,0.4,0.1,0.8,0.4,1.1c0.5,0.4,1.1,0.7,1.7,0.9l2.2,0.8
		c0.9,0.3,1.7,0.8,2.3,1.4c0.5,0.6,0.7,1.4,0.7,2.1c0,1.1-0.5,2.3-1.4,3c-1.1,0.8-2.5,1.2-3.9,1.1c-1.4,0-2.8-0.2-4.1-0.7
		c-0.2-0.1-0.3-0.1-0.4-0.3c-0.1-0.1-0.1-0.3-0.1-0.5v-0.7c0-0.3,0.1-0.5,0.3-0.5c0.2,0,0.5,0.1,0.7,0.1c1.2,0.4,2.5,0.6,3.7,0.6
		C532.4,34.8,533.1,34.6,533.7,34.2L533.7,34.2L533.7,34.2z M521.7,23.2c0-0.3,0.1-0.5,0.4-0.6c0,0,0.1,0,0.1,0h1.6
		c0.3,0,0.5,0.1,0.5,0.4l0,0c0,0,0,0.1,0,0.1v12.6c0,0.3-0.1,0.5-0.4,0.6c0,0-0.1,0-0.1,0h-1.1c-0.1,0-0.3,0-0.4-0.1
		c-0.1-0.1-0.2-0.3-0.2-0.4l-0.2-1c-1.4,1.2-3.2,1.8-5.1,1.9c-1.1,0.1-2.1-0.3-2.9-1.1c-0.7-0.9-1.1-2-1-3.1v-9.4
		c0-0.3,0.1-0.5,0.4-0.6c0,0,0.1,0,0.1,0h1.6c0.3,0,0.5,0.1,0.5,0.4c0,0,0,0.1,0,0.1v8.6c-0.1,0.8,0.1,1.5,0.6,2.1
		c0.4,0.5,1.1,0.8,1.8,0.7c1.4,0,2.7-0.5,3.9-1.3L521.7,23.2L521.7,23.2z M507.3,36.4c-0.3,0-0.5-0.1-0.6-0.4l0,0c0,0,0-0.1,0-0.1
		v-8.8c0-0.7-0.1-1.4-0.5-2c-0.4-0.4-1-0.7-1.6-0.6c-1.4,0-2.8,0.4-4,1.2c0,0.1,0,0.3,0,0.4v9.8c0,0.3-0.1,0.5-0.4,0.6
		c0,0-0.1,0-0.1,0h-1.6c-0.3,0-0.5-0.1-0.6-0.4l0,0c0,0,0-0.1,0-0.1v-8.8c0-0.7-0.1-1.4-0.5-2c-0.4-0.4-1-0.7-1.6-0.6
		c-1.4,0-2.8,0.4-3.9,1.2v10.2c0,0.3-0.1,0.5-0.4,0.6c0,0-0.1,0-0.1,0h-1.6c-0.3,0-0.5-0.1-0.5-0.4c0,0,0-0.1,0-0.1V23.2
		c0-0.3,0.1-0.5,0.4-0.6c0,0,0.1,0,0.1,0h1.2c0.1,0,0.3,0,0.4,0.1c0.1,0.1,0.2,0.3,0.2,0.4l0.1,0.9c1.4-1.1,3.2-1.7,5-1.8
		c1.7,0,2.8,0.6,3.4,1.9c1.5-1.2,3.4-1.9,5.3-1.9c1-0.1,2.1,0.3,2.9,1c0.7,0.9,1.1,1.9,1,3v9.5c0,0.3-0.1,0.5-0.4,0.6
		c0,0-0.1,0-0.1,0L507.3,36.4L507.3,36.4z M548.5,26c-0.7,0.7-1,2-1,3.6v0.3c0,1.6,0.3,2.8,1,3.6c0.9,0.8,2,1.3,3.1,1.1
		c0.8,0,1.6-0.1,2.4-0.4c0.1,0,0.3-0.1,0.4-0.1c0.2,0,0.3,0.2,0.3,0.5v0.7c0,0.2,0,0.4-0.1,0.5c-0.1,0.1-0.3,0.2-0.4,0.3
		c-1,0.4-2,0.6-3,0.6c-2.1,0-3.7-0.6-4.8-1.8c-1.1-1.2-1.7-2.9-1.7-5.2c0-2.3,0.6-4,1.7-5.3c1.3-1.3,3-2,4.9-1.9
		c1,0,1.9,0.2,2.8,0.5c0.1,0,0.3,0.1,0.4,0.3c0.1,0.1,0.1,0.3,0.1,0.6v0.7c0,0.4-0.1,0.5-0.3,0.5c-0.1,0-0.3,0-0.4-0.1
		c-0.7-0.2-1.5-0.3-2.2-0.3C550.3,24.8,549.2,25.2,548.5,26L548.5,26L548.5,26z M541.7,23.4c0.3,0,0.5,0.1,0.5,0.4c0,0,0,0.1,0,0.1
		v12.3c0,0.3-0.1,0.5-0.4,0.5c0,0-0.1,0-0.1,0h-1.6c-0.3,0-0.5-0.1-0.5-0.4l0,0c0,0,0-0.1,0-0.1V23.9c0-0.3,0.1-0.5,0.4-0.5
		c0,0,0.1,0,0.1,0H541.7L541.7,23.4z M542.1,18.2c0.6,0.7,0.6,1.7,0,2.4c-0.7,0.6-1.7,0.6-2.4,0c-0.6-0.7-0.6-1.7,0-2.4
		C540.4,17.6,541.4,17.6,542.1,18.2z"/>
	<path class="st0" d="M230.6,7.3c-13.9,0-25.2,11.3-25.2,25.2c0,13.9,11.3,25.2,25.2,25.2c13.9,0,25.2-11.3,25.2-25.2
		C255.8,18.6,244.5,7.3,230.6,7.3L230.6,7.3L230.6,7.3z M242.2,43.6c-0.5,0.7-1.4,1-2.2,0.5c0,0,0,0,0,0c-5.9-3.6-13.3-4.4-22.1-2.4
		c-0.8,0.2-1.7-0.3-1.9-1.2c-0.2-0.8,0.3-1.7,1.2-1.9c0,0,0,0,0,0c9.6-2.2,17.8-1.2,24.4,2.8C242.4,41.9,242.6,42.9,242.2,43.6z
		 M245.2,36.8c-0.6,0.9-1.8,1.2-2.7,0.6c-6.8-4.2-17.1-5.4-25.1-2.9c-1,0.3-2.1-0.3-2.4-1.3c-0.3-1,0.3-2.1,1.3-2.4
		c9.1-2.8,20.5-1.4,28.3,3.3C245.5,34.6,245.8,35.9,245.2,36.8L245.2,36.8z M245.5,29.6c-8.1-4.8-21.5-5.3-29.2-2.9
		c-1.2,0.4-2.6-0.3-2.9-1.6c-0.4-1.2,0.3-2.6,1.6-2.9c8.9-2.7,23.7-2.2,33,3.4c1.1,0.7,1.5,2.1,0.8,3.2c0,0,0,0,0,0
		C248.1,29.9,246.6,30.3,245.5,29.6L245.5,29.6z M273.9,30.6c-4.3-1-5.1-1.8-5.1-3.3c0-1.4,1.4-2.4,3.4-2.4c2,0,3.9,0.7,5.9,2.3
		c0.1,0,0.1,0.1,0.2,0.1c0.1,0,0.1-0.1,0.2-0.1l2.1-3c0.1-0.1,0.1-0.3-0.1-0.4c-2.4-1.9-5.2-2.9-8.3-2.9c-4.7,0-8,2.8-8,6.8
		c0,4.3,2.8,5.8,7.7,7c4.2,1,4.9,1.8,4.9,3.2c0,1.6-1.4,2.6-3.7,2.6c-2.5,0-4.6-0.9-6.9-2.9c-0.1,0-0.1-0.1-0.2-0.1
		c-0.1,0-0.1,0-0.2,0.1l-2.4,2.8c-0.1,0.1-0.1,0.3,0,0.4c2.7,2.4,6,3.7,9.6,3.7c5.1,0,8.3-2.8,8.3-7
		C281.4,33.9,279.2,31.9,273.9,30.6L273.9,30.6z M292.8,26.3c-2.2,0-4,0.9-5.5,2.6v-2c0-0.2-0.1-0.3-0.3-0.3h-3.9
		c-0.2,0-0.3,0.1-0.3,0.3V49c0,0.2,0.1,0.3,0.3,0.3h3.9c0.2,0,0.3-0.1,0.3-0.3v-7c1.5,1.7,3.3,2.5,5.5,2.5c4.1,0,8.2-3.1,8.2-9.1
		C301,29.4,296.9,26.3,292.8,26.3L292.8,26.3z M296.5,35.4c0,3-1.9,5.2-4.6,5.2c-2.7,0-4.7-2.2-4.7-5.2c0-3,2-5.2,4.7-5.2
		C294.6,30.2,296.5,32.4,296.5,35.4L296.5,35.4z M311.6,26.3c-5.2,0-9.4,4-9.4,9.2c0,5.1,4.1,9.1,9.3,9.1c5.3,0,9.4-4,9.4-9.2
		C320.9,30.3,316.8,26.3,311.6,26.3L311.6,26.3z M311.6,40.6c-2.8,0-4.9-2.2-4.9-5.2c0-3,2-5.1,4.8-5.1c2.8,0,4.9,2.2,4.9,5.2
		C316.4,38.5,314.4,40.6,311.6,40.6L311.6,40.6z M332.1,26.6h-4.3v-4.4c0-0.2-0.1-0.3-0.3-0.3c0,0,0,0,0,0h-3.9
		c-0.2,0-0.3,0.1-0.3,0.3v4.4h-1.9c-0.2,0-0.3,0.1-0.3,0.3v3.3c0,0.2,0.1,0.3,0.3,0.3h1.9v8.7c0,3.5,1.7,5.3,5.2,5.3
		c1.4,0,2.6-0.3,3.6-0.9c0.1,0,0.1-0.1,0.1-0.2v-3.2c0-0.1-0.1-0.2-0.1-0.2c-0.1-0.1-0.2-0.1-0.3,0c-0.7,0.4-1.5,0.5-2.3,0.5
		c-1.2,0-1.8-0.6-1.8-1.8v-8h4.3c0.2,0,0.3-0.1,0.3-0.3v-3.3C332.4,26.8,332.2,26.6,332.1,26.6C332.1,26.6,332.1,26.6,332.1,26.6
		L332.1,26.6z M347,26.7v-0.5c0-1.6,0.6-2.3,2-2.3c0.8,0,1.5,0.2,2.2,0.4c0.1,0,0.2,0,0.3,0c0.1-0.1,0.1-0.1,0.1-0.2v-3.3
		c0-0.1-0.1-0.2-0.2-0.3c-0.8-0.2-1.8-0.5-3.2-0.5c-3.6,0-5.5,2-5.5,5.8v0.8h-1.9c-0.2,0-0.3,0.1-0.3,0.3v3.4c0,0.2,0.1,0.3,0.3,0.3
		h1.9v13.3c0,0.2,0.1,0.3,0.3,0.3h3.9c0.2,0,0.3-0.1,0.3-0.3V30.6h3.6l5.6,13.3c-0.6,1.4-1.3,1.7-2.1,1.7c-0.7,0-1.4-0.2-2.1-0.6
		c-0.1,0-0.2,0-0.2,0c-0.1,0-0.1,0.1-0.2,0.2l-1.3,2.9c-0.1,0.1,0,0.3,0.1,0.4c1.4,0.7,2.6,1.1,4.2,1.1c2.9,0,4.5-1.3,5.9-4.9
		l6.7-17.4c0-0.1,0-0.2,0-0.3c-0.1-0.1-0.1-0.1-0.2-0.1h-4.1c-0.1,0-0.2,0.1-0.3,0.2l-4.1,11.8l-4.5-11.9c0-0.1-0.1-0.2-0.3-0.2
		L347,26.7L347,26.7z M338.3,26.6h-3.9c-0.2,0-0.3,0.1-0.3,0.3v17c0,0.2,0.1,0.3,0.3,0.3h3.9c0.2,0,0.3-0.1,0.3-0.3v-17
		C338.6,26.8,338.5,26.6,338.3,26.6C338.3,26.6,338.3,26.6,338.3,26.6L338.3,26.6z M336.4,18.9c-1.5,0-2.8,1.2-2.8,2.8
		c0,1.5,1.2,2.8,2.8,2.8s2.8-1.2,2.8-2.8C339.2,20.2,338,18.9,336.4,18.9z M370.5,32.1c-1.5,0-2.7-1.2-2.7-2.7s1.2-2.8,2.8-2.8
		c1.5,0,2.7,1.2,2.7,2.7C373.3,30.8,372,32.1,370.5,32.1L370.5,32.1z M370.5,26.9c-1.4,0-2.5,1.1-2.5,2.5c0,1.4,1.1,2.5,2.4,2.5
		c1.4,0,2.5-1.1,2.5-2.5C373,28,371.9,26.9,370.5,26.9L370.5,26.9z M371.1,29.6l0.8,1.1h-0.7l-0.7-1h-0.6v1h-0.5v-2.9h1.3
		c0.7,0,1.1,0.3,1.1,0.9C371.8,29.2,371.5,29.5,371.1,29.6L371.1,29.6z M370.7,28.3h-0.7v0.9h0.7c0.4,0,0.6-0.2,0.6-0.5
		C371.2,28.5,371,28.3,370.7,28.3z"/>
</g>
</svg>
