<?xml version="1.0" encoding="utf-8"?>
<!-- Generator: Adobe Illustrator 19.1.0, SVG Export Plug-In . SVG Version: 6.00 Build 0)  -->
<svg version="1.1" id="Layer_1" xmlns="http://www.w3.org/2000/svg" xmlns:xlink="http://www.w3.org/1999/xlink" x="0px" y="0px"
	 viewBox="0 0 325.3 85.7" style="enable-background:new 0 0 325.3 85.7;" xml:space="preserve">
<style type="text/css">
	.st0{fill:#FFFFFF;}
</style>
<g>
	<path class="st0" d="M89.2,35.4c-0.8-0.1-1.6,0-2.3,0.2c-0.8,0.2-1.5,0.5-2,1.1c-0.2,0.5-0.3,0.9-0.4,1.2c-0.1,0.3-0.3,0.7-0.5,1.1
		c0.1,0.1,0.1,0.3,0.3,0.3s0.2,0.2,0.3,0.3c0.7-0.3,1.3-0.5,2-0.6s1.4-0.2,2-0.5c0.7-0.3,1.5-0.6,2.3-0.8c0.8-0.2,1.5-0.5,2-1.1
		c-0.3-0.3-0.8-0.6-1.5-0.8S89.9,35.5,89.2,35.4z"/>
	<path class="st0" d="M194.1,37.8l-0.3,0.4c-0.6,0.6-1.1,1.3-1.7,2c-0.5,0.7-1,1.4-1.4,2.1c-0.2,0.3-0.3,0.5-0.5,0.8
		c-0.2,0.3-0.3,0.5-0.5,0.8c0.2,0,0.3,0,0.5,0c0.2,0,0.3,0,0.5,0c0.9-0.1,1.6-0.1,2.3-0.2c0.7-0.1,1.5-0.2,2.3-0.4
		c-0.2-0.9-0.4-1.8-0.6-2.7C194.6,39.7,194.4,38.7,194.1,37.8z"/>
	<path class="st0" d="M322.7,16.7c0-7.9-6.4-14.4-14.4-14.4H17C9.1,2.3,2.7,8.8,2.7,16.7V69c0,7.9,6.4,14.4,14.4,14.4h291.2
		c7.9,0,14.4-6.4,14.4-14.4V16.7z M94.8,43.4c-1.2,0.6-2.5,1.2-3.8,1.6c-1.4,0.4-2.8,0.7-4.3,1s-2.9,0.6-4.3,0.9c0,0.7,0,1.4,0,2.1
		c0,0.7-0.1,1.5-0.2,2.2c-0.1,0.7-0.3,1.4-0.6,2.1s-0.6,1.3-1,1.9c-0.5,0-1,0.1-1.5,0.2c-0.5,0.1-1,0.2-1.4,0.3
		c-0.2-0.1-0.4-0.2-0.5-0.3c-0.2-0.1-0.4-0.2-0.7-0.2c0.1-0.3,0-0.6-0.2-0.9c-0.2-0.3-0.4-0.6-0.6-0.9c-0.2-0.3-0.3-0.6-0.4-0.9
		c-0.1-0.3,0.1-0.6,0.4-0.8c-0.2-0.2-0.3-0.5-0.3-0.8c0.2-0.3,0.4-0.8,0.5-1.4s0.3-1.2,0.4-1.8c0.1-0.6,0.1-1.1,0.1-1.6
		c-0.1-0.5-0.3-0.8-0.9-1.1c0-0.1,0.1-0.1,0.2-0.1s0.2,0,0.3,0c-0.2-0.2-0.4-0.4-0.4-0.7c0-0.3-0.2-0.6-0.3-0.8
		c0.1-0.1,0.1-0.3,0.1-0.4s0.1-0.2,0.3-0.1c-0.1-0.5-0.1-1,0-1.5s0.3-0.9,0.5-1.3c0.2-0.4,0.4-0.8,0.7-1.2c0.3-0.4,0.6-0.8,0.8-1.2
		c0.2,0,0.3,0,0.4,0.1s0.1,0.1,0.3,0c0.4-0.3,0.6-0.6,0.8-0.9c0.1-0.3,0.2-0.7,0.2-1.1c0.2-0.6,0.4-1.2,0.7-1.8
		c0.3-0.6,0.6-1.2,0.9-1.7c0.3-0.5,0.7-1,1.1-1.4c0.4-0.4,0.9-0.7,1.3-0.9c0.3-0.3,0.8-0.6,1.3-0.8c0.5-0.2,1.1-0.4,1.7-0.6
		c0.6-0.1,1.2-0.2,1.8-0.2c0.6,0,1.2,0,1.7,0.2c0.1,0.1,0.2,0,0.2-0.1s0.1-0.2,0.2-0.2c1.2,0.1,2.3,0.4,3.2,0.7
		c0.9,0.3,1.7,0.8,2.4,1.4c0.5,0.7,0.9,1.5,1.3,2.3c0.4,0.8,0.7,1.7,0.9,2.6c0.2,0.9,0.3,1.8,0.3,2.8c0,0.9-0.2,1.9-0.6,2.9
		C97,41.9,96,42.8,94.8,43.4z M120.7,55c-0.1,0.2-0.2,0.3-0.3,0.5s-0.2,0.3-0.4,0.5s-0.3,0.2-0.6,0.2c-0.9,0.3-2,0.4-3.4,0.1
		s-3-0.9-5.1-1.7c-1-0.4-1.9-0.8-2.5-1.1c-0.6-0.3-1.2-0.6-1.7-0.9c-0.5-0.3-0.9-0.6-1.3-1c-0.4-0.3-0.9-0.8-1.4-1.2
		c-0.3,1.1-0.6,2-0.8,2.6c-0.2,0.6-0.6,1.2-1.1,1.8c-0.4-0.1-0.6,0-0.8,0.1c-0.1,0.1-0.3,0.3-0.5,0.4c-0.3,0.1-0.4,0.1-0.6,0
		c-0.1-0.1-0.2-0.1-0.3-0.2c-0.1-0.1-0.2-0.1-0.3-0.2s-0.3-0.1-0.6-0.1c-0.1-0.2-0.1-0.4-0.2-0.6c-0.1-0.2-0.3-0.3-0.6-0.2
		c0.1-0.2,0.1-0.4,0-0.6s-0.1-0.3-0.1-0.4s-0.1-0.3-0.1-0.4s0-0.3,0-0.5c-0.1,0-0.3-0.1-0.3-0.3s-0.2-0.4-0.3-0.6
		c0.1-0.5,0.2-1,0.3-1.5s0.2-0.9,0.3-1.3c0.1-0.4,0.2-0.8,0.3-1.2c0.1-0.4,0-0.8-0.1-1.2c0.1,0.1,0.2,0.1,0.3-0.1s0.1-0.3,0.1-0.5
		s0-0.4,0-0.6s0-0.4,0-0.5c0.3-0.7,0.5-1.5,0.7-2.3c0.2-0.8,0.4-1.6,0.5-2.3c0.2-0.8,0.3-1.5,0.5-2.3s0.4-1.4,0.7-2.1
		c0.3-0.1,0.7,0,1.1,0.1s0.6,0.3,0.7,0.5c0.7-0.6,1.4-1.3,2-2.1c0.6-0.8,1.2-1.6,1.8-2.4c0.6-0.8,1.3-1.5,2-2.1
		c0.7-0.6,1.7-1,2.8-1.1c0.6,0.4,1.2,0.9,1.9,1.3c0.7,0.4,1.3,1,1.7,1.7c0.2,0.1,0.7,0.2,0.8,0.4c0.2,0.1-0.2,0.3,0.8,0.4v0.5
		c0,0.3,0.4,0.7,0.6,1.1s0.3,0.9,0.5,1.3s0.3,0.9,0.5,1.4c0.2,0.5,0.3,0.9,0.6,1.4c-0.1,0.1-0.1,0.3-0.1,0.4c0,0.1,0,0.2,0.1,0.3
		c0,0.1,0.1,0.2,0.1,0.3c0,0.1,0,0.3,0,0.5c-0.1,1.3-0.5,2.3-1.2,3c-0.7,0.8-1.6,1.4-2.6,1.9c-1,0.5-2.1,0.9-3.3,1.3
		c-1.2,0.3-2.2,0.7-3.2,1.1c0,0.1,0,0.2,0.2,0.2c0.1,0,0.1,0.1,0.1,0.2c0.7,0.4,1.2,0.8,1.6,1c0.4,0.3,0.8,0.5,1.1,0.6
		c0.4,0.2,0.7,0.3,1.2,0.5s1,0.3,1.7,0.5s1.3,0.3,1.7,0.4s0.8,0.2,1.1,0.3s0.7,0.1,1.1,0.2c0.4,0,0.9,0.1,1.5,0.2
		c0.3,0.3,0.5,0.6,0.7,0.9c0.2,0.4,0.3,0.7,0.4,1.1c0.1,0.4,0.1,0.7,0,1c0,0.3-0.1,0.6-0.3,0.8c0,0.1,0.1,0.1,0.2,0.1
		c0.1,0,0.2,0,0.3,0C121,54.6,120.8,54.8,120.7,55z M142.8,34.1c-0.8,0.4-1.6,0.6-2.6,0.8c-0.9,0.2-1.9,0.3-2.8,0.5
		c-1,0.2-1.9,0.5-2.9,1.1c-0.4-0.1-0.7-0.1-1,0c-0.3,0.1-0.7,0.2-1.3,0.1c-0.2,0.2-0.4,0.3-0.6,0.4s-0.5,0.2-0.8,0.2
		c0.1,0.3,0.2,0.5,0.2,0.8c0,0.3,0,0.5,0.1,0.7c1,0.1,2.1,0.1,3.3,0c1.2-0.1,2.4-0.2,3.6-0.2c0,0.1,0,0.2,0,0.3s-0.1,0.1,0,0.2
		c0.2,0.1,0.4,0.3,0.6,0.5c0.2,0.2,0.4,0.4,0.6,0.6c0.2,0.2,0.4,0.4,0.6,0.5c0.2,0.1,0.5,0.2,0.8,0.2c0.1,0.2,0.2,0.5,0.2,0.8
		c0,0.3,0,0.6-0.1,0.8c-0.5,0.3-0.9,0.6-1.4,1c-0.5,0.3-0.9,0.6-1.4,0.9c-0.5,0.3-1,0.6-1.6,0.8c-0.6,0.2-1.2,0.3-1.9,0.3
		c-0.1,0-0.3,0-0.3,0c-0.1,0-0.2-0.2-0.3-0.3c-0.2,0.1-0.6,0.1-1,0.1c-0.4-0.1-0.7-0.1-1,0.1c-0.3-0.1-0.7-0.2-1.1-0.2
		c-0.4,0-0.8,0-1.2-0.2c-0.5,0.6-0.9,1.2-1.2,1.9c-0.4,0.7-0.7,1.4-1,2.2c1,0.1,1.8,0.2,2.4,0.2c0.6,0,1.3-0.1,1.8-0.2
		c0.6-0.1,1.2-0.1,1.8-0.2c0.6-0.1,1.4-0.1,2.3-0.1c0.6-0.3,1.3-0.5,2-0.6c0.8-0.1,1.5-0.3,2.2-0.5c0.2,0.1,0.4,0.2,0.6,0.5
		s0.3,0.4,0.5,0.6c0.2,0.2,0.3,0.4,0.5,0.5c0.2,0.1,0.4,0.2,0.6,0.2c0.1,0.1,0.2,0.3,0.2,0.4s0.1,0.3,0.1,0.5s0.1,0.3,0.2,0.4
		c0.1,0.1,0.2,0.1,0.4,0.1c-0.4,0.9-0.9,1.7-1.5,2.2c-0.6,0.5-1.2,0.9-1.9,1.1c-0.7,0.3-1.5,0.5-2.4,0.6c-0.9,0.1-1.8,0.3-2.9,0.5
		c-0.3,0.1-0.5,0-0.6,0c-0.2-0.1-0.4-0.1-0.6-0.1c-0.7,0.1-1.4,0.3-2.4,0.4c-0.9,0.1-1.8,0.2-2.8,0.1c-0.9,0-1.8-0.2-2.7-0.4
		c-0.9-0.2-1.6-0.6-2.1-1.1c-0.2-0.2-0.4-0.4-0.5-0.7c-0.1-0.3-0.3-0.5-0.6-0.6c0-0.4-0.1-0.8-0.2-1.2c-0.1-0.5-0.2-0.9-0.3-1.4
		s-0.2-1-0.2-1.5c0-0.5,0-0.9,0.1-1.3c0.1-0.4,0.3-0.8,0.5-1.2s0.4-0.7,0.3-1.1c0.1,0,0.2-0.1,0.3-0.2s0.1-0.2,0.3-0.2
		c0.2-0.5,0.4-1,0.6-1.5c0.2-0.5,0.4-0.9,0.6-1.3c0.2-0.4,0.4-0.9,0.6-1.3c0.2-0.4,0.4-0.9,0.6-1.5c-0.4-0.4-0.7-0.8-0.9-1.2
		c-0.2-0.4-0.3-0.9-0.4-1.3c-0.1-0.4-0.2-0.9-0.2-1.4s-0.2-1-0.3-1.4c0.3-0.4,0.6-0.8,1.1-1.1c0.4-0.3,0.9-0.5,1.4-0.7
		c0.5-0.2,1-0.3,1.6-0.4c0.6-0.1,1.2-0.2,1.8-0.4c1.1-0.4,2.2-0.7,3.1-0.9c0.9-0.2,1.8-0.4,2.7-0.5s1.8-0.3,2.7-0.4
		c0.9-0.1,2-0.3,3.2-0.5c0.3,0.3,0.5,0.4,0.7,0.4c0.1-0.3,0.3-0.3,0.4-0.2c0.2,0.1,0.2,0,0.2-0.2c0.3,0.5,0.7,0.9,1.1,1.2
		c0.4,0.3,0.9,0.6,1.5,0.8c0,0.2,0,0.4,0,0.5c0,0.1,0,0.2,0,0.3c0,0.1,0,0.2,0,0.3c0,0.1,0,0.3,0.1,0.5
		C144.3,33.1,143.6,33.8,142.8,34.1z M178.2,47.5c-0.4,1.1-1,2-1.8,2.8c-0.8,0.8-1.6,1.6-2.6,2.2c-1,0.6-2,1.2-3.1,1.7
		c-1.1,0.5-2.1,0.8-3.2,1.2c-0.1,0-0.2,0-0.3,0c-0.1,0-0.1,0-0.1-0.2c-0.2,0.2-0.5,0.3-0.8,0.4c-0.3,0.1-0.6,0.1-0.9,0.1
		c-0.3,0-0.6,0-1-0.1c-0.3,0-0.6,0-0.9,0c-0.2-0.2-0.4-0.4-0.5-0.6s-0.3-0.4-0.4-0.7c-0.1,0-0.2-0.1-0.2-0.2c0-0.1,0-0.2-0.2-0.2
		c0.2-0.3,0.3-0.5,0.2-0.5c0,0-0.1-0.1-0.1-0.1c-0.1,0-0.1-0.1-0.2-0.1c-0.1,0-0.1-0.1,0-0.2c0.1-0.2,0.2-0.5,0.1-0.8
		c0-0.3-0.1-0.6-0.1-0.9c0-0.3,0-0.6,0.1-0.9c0.1-0.3,0.3-0.5,0.6-0.7c1,0.1,1.9,0.1,2.8-0.1c0.9-0.2,1.7-0.5,2.5-0.8
		c0.8-0.3,1.5-0.7,2.2-1.1c0.7-0.4,1.4-0.8,2.1-1.1c0.1-0.3,0.2-0.5,0.4-0.6c0.2-0.2,0.3-0.3,0.5-0.5c0.2-0.1,0.3-0.3,0.5-0.5
		c0.1-0.2,0.2-0.4,0.3-0.6c0-0.2,0-0.3-0.2-0.4s-0.2-0.2-0.2-0.3l-0.5-0.1c-0.5-0.3-1.2-0.6-1.8-0.8c-0.7-0.2-1.3-0.5-1.8-0.7
		c-0.3,0.2-0.6,0.2-0.9,0.1c-0.3-0.1-0.6-0.2-1.1-0.3c-1-0.1-1.9-0.2-2.8-0.3c-0.9-0.1-1.8-0.4-2.6-0.8c-0.1-0.1-0.1-0.3-0.2-0.4
		c-0.1-0.1-0.2-0.1-0.5-0.1c-0.2-0.2-0.3-0.5-0.5-0.7c-0.2-0.2-0.3-0.5-0.5-0.7c0.1-0.3,0.1-0.6,0.1-0.9c0-0.2-0.1-0.5-0.3-0.7
		c0.1-0.4,0.2-0.7,0.3-0.9c0.1-0.2,0.1-0.5,0-0.9c0.2-0.6,0.5-1.1,1-1.5c0.4-0.4,0.9-0.8,1.5-1.1c0.5-0.3,1.1-0.6,1.7-0.8
		c0.6-0.2,1.1-0.4,1.6-0.5c1.1-0.5,2.4-1,3.7-1.4c1.3-0.4,2.6-0.8,4-1.2c1.4-0.3,2.8-0.6,4.2-0.7c1.4-0.1,2.9,0.1,4.5,0.5
		c0.1,0.3,0.2,0.6,0.4,0.8s0.4,0.5,0.5,0.8c0.2,0.3,0.4,0.5,0.5,0.8c0.1,0.2,0.2,0.5,0.3,0.8c0.3,0.3,0.5,0.5,0.7,0.8
		s0.2,0.7,0.1,1.2c-0.3,0.2-0.6,0.4-0.8,0.6c-0.3,0.2-0.6,0.4-0.9,0.5c-1.1-0.3-2.1-0.3-3.2-0.3c-1.1,0.1-2.1,0.2-2.9,0.2
		c-0.3-0.3-0.6-0.4-0.9-0.4c-0.4,0-0.7,0.1-1.1,0.2c-0.4,0.1-0.8,0.2-1.2,0.3s-0.8,0.1-1.1,0.1c-0.3,0.2-0.6,0.4-1.1,0.5
		s-0.9,0.1-1.4,0.2c0,0.1,0,0.2,0.1,0.3s0.1,0.1,0,0.3c0.2,0.2,0.4,0.3,0.7,0.4c0.3,0.1,0.6,0.2,0.9,0.3s0.6,0.2,0.8,0.3
		c0.2,0.1,0.4,0.3,0.5,0.6c0.4,0,0.8,0.1,1.1,0.3c0.3,0.2,0.6,0.4,0.8,0.7s0.4,0.6,0.5,0.9c0.1,0.3,0.2,0.6,0.2,0.9
		c0.1,0.2,0.2,0.3,0.3,0.3c0.1,0,0.2,0,0.4,0.2c0.1,0.4,0.3,0.8,0.6,1.1c0.3,0.4,0.6,0.8,0.8,1.3c0.1,0.7,0.1,1.4,0.1,1.9
		C178.5,46.3,178.4,46.9,178.2,47.5z M205.9,44.3c-0.3,0.5-0.7,1-1.2,1.5c-0.5,0.5-1.1,0.9-1.8,1.2c0,0.2,0,0.3,0.1,0.5
		c0,0.2,0,0.3,0.1,0.5c0.1,0.5,0.2,1,0.2,1.5s0.1,1,0,1.6l-0.1,0.2c-0.2,0.5-0.4,1-0.8,1.5c-0.3,0.5-0.7,0.9-1.2,1.3
		c-0.4,0.4-0.9,0.7-1.5,1s-1.1,0.4-1.7,0.4c-0.4-0.1-0.6-0.2-0.8-0.3c-0.1-0.1-0.3-0.2-0.4-0.3c-0.1-0.1-0.2-0.1-0.2-0.2
		c-0.1,0-0.1-0.1-0.2-0.1l-0.5-0.2l0.2-0.6c0.1-0.2,0-0.4,0-0.5s-0.3-0.3-0.5-0.5c-0.1-0.1-0.2-0.2-0.3-0.3s-0.2-0.2-0.2-0.3
		l-0.7-0.8l1.2-0.3c0.7-0.2,1.2-0.5,1.4-0.8c0.2-0.3,0.3-0.8,0.3-1.6c-0.6-0.1-1.1-0.1-1.4,0c-0.4,0.1-0.8,0.2-1.2,0.3
		c-0.5,0.1-1,0.3-1.6,0.4c-0.5,0.1-1.1,0.2-1.7,0.2c-0.2,0-0.4,0-0.6,0c-0.2,0-0.4,0-0.6-0.1l-0.4-0.1c-0.1-0.3-0.1-0.5-0.2-0.5
		c-0.1,0-0.1-0.1-0.2-0.2c-0.1-0.1-0.3-0.3-0.5-0.6s-0.2-0.6-0.1-0.9c-0.1-0.3-0.2-0.5-0.3-0.8c-0.2,0.3-0.3,0.7-0.4,1.1l-0.2,0.4
		l-0.4,0.1c-0.1,0-0.1,0.1-0.1,0.2s0,0.2,0,0.2l-0.2,0.7c-0.1,0.1-0.1,0.1-0.2,0.2s-0.1,0.1-0.2,0.2c-0.1,0.3-0.1,0.5-0.2,0.8
		c-0.1,0.3-0.2,0.5-0.3,0.7c-0.1,0.4-0.3,0.7-0.4,1.1c-0.1,0.4-0.1,0.7-0.1,1.1l-0.2,0.5c-0.1,0.2-0.3,0.3-0.5,0.4
		c-0.2,0.1-0.3,0.2-0.5,0.3c-0.1,0.1-0.1,0.1-0.2,0.2c-0.1,0-0.2,0.1-0.2,0.1l-0.1,0.5l-0.5,0.1c-0.3,0.1-0.5,0.1-0.7,0.1
		c-0.1,0-0.3,0-0.5,0l-0.4,0c-0.3-0.3-0.6-0.5-0.7-0.6c-0.2-0.2-0.4-0.3-0.6-0.5c-0.3-0.3-0.4-0.6-0.4-0.8c0-0.2-0.1-0.3-0.1-0.5
		c-0.1-0.2-0.1-0.3-0.1-0.4c0-0.1,0-0.2-0.1-0.3l-0.6-0.5l0.5-0.4l0-0.7c0.6-1.5,1.2-2.9,1.8-4.2c0.6-1.3,1.3-2.7,2-4.1
		c0.2-0.5,0.5-0.9,0.7-1.4s0.4-0.9,0.7-1.4c0-0.1,0-0.2,0-0.3s0-0.2,0.1-0.4c0.3-0.5,0.6-0.9,0.8-1.3c0.2-0.4,0.4-0.8,0.6-1.2
		c0.2-0.5,0.5-1,0.7-1.4s0.6-0.9,0.9-1.4l0.7-0.3c0.1,0,0.2-0.1,0.3-0.1s0.2-0.1,0.4-0.1l0.6,0.1c0.8-0.4,1.5-0.9,2.1-1.6
		c0.6-0.7,1.2-1.5,1.8-2.4l0.4-0.6l0.6,0.3c0.1,0.1,0.3,0.2,0.6,0.2c0.3,0.1,0.5,0.2,0.8,0.2c0.5,0.1,1,0.2,1.5,0.4
		c0.5,0.1,0.8,0.4,1.1,0.6c0.2,0.5,0.3,0.8,0.3,1c0,0.2,0.1,0.5,0.1,0.7c0.1,0.5,0.2,1,0.2,1.5c0.1,0.5,0.1,1,0.2,1.6
		c0.1,0.5,0.3,1,0.4,1.4c0.1,0.5,0.2,1,0.3,1.4c0.1,0.7,0.3,1.4,0.4,2c0.1,0.6,0.3,1.3,0.6,1.8c0.2,0,0.4,0,0.4,0
		c0.1-0.1,0.3-0.1,0.5-0.1c0.2,0,0.3-0.1,0.5-0.1l0.5,0l0.2,0.4c0,0.1,0.2,0.3,0.4,0.4c0.4,0,0.6,0.1,0.8,0.2
		c0.2,0.1,0.3,0.3,0.5,0.4c0.1,0.1,0.2,0.2,0.3,0.3l0.6,0.3L205.9,44.3z M247.6,34.1c-0.8,0.4-1.6,0.6-2.6,0.8
		c-0.9,0.2-1.9,0.3-2.8,0.5c-1,0.2-1.9,0.5-2.9,1.1c-0.4-0.1-0.7-0.1-1,0c-0.3,0.1-0.7,0.2-1.3,0.1c-0.2,0.2-0.4,0.3-0.6,0.4
		s-0.5,0.2-0.8,0.2c0.1,0.3,0.2,0.5,0.2,0.8c0,0.3,0,0.5,0.1,0.7c1,0.1,2.1,0.1,3.3,0c1.2-0.1,2.4-0.2,3.6-0.2c0,0.1,0,0.2,0,0.3
		s-0.1,0.1,0,0.2c0.2,0.1,0.4,0.3,0.6,0.5c0.2,0.2,0.4,0.4,0.6,0.6c0.2,0.2,0.4,0.4,0.6,0.5c0.2,0.1,0.5,0.2,0.8,0.2
		c0.1,0.2,0.2,0.5,0.2,0.8c0,0.3,0,0.6-0.1,0.8c-0.5,0.3-0.9,0.6-1.4,1c-0.5,0.3-0.9,0.6-1.4,0.9c-0.5,0.3-1,0.6-1.6,0.8
		c-0.6,0.2-1.2,0.3-1.9,0.3c-0.1,0-0.3,0-0.3,0c-0.1,0-0.2-0.2-0.3-0.3c-0.2,0.1-0.6,0.1-1,0.1c-0.4-0.1-0.7-0.1-1,0.1
		c-0.3-0.1-0.7-0.2-1.1-0.2c-0.4,0-0.8,0-1.2-0.2c-0.5,0.6-0.9,1.2-1.2,1.9c-0.4,0.7-0.7,1.4-1,2.2c1,0.1,1.8,0.2,2.4,0.2
		c0.6,0,1.3-0.1,1.8-0.2c0.6-0.1,1.2-0.1,1.8-0.2c0.6-0.1,1.4-0.1,2.3-0.1c0.6-0.3,1.3-0.5,2-0.6c0.8-0.1,1.5-0.3,2.2-0.5
		c0.2,0.1,0.4,0.2,0.6,0.5s0.3,0.4,0.5,0.6c0.2,0.2,0.3,0.4,0.5,0.5c0.2,0.1,0.4,0.2,0.6,0.2c0.1,0.1,0.2,0.3,0.2,0.4
		s0.1,0.3,0.1,0.5s0.1,0.3,0.2,0.4c0.1,0.1,0.2,0.1,0.4,0.1c-0.4,0.9-0.9,1.7-1.5,2.2c-0.6,0.5-1.2,0.9-1.9,1.1
		c-0.7,0.3-1.5,0.5-2.4,0.6c-0.9,0.1-1.8,0.3-2.9,0.5c-0.3,0.1-0.5,0-0.6,0c-0.2-0.1-0.4-0.1-0.6-0.1c-0.7,0.1-1.4,0.3-2.4,0.4
		c-0.9,0.1-1.8,0.2-2.8,0.1c-0.9,0-1.8-0.2-2.7-0.4c-0.9-0.2-1.6-0.6-2.1-1.1c-0.2-0.2-0.4-0.4-0.5-0.7c-0.1-0.3-0.3-0.5-0.6-0.6
		c0-0.4-0.1-0.8-0.2-1.2c-0.1-0.5-0.2-0.9-0.3-1.4s-0.2-1-0.2-1.5c0-0.5,0-0.9,0.1-1.3c0.1-0.4,0.3-0.8,0.5-1.2s0.4-0.7,0.3-1.1
		c0.1,0,0.2-0.1,0.3-0.2s0.1-0.2,0.3-0.2c0.2-0.5,0.4-1,0.6-1.5c0.2-0.5,0.4-0.9,0.6-1.3c0.2-0.4,0.4-0.9,0.6-1.3
		c0.2-0.4,0.4-0.9,0.6-1.5c-0.4-0.4-0.7-0.8-0.9-1.2c-0.2-0.4-0.3-0.9-0.4-1.3c-0.1-0.4-0.2-0.9-0.2-1.4c0-0.4-0.1-0.7-0.2-1.1
		c-0.1,0.2-0.1,0.5-0.1,0.7c-0.7,0.9-1.4,1.7-2.2,2.7c-0.8,0.9-1.6,1.9-2.4,2.8c-0.8,1-1.5,2-2.3,3.1c-0.7,1.1-1.3,2.2-1.8,3.4
		c-0.1,0-0.3,0-0.3,0.1c-0.1,0.1-0.1,0.2-0.2,0.3c-0.1,0.1-0.1,0.2-0.2,0.3c-0.1,0.1-0.2,0.1-0.3,0.1c0,0.4-0.1,0.8-0.3,1.1
		c-0.2,0.4-0.4,0.7-0.6,1c-0.2,0.3-0.5,0.6-0.8,0.9c-0.3,0.3-0.5,0.6-0.8,0.8c0.1,0.4,0.1,0.7,0,0.8s-0.1,0.5-0.1,0.8
		c-0.4,1.1-1.1,1.9-2,2.3s-1.7,0.3-2.5-0.2c-0.3-0.2-0.6-0.5-0.8-0.9c-0.2-0.4-0.5-0.6-0.9-0.7c0.1-0.5,0-1-0.1-1.5
		c-0.2-0.5-0.4-0.7-0.6-0.8c-0.1-0.6-0.2-1.2-0.4-1.9c-0.2-0.7-0.3-1.4-0.5-2.1c-0.1-0.7-0.3-1.4-0.4-2.1c-0.1-0.7-0.1-1.3-0.1-1.9
		c0-0.3,0-0.5-0.2-0.8c-0.1-0.2-0.2-0.5-0.3-0.8c-0.1-0.7-0.2-1.4-0.1-2.1c0-0.7,0.1-1.4,0.1-2.1c0-0.6,0-1.3-0.1-2
		c-0.1-0.7-0.1-1.4-0.2-2.1s-0.1-1.3-0.1-1.8c0-0.6,0.1-1,0.2-1.3c0.2-0.3,0.4-0.6,0.7-0.8s0.6-0.5,0.8-0.7c0.6,0.1,1.1,0.3,1.5,0.8
		c0.4,0.5,0.5,0.9,0.4,1.3c0.6,0.4,1.1,0.9,1.4,1.4c0.4,0.6,0.6,1.2,0.9,2c0.2,0.7,0.4,1.5,0.5,2.3c0.1,0.8,0.2,1.6,0.2,2.4
		c0.1,0.8,0.1,1.5,0.2,2.3c0.1,0.7,0.2,1.3,0.3,1.8c1.1-1.5,1.9-2.9,2.7-4.1c0.7-1.2,1.4-2.3,2.2-3.4c0.7-1.1,1.6-2.2,2.5-3.3
		c0.9-1.1,2.1-2.4,3.6-3.8c0.3,0,0.5,0.1,0.7,0.2c0.2,0.1,0.4,0.2,0.5,0.2c0.1,0.1,0.3,0.1,0.5,0.1s0.5,0,0.8,0
		c0.1,0.3,0.2,0.5,0.3,0.6c0.1,0.1,0.1,0.3,0.2,0.4s0.1,0.3,0.2,0.5c0.1,0.2,0.2,0.5,0.4,0.9c0.1,0.1,0.1,0.2,0.1,0.3
		c0,0.1,0,0.3-0.1,0.4c0,0.1,0,0.2,0,0.3s0.1,0.1,0.2,0c0,0.2-0.1,0.4-0.2,0.5c0.2-0.1,0.3-0.3,0.5-0.4c0.4-0.3,0.9-0.5,1.4-0.7
		c0.5-0.2,1-0.3,1.6-0.4c0.6-0.1,1.2-0.2,1.8-0.4c1.1-0.4,2.2-0.7,3.1-0.9c0.9-0.2,1.8-0.4,2.7-0.5s1.8-0.3,2.7-0.4
		c0.9-0.1,2-0.3,3.2-0.5c0.3,0.3,0.5,0.4,0.7,0.4c0.1-0.3,0.3-0.3,0.4-0.2c0.2,0.1,0.2,0,0.2-0.2c0.3,0.5,0.7,0.9,1.1,1.2
		c0.4,0.3,0.9,0.6,1.5,0.8c0,0.2,0,0.4,0,0.5c0,0.1,0,0.2,0,0.3c0,0.1,0,0.2,0,0.3c0,0.1,0,0.3,0.1,0.5
		C249.1,33.1,248.4,33.8,247.6,34.1z"/>
	<path class="st0" d="M112.7,38.9c-0.1-0.9-0.4-1.6-0.9-2.1c-0.5-0.5-1-0.9-1.6-1.1c-0.3,0.5-0.7,0.9-1.1,1.2
		c-0.4,0.4-0.8,0.8-1.1,1.1c-0.4,0.4-0.7,0.8-1,1.3c-0.3,0.5-0.5,1-0.6,1.7c1-0.1,2-0.4,3.1-0.8C110.7,39.7,111.7,39.3,112.7,38.9z"
		/>
</g>
</svg>
